<?xml version="1.0" encoding="UTF-8"?>
<svg id="Camada_2" data-name="Camada 2" xmlns="http://www.w3.org/2000/svg" viewBox="0 0 54.83 54.08">
  <defs>
    <style>
      .cls-1 {
        fill: #763a10;
      }

      .cls-2 {
        fill: #df9256;
      }

      .cls-3 {
        fill: #572f17;
      }
    </style>
  </defs>
  <g id="Camada_1-2" data-name="Camada 1">
    <g>
      <g>
        <path class="cls-3" d="m27.77,54.08c-.55,0-1.06-.1-1.54-.3l-.19-.08-.17-.12c-.15-.1-.41-.27-.77-.49-10.15-6.46-17.44-13.06-21.65-19.64C1.49,30.86-.76,24.17.25,18.59c.65-3.59,2.55-6.44,5.5-8.25,1.55-1.06,4.38-2.17,7.76-2.17,2.37,0,5.56.54,8.64,2.77C24.27,4.03,29.3,0,36.08,0s13.12,3.96,16.44,9.86c3.46,6.15,3.03,13.38-1.2,20.37-1.66,2.81-16.09,23.85-23.54,23.85Z"/>
        <path class="cls-1" d="m23.35,14.75c3.78-25.37,40.36-8.82,26.25,14.45-3.62,6.12-17.9,24.7-22.6,22.74-1.63-1.11-15.13-9-21.91-19.63-2.24-2.85-6.48-15.3,1.75-20.28,2.95-2.05,10.84-3.76,16.51,2.72Z"/>
      </g>
      <path class="cls-2" d="m31.13,45.68c.18-.23.27-.35.46-.59.63-.81,1.23-1.45,1.86-2.07.56-.55,1.18-1.14,1.8-1.68,1.25-1.08,2.38-1.68,3.95-3.22,1.56-1.54,3.36-3.64,4.92-5.67,1.48-1.93,2.72-3.75,3.5-5.11,3.01-5.22,3.14-10.85-.54-15.52-3.68-4.66-9.94-6.39-15.03-4.11-1.73.77-3.34,2.07-4.43,3.93-1.25,2.13-1.76,5.02-1.86,7.93-.14,3.77.81,6.96,1.95,9.87,1.14,2.92,2.5,5.89,5.06,5.95,3.53.08,7.21-2.31,10.41-6.7,3.19-4.39,2.94-8.76.67-12.27-1.27-1.97-3.18-3.42-5.28-3.85s-4.38.24-6.03,2.25c-1.67,2.02-2.61,5.24-2.78,8.07-.14,2.38.2,4.36,1.08,5.86.34.57.8,1.05,1.4,1.08.6.02,1.37-.56,1.55-1.39.24-1.14-.68-1.68-1.17-2.48-.98-1.59-.27-4.69.96-6.95.63-1.16,1.4-2.22,2.33-2.79,1.35-.83,2.9-.52,4.09.39s2.01,2.36,2.4,3.94c.56,2.28.14,5.04-1.39,7.43-1.53,2.39-3.89,4.21-5.95,4.4-2.66.24-4.44-1.54-5.42-4.13-.98-2.59-1.32-5.98-.75-9.66.46-2.97,1.43-5.86,3.21-7.43,1.87-1.66,4.32-1.68,6.53-1.13,2.76.7,5.39,2.42,6.97,5.12,1.22,2.1,1.88,4.82,1.61,7.1-.54,4.69-5.83,11.11-9.66,14.47-2.67,2.34-7.9,6.19-9.26,7.18-.22.16-.46.32-.72.28-3.19-.5-10.57-7.83-16-13.56-1.75-1.85-2.6-4.82-2.83-7.31-.17-1.78.16-3.62,1.09-5.06,2.06-3.19,5.63-2.8,8.44-1.45,1.49.71,2.99,2.12,3.54,4.22.46,1.73.2,3.42-.2,4.83-.43,1.55-1.25,3.1-2.79,3.12-1.09.01-2.24-.89-2.91-2.04-.66-1.15-.89-2.5-.88-3.74,0-.94.14-1.86,0-2.75s-.66-1.78-1.44-1.93c-.64-.12-1.29.32-1.66.93-.37.61-.5,1.38-.56,2.12-.24,3.07.9,6.38,3.31,8.53,2.42,2.15,5.9,2.63,7.86.98,1.41-1.18,1.96-3,2.25-5.13.2-1.45.3-3.15-.08-4.9-.49-2.22-1.74-4.18-3.14-5.34-2.66-2.21-5.98-2.68-9.08-2.02-1.63.35-3.25,1.1-4.41,2.47-2.41,2.83-2.25,7.5-.93,11.16,1.93,5.33,6.19,9.77,10.49,13.07,1.61,1.23,3.16,2.61,5.07,3.97s2.99,3.69,4.56,3.63c.6-.02,1.1-.16,1.57-.41.46-.25.9-.63,1.3-.94.22-.17.44-.35.65-.52"/>
    </g>
  </g>
</svg>