<?xml version="1.0" encoding="UTF-8"?>
<svg id="Camada_2" data-name="Camada 2" xmlns="http://www.w3.org/2000/svg" viewBox="0 0 177.36 51.39">
  <defs>
    <style>
      .cls-1 {
        fill: #572f17;
      }
    </style>
  </defs>
  <g id="Camada_1-2" data-name="Camada 1">
    <path class="cls-1" d="m32.14,36.68c-.17,2.8-.41,4.74-2.26,6.83-1.71,1.92-2.22,3.02-4.69,3.76-7.21,2.16-11.08-1.26-14.67-4.12-2.52-2.01-4.75-7.08-5.86-11.19-2.09-7.8-2.09-16.63,2.36-23.32,1.4-2.11,3.29-4,5.66-4.89s7.09-.94,8.99.76c2.17,1.95,2.54,5.22,2.14,8.1-.26,1.88-2.7,4.18-4.29,5.2-1.32.84-3.01.82-4.56.59-1.71-.26-3.62-.95-4.21-2.58-.42-1.15,0-2.48.83-3.37s2.01-1.39,3.21-1.64c.9-.19,1.85-.26,2.68-.64s1.57-1.21,1.48-2.13c-.07-.76-.7-1.38-1.42-1.65s-1.51-.22-2.26-.1c-3.11.51-6,2.54-7.19,5.44-1.19,2.9-.43,6.6,2.04,8.56,1.77,1.4,4.14,1.82,6.4,1.8,1.54-.01,3.13-.22,4.44-1.02,1.66-1.01,4.44-3.14,5-5,1.07-3.53.8-7.47-.78-10.82-.83-1.76-2.06-3.41-3.75-4.38-3.52-2.02-9.08-.19-12.3,2.24C2.21,8.34-.68,18.1.13,26.5c.31,3.21,1.31,6.32,2.46,9.34,2.14,5.61,5.18,11.43,10.87,14.1,1.52.71,3.2.98,4.85,1.23,6.37.95,11.03-1.2,14.54-6.57,3.51-5.37,3.46-12.34-.37-17.53-1.3-1.76-3.01-3.27-5.06-4.06-2.33-.9-4.16-1.09-6.59-.56-3.16.7-6.18,2.18-8.44,4.48-2.26,2.3-2.78,4.75-2.74,7.98.05,4.46,3.14,8.74,7.37,10.21s8.28-.63,11.06-4.1c1.57-1.95,1.73-2.83,1.53-5.33s-1.5-4.92-3.56-6.36c-2.08-1.45-4.01-2.12-6.5-1.65-2.09.39-4.13,1.42-5.35,3.15-.46.66-.81,1.47-.67,2.28s.89,1.53,1.7,1.41c1.11-.16,1.44-1.55,2.09-2.46,1.29-1.83,4.1-1.75,6.16-.84,1.06.47,2.06,1.12,2.74,2.06.98,1.36,1.15,3.21.61,4.78s-.81,2.18-2.24,3.03c-2.07,1.23-4.69,1.56-6.99.78s-4.2-2.69-4.9-5c-.9-2.99-.64-5.65,1.61-7.79,2.25-2.15,5.39-3.18,8.51-3.35,2.52-.14,4.44.59,6.36,2.24,2.02,1.73,2.86,4.5,2.96,7.15.02.52.02,1.04-.02,1.57Z"/>
    <g>
      <path class="cls-1" d="m38.3,28.92c-.03-.09-.06-.19-.09-.28-.78-2.53-2.09-6.88-2.37-10.24-.13-1.57.55-3.02,1.57-3.97.27-.25.69-.11.82.29.55,1.65,1.22,3.28,1.94,4.97.34.79.55,1.63.68,2.5.09.58.13,1.16.17,1.76,0,.09,0,.18.01.27.02,1.37.03,2.14-.02,3.33-.03.59.14,1.19.47,1.67.05.07.07.11.12.18.09.13.26.3.27.32.92,1.01,1.87,1.9,3.07,1.93.55.01,1.03.44,1.12,1,.21,1.33.3,1.99.47,3.38.09.78-.46,1.52-1.18,1.5-1.96-.05-4.37-1.3-6.09-5.76-.21-.53-.55-1.53-.96-2.85Z"/>
      <path class="cls-1" d="m67.6,36.16h0c-.71.24-1.46-.22-1.67-.97,0-.03-.02-.05-.02-.08-.42-1.44-.94-2.77-1.58-4.1-.67-1.39-1.61-2.73-2.74-3.98-1.68-1.85-3.91-3.8-6.08-5.35-1.13-.8-2.44-1.56-3.6-1.51-1.77.08-2.11,1.04-2.29,2.89,0,.02-.03,1.12-.02,1.15.01.03.51.18.54.19.51.18.66.12,1.12.54.11.1.2.23.29.36.17.26.33.52.52.77.13.17.25.35.28.54.04.26-.1.47-.19.67-.07.16-.09.27-.18.49-.06.15-.15.31-.23.45-.05.08-.1.17-.11.26-.02.2.11.37.22.52.11.16.2.34.3.51.19.33.38.67.54,1.01.46.97.77,2,.69,3.08-.09,1.18-.06,2.43.42,3.6.21.51-.19.98-.6.85-1.33-.39-2.55-1.4-3.16-2.72-2.08-4.44-3.43-10.61-3.85-12.53-2.17-9.95,4.46-8.87,4.46-8.87,0,0,2.57.77,7.12,4.54,4.31,3.88,8.02,9.12,9.75,13.62.33.85.62,1.7.85,2.6.17.62-.18,1.28-.78,1.48Z"/>
      <path class="cls-1" d="m90.96,23.71c-5.82-3.93-5.81-9.95,1.07-8.5,4.04.85,8.23,3.91,10.95,7.28,2.15,2.66,2.82,6.56,2.45,8.9-.08.54-.21,1.33-.47,1.86-.73,1.49-2.37,3.19-4.22,3.97-1.15.48-2.44.48-3.68.22-4.3-.89-6.34-4.81-6.49-8.82s2.66-7.59,6.97-4.75c1.56,1.03,2.84,2.63,3.2,4.34.34,1.63.17,3.05-.79,4.09-.19.21-.56.23-.82.06-.25-.17-.31-.46-.15-.67,1.6-2.11-.68-6.25-3.77-6.27-.97,0-1.47.78-1.86,1.75-.73,1.79-.23,3.55.24,5.03.7,2.2,3.25,3.4,5.6,3.06.56-.08,1.01-.28,1.45-.56.93-.59,1.75-1.33,2.05-2.19.79-2.3.17-6.19-1.88-8.85-2.15-2.8-9.62-6.72-11.24-5.02-.08.08,0,.3.11.56.42.98,1.66,2.14,2.54,3.04,1.02,1.05-.05,2.25-1.24,1.48h0Z"/>
      <path class="cls-1" d="m137.62,32.54c-1.16-3-3.83-8.43-7.41-12.01-3.81-3.44-6.35-4.02-6.35-4.02,0,0-5.26-.03-4.63,5.98.03.31-.28.42-.51.18-.51-.53-1.04-1.05-1.57-1.55-3.98-3.39-6.63-4.04-6.63-4.04,0,0-5.71-.65-3.95,7.54.34,1.58,1,6.56,2.8,10.22.53,1.08,1.59,2.06,2.73,2.46.3.11.6-.2.57-.58-.12-1.58-.25-2.74-.39-3.87-.06-.53-.26-1.04-.51-1.55-.13-.26-.28-.53-.43-.79-.08-.14-.15-.28-.24-.41-.09-.13-.19-.27-.16-.43.02-.08.07-.14.11-.21.08-.11.16-.24.23-.37.1-.18.12-.28.19-.42.09-.18.23-.35.22-.6,0-.18-.1-.34-.19-.49-.14-.22-.24-.44-.37-.67-.06-.11-.13-.23-.22-.31-.37-.36-.51-.33-.94-.49-.02,0-.45-.16-.46-.18-.01-.02.05-.36.06-.39.28-1.55.53-2.9,2.14-2.93,1.06-.02,2.24.65,3.2,1.37,1.85,1.38,3.49,3.15,4.84,4.85.07.09.14.18.21.27.3.39.52.82.62,1.24.38,1.56.9,2.78,1.64,4.16.25.47.65.93,1.11,1.31.03.14.06.27.09.42.13-.04.2-.06.33-.1.37.25.78.46,1.21.59.29.09.57-.21.55-.54-.01-.19-.03-.38-.04-.56.01,0,.02,0,.04-.01-.02-.09-.04-.19-.06-.28-.08-1.01-.16-1.81-.25-2.61-.05-.48-.23-.95-.47-1.43-.12-.25-.26-.5-.41-.76-.07-.13-.14-.28-.23-.4-.08-.13-.19-.27-.15-.44.02-.08.07-.15.12-.22.08-.12.17-.25.24-.39.1-.19.13-.29.2-.44.09-.19.23-.38.22-.64,0-.19-.1-.35-.19-.5-.14-.21-.25-.43-.38-.66-.06-.11-.13-.23-.22-.31-.38-.36-.51-.32-.95-.47-.02,0-.45-.15-.46-.17-.01-.02.05-.37.06-.4.28-1.6.59-3.04,2.19-3.13,1.05-.06,2.2.6,3.14,1.31,1.82,1.38,3.52,3.02,4.87,4.83.91,1.22,1.66,2.31,2.14,3.27.47.92.83,1.73,1.13,2.78.03.09.05.19.08.29.11.44.6.74,1.08.6h0c.66-.19,1.06-.83.92-1.37-.15-.55-.31-1.04-.51-1.54Z"/>
      <path class="cls-1" d="m153.63,34.36c-.14.15-.29.3-.45.46-.8.78-1.98,1.69-3.56,1.92-1.73.26-3.57-.38-4.75-1.2-.43-.3-.71-.64-1.05-.93-.45-.38-.89-.73-1.29-1.08-1.48-1.29-2.6-2.44-3.18-4.95-.36-1.55-.4-3.26-.36-4.76.04-1.15.18-2.28.54-3.37.2-.58.42-1.28.92-1.74,1.24-1.14,3.2-.09,4.4.75,1.3.91,2.39,1.96,3.45,3,.74,1.14-.56.58-.56.58,0,0-3.61-1.56-4.41-.35-1.01,2.67,0,5.88,1.33,7.7,3.68,4.53,7.63,2.85,7.02-.53-.65-5.57-4.9-9.57-7.24-11.09-.46-.3-.41-1.05.09-1.17.55-.14.82-.2,1.37-.34.96-.23,1.96.14,2.72.92,6.85,7.06,6.99,14.05,5.01,16.17Z"/>
      <path class="cls-1" d="m88.54,35.65h0c-.72.22-1.47-.22-1.7-.92,0-.03-.02-.05-.02-.08-.44-1.35-.99-2.57-1.63-3.81-.67-1.3-1.58-2.57-2.65-3.8-1.58-1.82-3.72-3.47-6.03-4.88-1.2-.73-2.65-1.43-3.85-1.4-1.83.04-2.06.92-2.13,2.6,0,.02.02,1.02.04,1.05.02.02.52.17.55.18.52.16.67.12,1.14.49.11.09.21.21.29.33.17.24.33.48.51.7.13.15.24.33.25.52.02.26-.13.46-.23.66-.08.16-.1.27-.21.48-.07.15-.16.3-.25.43-.05.08-.1.16-.12.25-.03.19.1.35.2.5.1.15.19.32.29.48.18.31.36.64.52.96.45.91.76,1.87.69,2.88-.07,1.1-.03,2.29.46,3.42.21.49-.19.96-.6.84-1.33-.37-2.55-1.35-3.18-2.6-2.13-4.21-3.28-10.11-3.85-11.88-2.96-9.18,3.74-8.18,3.74-8.18,0,0,2.97.93,8.03,4.4,4.8,3.58,7.83,8.39,9.6,12.54.33.79.63,1.57.89,2.41.17.58-.16,1.21-.76,1.39Z"/>
      <path class="cls-1" d="m175.25,35.73h0c-.74.17-1.43-.22-1.52-.74,0-.02,0-.04,0-.06-.17-1-.35-1.7-.69-2.52-.35-.85-1.05-1.83-2.04-2.99-1.46-1.72-3.32-3.34-5.23-4.62-1-.67-2.21-1.3-3.36-1.29-1.75.02-2.18.79-2.58,2.32,0,.02-.17.93-.16.96.01.02.47.16.5.17.47.16.62.12,1.02.47.09.09.16.2.23.31.13.23.24.45.39.67.1.15.2.32.2.5,0,.25-.15.44-.26.62-.09.14-.12.24-.24.42-.08.13-.19.25-.28.36-.06.07-.12.13-.14.2-.05.16.05.28.13.4s.14.25.21.37c.13.23.25.46.35.68.27.62.37,1.2.11,1.84-.28.7-.41,1.53-.03,2.52.17.43-.22.87-.61.74-1.23-.39-2.33-1.31-2.77-2.21-1.46-3.05-1.74-7.72-1.94-9.32-1.01-8.34,5.19-7.44,5.19-7.44,0,0,2.72,1.01,6.76,4.14,3.78,3.22,6.83,8.2,7.49,10.84.12.5.21,1,.28,1.6.05.42-.38.91-1,1.06Z"/>
    </g>
  </g>
</svg>