<?xml version="1.0" encoding="UTF-8"?>
<svg id="Camada_2" data-name="Camada 2" xmlns="http://www.w3.org/2000/svg" xmlns:xlink="http://www.w3.org/1999/xlink" viewBox="0 0 212.03 78.36">
  <defs>
    <style>
      .cls-1 {
        opacity: .7;
      }

      .cls-2 {
        fill: #763a10;
      }

      .cls-3 {
        fill: #df9256;
      }

      .cls-4 {
        fill: #442511;
      }

      .cls-5 {
        fill: url(#Gradiente_sem_nome_224);
        stroke: #533017;
        stroke-miterlimit: 10;
      }

      .cls-6 {
        fill: #572f17;
      }
    </style>
    <radialGradient id="Gradiente_sem_nome_224" data-name="Gradiente sem nome 224" cx="36.37" cy="45.56" fx="81.43" fy="45.56" r="45.06" gradientUnits="userSpaceOnUse">
      <stop offset="0" stop-color="#4d2a15"/>
      <stop offset=".34" stop-color="#4a2814"/>
      <stop offset=".58" stop-color="#402514"/>
      <stop offset=".79" stop-color="#311e14"/>
      <stop offset=".92" stop-color="#231914"/>
    </radialGradient>
  </defs>
  <g id="Camada_1-2" data-name="Camada 1">
    <circle class="cls-5" cx="36.37" cy="45.56" r="32.3"/>
    <g>
      <g>
        <path class="cls-6" d="m30.48,76.49c-1.69,0-3.39-.13-5.05-.38-1.47-.22-2.91-.71-4.27-1.44-5.35-2.88-15-10.39-19.42-28.32C-.46,37.56-2.51,20.97,8.48,8.58,10.79,5.51,18.04,0,25.74,0c4.39,0,8.3,1.81,11.32,5.24,3.33,3.84,6.83,12.47,4.27,21.44,1.4.15,2.83.46,4.11.91,1.9.66,4.63,2.3,6.5,3.9,4.93,4.2,6.47,10.55,6.96,13.97.8,5.63.02,11.09-2.25,15.78-.93,1.92-2.11,3.68-3.5,5.25-.91,1.02-1.92,1.98-3.01,2.86-.6.48-1.23.86-1.78,1.2-.48.29-.94.57-1.23.83-3.53,3.11-10.06,5.11-16.65,5.11Z"/>
        <path class="cls-2" d="m37.09,29.88c2.2-.62,5.25-.2,7.37.54,1.5.52,3.93,1.97,5.55,3.35,3.5,2.98,5.31,7.7,5.93,12.11.67,4.74.12,9.72-1.98,14.05-.8,1.65-1.82,3.19-3.04,4.57-.81.91-1.7,1.75-2.65,2.51s-2.2,1.31-3.12,2.12c-3.3,2.9-10.96,5.28-19.26,4.02-1.12-.17-2.24-.55-3.3-1.12-4.81-2.59-13.75-9.45-17.93-26.4C2.69,37.78.46,22.04,10.81,10.47c2.65-3.66,15.59-12.81,24-3.24,2.9,3.34,6.99,13.09,2.13,22.41-.07.14.04.28.15.25Z"/>
      </g>
      <path class="cls-3" d="m9.62,52.54l.45.77c.61,1.05,1.04,2.18,1.51,3.29.41.98.9,1.92,1.46,2.83,1.11,1.81,2.47,3.47,4.04,4.91s3.33,2.65,5.23,3.59c1.8.89,3.73,1.53,5.72,1.87,7.64,1.29,15.93-2.08,20.3-8.47s4.46-15.5,0-21.83c-1.51-2.15-3.53-4-5.96-5-2.77-1.14-5.91-1.09-8.85-.5-3.82.77-7.49,2.49-10.27,5.21-2.78,2.72-4.62,6.49-4.66,10.38-.06,5.37,3.52,10.59,8.56,12.46,5.04,1.87,11.16.25,14.61-3.87,1.94-2.31,3.05-5.34,2.88-8.36s-1.66-5.96-4.1-7.74c-2.46-1.8-5.7-2.32-8.7-1.82-2.53.43-5.01,1.62-6.52,3.68-.58.79-1.01,1.76-.87,2.73s1.03,1.87,2,1.74c1.34-.17,1.78-1.84,2.58-2.92,1.61-2.18,4.98-2.03,7.43-.88,1.26.59,2.45,1.4,3.23,2.54,1.14,1.66,1.29,3.89.6,5.78s-2.17,3.43-3.92,4.43c-2.53,1.44-5.69,1.78-8.42.78-2.74-.99-4.97-3.33-5.74-6.13-.99-3.62.54-7.64,3.3-10.18s6.58-3.72,10.33-3.85c3.03-.11,6.26.49,8.52,2.52,2.38,2.13,3.3,5.48,3.36,8.67.07,3.99-1.14,8.11-3.85,11.04-2.11,2.28-5.02,3.73-8.06,4.39-6.22,1.34-13.07-.72-17.52-5.28-3.57-3.67-5.51-8.64-6.72-13.61-2.29-9.44-2.03-20.08,3.52-28.05,1.75-2.51,4.07-4.74,6.95-5.77s6.38-.66,8.61,1.43c2.55,2.4,2.9,6.35,2.34,9.8-.37,2.25-1.19,4.65-3.14,5.85-1.61.98-3.64.92-5.51.61-2.05-.35-4.33-1.23-4.99-3.19-.47-1.39.07-2.99,1.1-4.05s2.46-1.63,3.9-1.9c1.09-.21,2.23-.27,3.25-.72s1.92-1.42,1.84-2.53c-.07-.92-.8-1.68-1.66-2.01s-1.81-.3-2.72-.17c-3.75.55-7.29,2.93-8.8,6.4s-.71,7.94,2.21,10.36c2.09,1.73,4.93,2.28,7.64,2.31,1.85.02,3.77-.19,5.37-1.13,2.02-1.18,3.26-3.36,3.99-5.59,1.38-4.23,1.18-8.98-.62-13.05-.95-2.14-2.38-4.15-4.39-5.36-4.17-2.51-9.7-.96-13.64,1.9-5.75,4.17-9.42,10.86-10.61,17.86-.45,2.62-.56,5.29-.4,7.94s.61,5.3,1.29,7.87c.26.98.55,1.95.87,2.91s.69,1.87.95,2.83c.15.53.28,1.07.41,1.6"/>
      <g class="cls-1">
        <path class="cls-4" d="m17.08,46.29c-.06-1.52.22-4.96,3.39-8.34.35-.38.47-.88.2-1.1-1.27-1.02-3.8-1.64-6.13-4.76-.18-.25-.64.13-.81.51-1.52,3.36-.28,10.48,2.87,14.07.14.16.51-.12.5-.38Z"/>
      </g>
    </g>
    <g>
      <path class="cls-6" d="m72.98,48.78c-.03-.09-.06-.19-.09-.28-.78-2.53-2.09-6.88-2.37-10.24-.13-1.57.54-3.02,1.57-3.97.27-.25.69-.11.82.29.55,1.65,1.22,3.28,1.94,4.97.34.79.55,1.63.68,2.5.09.58.13,1.16.17,1.76,0,.09,0,.18.01.27.02,1.37.03,2.14-.02,3.33-.03.59.14,1.19.47,1.67.05.07.07.11.12.18.09.13.26.3.27.32.92,1.01,1.87,1.9,3.07,1.93.55.01,1.03.44,1.12,1,.21,1.33.3,1.99.47,3.38.09.78-.46,1.52-1.18,1.5-1.96-.05-4.37-1.3-6.09-5.76-.21-.53-.55-1.53-.96-2.85Z"/>
      <path class="cls-6" d="m102.27,56.02h0c-.71.24-1.46-.22-1.67-.97,0-.03-.02-.05-.02-.08-.42-1.44-.94-2.77-1.58-4.1-.67-1.39-1.61-2.73-2.74-3.98-1.68-1.85-3.91-3.8-6.08-5.35-1.13-.8-2.44-1.56-3.6-1.51-1.77.08-2.11,1.04-2.29,2.89,0,.02-.03,1.12-.02,1.15.01.03.51.18.54.19.51.18.66.12,1.12.54.11.1.2.23.29.36.17.26.33.52.52.77.13.17.25.35.28.54.04.26-.1.47-.19.67-.07.16-.09.27-.18.49-.06.15-.15.31-.23.45-.05.08-.1.17-.11.26-.02.2.11.37.22.52.11.16.2.34.3.51.19.33.38.67.54,1.01.46.97.77,2,.69,3.08-.09,1.18-.06,2.43.42,3.6.21.51-.19.98-.6.85-1.33-.39-2.55-1.4-3.16-2.72-2.08-4.44-3.43-10.61-3.85-12.53-2.17-9.95,4.46-8.87,4.46-8.87,0,0,2.57.77,7.12,4.54,4.31,3.88,8.02,9.12,9.75,13.62.33.85.62,1.7.85,2.6.17.62-.18,1.28-.78,1.48Z"/>
      <path class="cls-6" d="m125.63,43.57c-5.82-3.93-5.81-9.95,1.07-8.5,4.04.85,8.23,3.91,10.95,7.28,2.15,2.66,2.82,6.56,2.45,8.9-.08.54-.21,1.33-.47,1.86-.73,1.49-2.37,3.19-4.22,3.97-1.15.48-2.44.48-3.68.22-4.3-.89-6.34-4.81-6.49-8.82-.15-4.01,2.66-7.59,6.97-4.75,1.56,1.03,2.84,2.63,3.2,4.34.34,1.63.17,3.05-.79,4.09-.19.21-.56.23-.82.06-.25-.17-.31-.46-.15-.67,1.6-2.12-.68-6.25-3.77-6.27-.97,0-1.47.78-1.86,1.75-.73,1.79-.23,3.55.24,5.03.7,2.2,3.25,3.4,5.6,3.06.56-.08,1.01-.28,1.45-.56.93-.59,1.75-1.33,2.05-2.19.79-2.3.17-6.19-1.88-8.85-2.15-2.8-9.62-6.72-11.24-5.02-.08.08,0,.3.11.56.42.98,1.66,2.14,2.54,3.04,1.02,1.05-.05,2.25-1.24,1.48h0Z"/>
      <path class="cls-6" d="m172.29,52.4c-1.16-3-3.83-8.43-7.41-12.01-3.81-3.44-6.35-4.02-6.35-4.02,0,0-5.26-.03-4.63,5.98.03.31-.28.42-.51.18-.51-.53-1.04-1.05-1.57-1.55-3.98-3.39-6.63-4.04-6.63-4.04,0,0-5.71-.65-3.95,7.54.34,1.58,1,6.56,2.8,10.22.53,1.08,1.59,2.06,2.73,2.46.3.11.6-.2.57-.58-.12-1.58-.25-2.74-.39-3.87-.06-.53-.26-1.04-.51-1.55-.13-.26-.28-.53-.43-.79-.08-.14-.15-.28-.24-.41-.09-.13-.19-.27-.16-.43.02-.08.07-.14.11-.21.08-.11.16-.24.23-.37.1-.18.12-.28.19-.42.09-.18.23-.35.22-.6,0-.18-.1-.34-.19-.49-.14-.22-.24-.44-.37-.67-.06-.11-.13-.23-.22-.31-.37-.36-.51-.33-.94-.49-.02,0-.45-.16-.46-.18-.01-.02.05-.36.06-.39.28-1.55.53-2.9,2.14-2.93,1.06-.02,2.24.65,3.2,1.37,1.85,1.38,3.49,3.15,4.84,4.85.07.09.14.18.21.27.3.39.52.82.62,1.24.38,1.56.9,2.78,1.64,4.16.25.47.65.93,1.11,1.31.03.14.06.27.09.42.13-.04.2-.06.33-.1.37.25.78.46,1.21.59.29.09.57-.21.55-.54-.01-.19-.03-.38-.04-.56.01,0,.02,0,.04-.01-.02-.09-.04-.19-.06-.28-.08-1.01-.16-1.81-.25-2.61-.05-.48-.23-.95-.47-1.43-.12-.25-.26-.5-.41-.76-.07-.13-.14-.28-.23-.4-.08-.13-.19-.27-.15-.44.02-.08.07-.15.12-.22.08-.12.17-.25.24-.39.1-.19.13-.29.2-.44.09-.19.23-.38.22-.64,0-.19-.1-.35-.19-.5-.14-.21-.25-.43-.38-.66-.06-.11-.13-.23-.22-.31-.38-.36-.51-.32-.95-.47-.02,0-.45-.15-.46-.17s.05-.37.06-.4c.28-1.6.59-3.04,2.19-3.13,1.05-.06,2.2.6,3.14,1.31,1.82,1.38,3.51,3.02,4.87,4.83.91,1.22,1.66,2.31,2.14,3.27.47.92.83,1.73,1.13,2.78.03.09.05.19.08.29.11.44.6.74,1.08.6h0c.66-.19,1.06-.83.92-1.37-.15-.55-.31-1.04-.51-1.54Z"/>
      <path class="cls-6" d="m188.3,54.22c-.14.15-.29.3-.45.46-.8.78-1.98,1.69-3.56,1.92-1.73.26-3.57-.38-4.75-1.2-.43-.3-.71-.64-1.05-.93-.45-.38-.89-.73-1.29-1.08-1.48-1.29-2.6-2.44-3.18-4.95-.36-1.55-.4-3.26-.36-4.76.04-1.15.18-2.28.54-3.37.2-.58.42-1.28.92-1.74,1.24-1.14,3.2-.09,4.4.75,1.3.91,2.39,1.96,3.45,3,.74,1.14-.56.58-.56.58,0,0-3.61-1.56-4.41-.35-1.01,2.67,0,5.88,1.33,7.7,3.68,4.53,7.63,2.85,7.02-.53-.65-5.57-4.9-9.57-7.24-11.09-.46-.3-.41-1.05.09-1.17.55-.14.82-.2,1.37-.34.96-.23,1.96.14,2.72.92,6.85,7.06,6.99,14.06,5.01,16.17Z"/>
      <path class="cls-6" d="m123.21,55.51h0c-.72.22-1.47-.22-1.7-.92,0-.03-.02-.05-.02-.08-.44-1.35-.99-2.57-1.63-3.81-.67-1.3-1.58-2.57-2.65-3.8-1.58-1.82-3.72-3.47-6.03-4.88-1.2-.73-2.65-1.43-3.85-1.4-1.83.04-2.06.92-2.13,2.6,0,.02.02,1.02.04,1.05.02.02.52.17.55.18.52.16.67.12,1.14.49.11.09.21.21.29.33.17.24.33.48.51.7.13.15.24.33.25.52.02.26-.13.46-.23.66-.08.16-.1.27-.21.48-.07.15-.16.3-.25.44-.05.08-.1.16-.12.25-.03.19.1.35.2.5.1.15.19.32.29.48.18.31.36.64.52.96.45.91.76,1.87.69,2.88-.07,1.1-.03,2.29.46,3.42.21.49-.19.96-.6.84-1.33-.37-2.55-1.35-3.18-2.6-2.13-4.21-3.28-10.11-3.85-11.88-2.96-9.18,3.74-8.18,3.74-8.18,0,0,2.97.93,8.03,4.4,4.8,3.58,7.83,8.39,9.6,12.54.33.79.63,1.57.89,2.41.17.58-.16,1.21-.76,1.39Z"/>
      <path class="cls-6" d="m209.92,55.59h0c-.74.17-1.43-.22-1.52-.74,0-.02,0-.04,0-.06-.17-1-.35-1.7-.69-2.52-.35-.85-1.05-1.83-2.04-2.99-1.46-1.72-3.32-3.34-5.23-4.62-1-.67-2.21-1.3-3.36-1.29-1.75.02-2.18.79-2.58,2.32,0,.02-.17.93-.16.96.01.02.47.16.5.17.47.16.62.12,1.02.47.09.09.16.2.23.31.13.23.24.45.39.67.1.15.2.32.2.5,0,.25-.15.44-.26.62-.09.14-.12.24-.24.42-.08.13-.19.25-.28.36-.06.07-.12.13-.14.2-.05.16.05.28.13.4.08.12.14.25.21.37.13.23.25.46.35.68.27.62.37,1.2.11,1.84-.28.7-.41,1.53-.03,2.52.17.43-.22.87-.61.74-1.23-.39-2.33-1.31-2.77-2.21-1.46-3.05-1.74-7.72-1.94-9.32-1.01-8.34,5.19-7.44,5.19-7.44,0,0,2.72,1.01,6.76,4.14,3.78,3.22,6.83,8.2,7.49,10.84.12.5.21,1,.28,1.6.05.42-.38.91-1,1.06Z"/>
    </g>
  </g>
</svg>