<svg width="182" height="39" viewBox="0 0 182 39" fill="none" xmlns="http://www.w3.org/2000/svg">
<path d="M28.154 31.3375C28.5656 31.4678 28.632 32.0249 28.2614 32.2472C27.5457 32.6739 26.6664 32.7915 25.8382 32.5283L14.0214 28.772C12.5874 28.3146 11.6084 26.9884 11.5982 25.4833L11.5215 13.0901C11.5139 11.7996 12.3369 10.6549 13.5587 10.2486L25.6721 6.22908C26.5897 5.925 27.5738 6.09109 28.3329 6.63026C28.6703 6.87046 28.5937 7.38919 28.2026 7.51951L19.8033 10.3073C18.5789 10.7111 17.7584 11.8584 17.7661 13.1488L17.8453 25.9075C17.853 27.1954 18.6914 28.3299 19.9208 28.7209L28.1591 31.3401L28.154 31.3375Z" fill="#1D1D1B"/>
<path d="M30.6366 7.40944C30.225 7.27912 30.1586 6.72206 30.5292 6.49975C31.2449 6.07301 32.1242 5.95547 32.9524 6.21867L44.7692 9.97496C46.2031 10.4324 47.1821 11.7586 47.1923 13.2636L47.269 25.6569C47.2767 26.9473 46.4536 28.0921 45.2318 28.4984L33.1185 32.5179C32.2009 32.8219 31.2168 32.6559 30.4576 32.1167C30.1202 31.8765 30.1969 31.3578 30.588 31.2274L38.9873 28.4396C40.2117 28.0359 41.0322 26.8885 41.0245 25.5981L40.9453 12.8395C40.9376 11.5516 40.0992 10.417 38.8697 10.0261L30.6314 7.40688L30.6366 7.40944Z" fill="#1B1F27"/>
<path d="M21.2715 23.8278V22.9666C21.2715 22.9666 21.2715 22.9564 21.2766 22.9538C21.4376 22.8031 25.1874 19.287 27.0201 18.1933C28.1218 17.6976 29.2669 17.7717 30.2613 18.8424C30.7878 19.5502 30.8798 19.3866 31.3783 21.9649C31.4984 22.66 32.0735 23.9095 32.9937 24.0628C33.7631 24.1829 34.5785 23.9862 36.0406 22.9155C36.7588 22.4019 37.04 22.1515 37.109 22.0876C37.1192 22.0799 37.132 22.0825 37.1371 22.0927L37.4822 22.798C37.4822 22.798 37.4848 22.8133 37.4822 22.8184C37.3442 22.9641 35.4782 24.9368 33.3874 26.1122C32.7995 26.4904 31.6364 26.9861 29.6912 27.0474C28.5308 26.9861 27.263 26.2016 26.4169 24.6633C25.9542 23.8559 25.5785 22.706 25.5708 22.6881C25.5632 22.6702 25.1491 21.804 23.7765 22.3252C23.1604 22.5757 21.5373 23.6821 21.2996 23.8431C21.2868 23.8507 21.2715 23.8431 21.2715 23.8278Z" fill="#DB182F"/>
<path d="M28.8012 14.9965C28.7424 14.9786 28.7066 14.9173 28.7194 14.856C28.8779 14.1635 29.8543 10.3765 32.0858 10.5247C32.9523 10.5988 34.0744 11.3143 34.036 13.0622C34.0284 13.4352 33.9006 13.8006 33.6552 14.0843C33.0775 14.7512 32.0474 15.1984 30.5777 15.2316C30.0153 15.2316 29.3431 15.1575 28.8012 14.9965Z" fill="#DB182F"/>
<path d="M103.85 27.3C99.05 27.3 95.275 23.8 95.275 18.675C95.275 13.55 99.05 10.05 103.85 10.05C106.8 10.05 108.85 11.475 110.175 13.35L108.425 14.325C107.475 12.925 105.75 11.9 103.85 11.9C100.2 11.9 97.425 14.7 97.425 18.675C97.425 22.625 100.2 25.45 103.85 25.45C105.75 25.45 107.475 24.45 108.425 23.025L110.2 24C108.8 25.9 106.8 27.3 103.85 27.3ZM118.045 27.3C114.37 27.3 112.07 24.45 112.07 20.95C112.07 17.45 114.37 14.625 118.045 14.625C121.72 14.625 124.02 17.45 124.02 20.95C124.02 24.45 121.72 27.3 118.045 27.3ZM118.045 25.625C120.62 25.625 122.045 23.425 122.045 20.95C122.045 18.5 120.62 16.3 118.045 16.3C115.47 16.3 114.02 18.5 114.02 20.95C114.02 23.425 115.47 25.625 118.045 25.625ZM137.701 27H135.826V25.2C134.926 26.425 133.451 27.3 131.751 27.3C128.601 27.3 126.376 24.9 126.376 20.975C126.376 17.125 128.576 14.625 131.751 14.625C133.376 14.625 134.851 15.425 135.826 16.75V10.325H137.701V27ZM132.201 25.625C133.701 25.625 135.151 24.775 135.826 23.725V18.25C135.151 17.2 133.701 16.3 132.201 16.3C129.776 16.3 128.326 18.3 128.326 20.975C128.326 23.65 129.776 25.625 132.201 25.625ZM146.906 27.3C143.331 27.3 140.756 24.725 140.756 20.95C140.756 17.45 143.256 14.625 146.706 14.625C150.356 14.625 152.506 17.475 152.506 21.1V21.575H142.731C142.881 23.85 144.481 25.75 147.081 25.75C148.456 25.75 149.856 25.2 150.806 24.225L151.706 25.45C150.506 26.65 148.881 27.3 146.906 27.3ZM150.656 20.2C150.631 18.4 149.431 16.175 146.681 16.175C144.106 16.175 142.831 18.35 142.731 20.2H150.656ZM157.418 27H155.543V14.925H157.418V16.875C158.393 15.6 159.793 14.675 161.443 14.675V16.6C161.218 16.55 160.993 16.525 160.693 16.525C159.543 16.525 157.968 17.475 157.418 18.45V27ZM167.62 27.3C165.645 27.3 163.97 26.7 162.745 25.4L163.72 24.05C164.52 24.975 166.045 25.775 167.695 25.775C169.545 25.775 170.545 24.9 170.545 23.7C170.545 20.775 163.07 22.575 163.07 18.1C163.07 16.225 164.695 14.625 167.57 14.625C169.62 14.625 171.07 15.4 172.045 16.375L171.17 17.675C170.445 16.8 169.12 16.15 167.57 16.15C165.92 16.15 164.895 16.975 164.895 18.05C164.895 20.7 172.37 18.95 172.37 23.65C172.37 25.675 170.745 27.3 167.62 27.3Z" fill="#DB182F"/>
<path d="M64.725 27.3C59.725 27.3 55.85 23.8 55.85 18.675C55.85 13.55 59.725 10.05 64.725 10.05C68.4 10.05 70.525 12.05 71.7 14.125L68.65 15.625C67.95 14.275 66.45 13.2 64.725 13.2C61.7 13.2 59.5 15.525 59.5 18.675C59.5 21.825 61.7 24.15 64.725 24.15C66.45 24.15 67.95 23.1 68.65 21.725L71.7 23.2C70.5 25.275 68.4 27.3 64.725 27.3ZM77.3631 27H73.8131V10.325H77.3631V27ZM91.9234 27H88.7484V19.7C88.7484 18.025 87.8734 17.45 86.5234 17.45C85.2734 17.45 84.2984 18.15 83.7734 18.875V27H80.5984V14.925H83.7734V16.5C84.5484 15.575 86.0234 14.625 87.9984 14.625C90.6484 14.625 91.9234 16.125 91.9234 18.475V27Z" fill="#1D1D1B"/>
</svg>
