<svg width="550" height="91" viewBox="0 0 947 157" fill="none" xmlns="http://www.w3.org/2000/svg">
<path d="M98.1925 149.141C100.622 149.91 101.014 153.199 98.8262 154.512C94.601 157.032 89.4099 157.726 84.5207 156.172L14.7586 133.993C6.29294 131.292 0.513363 123.462 0.453002 114.575L0.000313664 41.4012C-0.044957 33.782 4.8141 27.0228 12.0272 24.6239L83.5398 0.891299C88.9572 -0.90411 94.7669 0.0765751 99.2487 3.26003C101.241 4.67825 100.788 7.74101 98.4791 8.51047L48.8927 24.9709C41.6644 27.3547 36.8205 34.129 36.8657 41.7482L37.3335 117.08C37.3788 124.684 42.3284 131.383 49.5868 133.691L98.2226 149.156L98.1925 149.141Z" fill="#1D1D1B"/>
<path d="M112.846 7.85919C110.417 7.08973 110.025 3.80066 112.213 2.48805C116.438 -0.0315586 121.629 -0.725586 126.518 0.828424L196.28 23.007C204.746 25.7077 210.526 33.5381 210.586 42.4246L211.039 115.599C211.084 123.218 206.225 129.977 199.012 132.376L127.499 156.109C122.082 157.904 116.272 156.923 111.79 153.74C109.798 152.322 110.251 149.259 112.56 148.49L162.146 132.029C169.374 129.645 174.218 122.871 174.173 115.252L173.705 39.9201C173.66 32.316 168.71 25.6171 161.452 23.3088L112.816 7.8441L112.846 7.85919Z" fill="#1B1F27"/>
<path d="M57.5618 104.8V99.7156C57.5618 99.7156 57.5618 99.6553 57.592 99.6402C58.5426 98.75 80.68 77.9897 91.4997 71.5322C98.0036 68.6052 104.764 69.0428 110.634 75.3644C113.743 79.5437 114.286 78.5781 117.229 93.8013C117.938 97.9051 121.333 105.283 126.766 106.188C131.308 106.897 136.122 105.736 144.753 99.4139C148.994 96.3813 150.653 94.9027 151.061 94.5255C151.121 94.4803 151.197 94.4954 151.227 94.5557L153.264 98.7199C153.264 98.7199 153.279 98.8104 153.264 98.8406C152.449 99.7005 141.433 111.348 129.089 118.288C125.619 120.521 118.753 123.448 107.269 123.81C100.418 123.448 92.9333 118.816 87.9384 109.734C85.2071 104.966 82.9888 98.1767 82.9435 98.0711C82.8983 97.9655 80.4537 92.8508 72.3502 95.9287C68.7135 97.4072 59.1312 103.94 57.7278 104.891C57.6523 104.936 57.5618 104.891 57.5618 104.8Z" fill="#DB182F"/>
<path d="M102.007 52.6571C101.66 52.5515 101.449 52.1894 101.524 51.8273C102.46 47.7385 108.224 25.3789 121.398 26.254C126.514 26.6915 133.138 30.916 132.912 41.2359C132.867 43.4386 132.112 45.5961 130.663 47.2708C127.253 51.2087 121.172 53.849 112.495 54.0451C109.175 54.0451 105.206 53.6076 102.007 52.6571Z" fill="#DB182F"/>
<path d="M543.641 129.328C515.384 129.328 493.162 108.722 493.162 78.5488C493.162 48.3754 515.384 27.7693 543.641 27.7693C561.007 27.7693 573.075 36.1589 580.874 47.198L570.573 52.9382C564.98 44.6958 554.826 38.6611 543.641 38.6611C522.154 38.6611 505.818 55.1461 505.818 78.5488C505.818 101.804 522.154 118.436 543.641 118.436C554.826 118.436 564.98 112.549 570.573 104.159L581.022 109.9C572.78 121.086 561.007 129.328 543.641 129.328Z" fill="#DB182F"/>
<path d="M627.2 129.328C605.567 129.328 592.027 112.549 592.027 91.9428C592.027 71.3366 605.567 54.7045 627.2 54.7045C648.834 54.7045 662.374 71.3366 662.374 91.9428C662.374 112.549 648.834 129.328 627.2 129.328ZM627.2 119.467C642.359 119.467 650.747 106.514 650.747 91.9428C650.747 77.5185 642.359 64.566 627.2 64.566C612.042 64.566 603.506 77.5185 603.506 91.9428C603.506 106.514 612.042 119.467 627.2 119.467Z" fill="#DB182F"/>
<path d="M742.914 127.562H731.876V116.965C726.578 124.177 717.895 129.328 707.888 129.328C689.345 129.328 676.247 115.198 676.247 92.09C676.247 69.4232 689.197 54.7045 707.888 54.7045C717.454 54.7045 726.137 59.4145 731.876 67.2154V29.3883H742.914V127.562ZM710.537 119.467C719.367 119.467 727.903 114.462 731.876 108.281V76.0466C727.903 69.8647 719.367 64.566 710.537 64.566C696.262 64.566 687.726 76.341 687.726 92.09C687.726 107.839 696.262 119.467 710.537 119.467Z" fill="#DB182F"/>
<path d="M797.101 129.328C776.056 129.328 760.897 114.168 760.897 91.9428C760.897 71.3366 775.614 54.7045 795.923 54.7045C817.41 54.7045 830.067 71.4838 830.067 92.8259V95.6225H772.524C773.407 109.016 782.825 120.203 798.131 120.203C806.225 120.203 814.467 116.965 820.059 111.224L825.357 118.436C818.293 125.501 808.727 129.328 797.101 129.328ZM819.176 87.5272C819.029 76.9297 811.965 63.8301 795.776 63.8301C780.618 63.8301 773.112 76.6354 772.524 87.5272H819.176Z" fill="#DB182F"/>
<path d="M858.982 127.562H847.944V56.4707H858.982V67.9513C864.721 60.4448 872.963 54.9989 882.676 54.9989V66.3323C881.351 66.0379 880.027 65.8907 878.261 65.8907C871.491 65.8907 862.219 71.4838 858.982 77.2241V127.562Z" fill="#DB182F"/>
<path d="M919.038 129.328C907.412 129.328 897.551 125.796 890.34 118.142L896.08 110.194C900.789 115.64 909.766 120.35 919.48 120.35C930.37 120.35 936.257 115.198 936.257 108.133C936.257 90.9125 892.253 101.51 892.253 75.1635C892.253 64.1245 901.819 54.7045 918.744 54.7045C930.812 54.7045 939.347 59.2673 945.087 65.0076L939.936 72.6613C935.668 67.5098 927.868 63.6829 918.744 63.6829C909.031 63.6829 902.997 68.5401 902.997 74.8691C902.997 90.4709 947 80.1678 947 107.839C947 119.761 937.434 129.328 919.038 129.328Z" fill="#DB182F"/>
<path d="M307.435 129.328C278.001 129.328 255.19 108.722 255.19 78.5488C255.19 48.3754 278.001 27.7693 307.435 27.7693C329.069 27.7693 341.578 39.5442 348.495 51.7607L330.541 60.592C326.42 52.6439 317.59 46.3148 307.435 46.3148C289.628 46.3148 276.677 60.0032 276.677 78.5488C276.677 97.0943 289.628 110.783 307.435 110.783C317.59 110.783 326.42 104.601 330.541 96.5056L348.495 105.19C341.431 117.406 329.069 129.328 307.435 129.328Z" fill="#1D1D1B"/>
<path d="M381.832 127.562H360.934V29.3883H381.832V127.562Z" fill="#1D1D1B"/>
<path d="M467.545 127.562H448.855V84.5834C448.855 74.7219 443.704 71.3366 435.757 71.3366C428.399 71.3366 422.659 75.4579 419.568 79.7263V127.562H400.878V56.4707H419.568V65.7435C424.131 60.2976 432.814 54.7045 444.44 54.7045C460.04 54.7045 467.545 63.5357 467.545 77.3713V127.562Z" fill="#1D1D1B"/>
</svg>
