<svg width="30" height="30" viewBox="0 0 1347 1317" fill="none" xmlns="http://www.w3.org/2000/svg">
<path d="M566.32 1237.36C512.56 1237.36 470.28 1198.16 470.28 1140.76C470.28 1083.36 512.56 1044.16 566.32 1044.16C599.36 1044.16 622.32 1060.12 637.16 1081.12L617.56 1092.04C606.92 1076.36 587.6 1064.88 566.32 1064.88C525.44 1064.88 494.36 1096.24 494.36 1140.76C494.36 1185 525.44 1216.64 566.32 1216.64C587.6 1216.64 606.92 1205.44 617.56 1189.48L637.44 1200.4C621.76 1221.68 599.36 1237.36 566.32 1237.36ZM725.299 1237.36C684.139 1237.36 658.379 1205.44 658.379 1166.24C658.379 1127.04 684.139 1095.4 725.299 1095.4C766.459 1095.4 792.219 1127.04 792.219 1166.24C792.219 1205.44 766.459 1237.36 725.299 1237.36ZM725.299 1218.6C754.139 1218.6 770.099 1193.96 770.099 1166.24C770.099 1138.8 754.139 1114.16 725.299 1114.16C696.459 1114.16 680.219 1138.8 680.219 1166.24C680.219 1193.96 696.459 1218.6 725.299 1218.6ZM945.453 1234H924.453V1213.84C914.373 1227.56 897.853 1237.36 878.813 1237.36C843.533 1237.36 818.613 1210.48 818.613 1166.52C818.613 1123.4 843.253 1095.4 878.813 1095.4C897.013 1095.4 913.533 1104.36 924.453 1119.2V1047.24H945.453V1234ZM883.853 1218.6C900.653 1218.6 916.893 1209.08 924.453 1197.32V1136C916.893 1124.24 900.653 1114.16 883.853 1114.16C856.693 1114.16 840.453 1136.56 840.453 1166.52C840.453 1196.48 856.693 1218.6 883.853 1218.6ZM1048.55 1237.36C1008.51 1237.36 979.668 1208.52 979.668 1166.24C979.668 1127.04 1007.67 1095.4 1046.31 1095.4C1087.19 1095.4 1111.27 1127.32 1111.27 1167.92V1173.24H1001.79C1003.47 1198.72 1021.39 1220 1050.51 1220C1065.91 1220 1081.59 1213.84 1092.23 1202.92L1102.31 1216.64C1088.87 1230.08 1070.67 1237.36 1048.55 1237.36ZM1090.55 1157.84C1090.27 1137.68 1076.83 1112.76 1046.03 1112.76C1017.19 1112.76 1002.91 1137.12 1001.79 1157.84H1090.55ZM1166.28 1234H1145.28V1098.76H1166.28V1120.6C1177.2 1106.32 1192.88 1095.96 1211.36 1095.96V1117.52C1208.84 1116.96 1206.32 1116.68 1202.96 1116.68C1190.08 1116.68 1172.44 1127.32 1166.28 1138.24V1234ZM1280.54 1237.36C1258.42 1237.36 1239.66 1230.64 1225.94 1216.08L1236.86 1200.96C1245.82 1211.32 1262.9 1220.28 1281.38 1220.28C1302.1 1220.28 1313.3 1210.48 1313.3 1197.04C1313.3 1164.28 1229.58 1184.44 1229.58 1134.32C1229.58 1113.32 1247.78 1095.4 1279.98 1095.4C1302.94 1095.4 1319.18 1104.08 1330.1 1115L1320.3 1129.56C1312.18 1119.76 1297.34 1112.48 1279.98 1112.48C1261.5 1112.48 1250.02 1121.72 1250.02 1133.76C1250.02 1163.44 1333.74 1143.84 1333.74 1196.48C1333.74 1219.16 1315.54 1237.36 1280.54 1237.36Z" fill="#DB182F"/>
<path d="M637.16 1081.12L639.594 1085.49L644.455 1082.78L641.243 1078.23L637.16 1081.12ZM617.56 1092.04L613.423 1094.85L615.994 1098.64L619.994 1096.41L617.56 1092.04ZM617.56 1189.48L619.967 1185.1L615.945 1182.89L613.4 1186.71L617.56 1189.48ZM637.44 1200.4L641.465 1203.37L644.854 1198.77L639.847 1196.02L637.44 1200.4ZM566.32 1232.36C515.234 1232.36 475.28 1195.31 475.28 1140.76H465.28C465.28 1201.01 509.886 1242.36 566.32 1242.36V1232.36ZM475.28 1140.76C475.28 1086.21 515.234 1049.16 566.32 1049.16V1039.16C509.886 1039.16 465.28 1080.51 465.28 1140.76H475.28ZM566.32 1049.16C597.476 1049.16 619.013 1064.1 633.077 1084.01L641.243 1078.23C625.627 1056.14 601.244 1039.16 566.32 1039.16V1049.16ZM634.727 1076.75L615.126 1087.67L619.994 1096.41L639.594 1085.49L634.727 1076.75ZM621.697 1089.23C610.186 1072.27 589.359 1059.88 566.32 1059.88V1069.88C585.841 1069.88 603.654 1080.45 613.423 1094.85L621.697 1089.23ZM566.32 1059.88C522.492 1059.88 489.36 1093.67 489.36 1140.76H499.36C499.36 1098.81 528.388 1069.88 566.32 1069.88V1059.88ZM489.36 1140.76C489.36 1187.56 522.48 1221.64 566.32 1221.64V1211.64C528.4 1211.64 499.36 1182.44 499.36 1140.76H489.36ZM566.32 1221.64C589.321 1221.64 610.181 1209.56 621.72 1192.25L613.4 1186.71C603.659 1201.32 585.879 1211.64 566.32 1211.64V1221.64ZM615.153 1193.86L635.033 1204.78L639.847 1196.02L619.967 1185.1L615.153 1193.86ZM633.415 1197.43C618.47 1217.72 597.452 1232.36 566.32 1232.36V1242.36C601.268 1242.36 625.05 1225.64 641.465 1203.37L633.415 1197.43ZM725.299 1232.36C687.385 1232.36 663.379 1203.19 663.379 1166.24H653.379C653.379 1207.69 680.892 1242.36 725.299 1242.36V1232.36ZM663.379 1166.24C663.379 1147.72 669.458 1131.25 680.112 1119.47C690.718 1107.75 706.085 1100.4 725.299 1100.4V1090.4C703.353 1090.4 685.259 1098.87 672.695 1112.77C660.179 1126.61 653.379 1145.56 653.379 1166.24H663.379ZM725.299 1100.4C744.513 1100.4 759.879 1107.75 770.485 1119.47C781.139 1131.25 787.219 1147.72 787.219 1166.24H797.219C797.219 1145.56 790.418 1126.61 777.902 1112.77C765.338 1098.87 747.245 1090.4 725.299 1090.4V1100.4ZM787.219 1166.24C787.219 1203.19 763.212 1232.36 725.299 1232.36V1242.36C769.705 1242.36 797.219 1207.69 797.219 1166.24H787.219ZM725.299 1223.6C741.305 1223.6 753.931 1216.69 762.439 1205.91C770.856 1195.25 775.099 1181 775.099 1166.24H765.099C765.099 1179.2 761.361 1191.13 754.589 1199.72C747.907 1208.19 738.133 1213.6 725.299 1213.6V1223.6ZM775.099 1166.24C775.099 1151.61 770.851 1137.43 762.433 1126.81C753.926 1116.06 741.304 1109.16 725.299 1109.16V1119.16C738.134 1119.16 747.911 1124.58 754.594 1133.01C761.367 1141.57 765.099 1153.43 765.099 1166.24H775.099ZM725.299 1109.16C709.299 1109.16 696.614 1116.06 688.038 1126.79C679.548 1137.41 675.219 1151.59 675.219 1166.24H685.219C685.219 1153.45 689.01 1141.59 695.849 1133.03C702.604 1124.58 712.458 1119.16 725.299 1119.16V1109.16ZM675.219 1166.24C675.219 1181.02 679.542 1195.27 688.032 1205.93C696.609 1216.7 709.298 1223.6 725.299 1223.6V1213.6C712.46 1213.6 702.608 1208.18 695.855 1199.7C689.015 1191.11 685.219 1179.18 685.219 1166.24H675.219ZM945.453 1234V1239H950.453V1234H945.453ZM924.453 1234H919.453V1239H924.453V1234ZM924.453 1213.84H929.453V1198.59L920.424 1210.88L924.453 1213.84ZM924.453 1119.2L920.426 1122.16L929.453 1134.43V1119.2H924.453ZM924.453 1047.24V1042.24H919.453V1047.24H924.453ZM945.453 1047.24H950.453V1042.24H945.453V1047.24ZM924.453 1197.32L928.659 1200.02L929.453 1198.79V1197.32H924.453ZM924.453 1136H929.453V1134.53L928.659 1133.3L924.453 1136ZM945.453 1229H924.453V1239H945.453V1229ZM929.453 1234V1213.84H919.453V1234H929.453ZM920.424 1210.88C911.18 1223.46 896.091 1232.36 878.813 1232.36V1242.36C899.616 1242.36 917.567 1231.66 928.483 1216.8L920.424 1210.88ZM878.813 1232.36C862.522 1232.36 848.882 1226.19 839.253 1215.14C829.575 1204.03 823.613 1187.58 823.613 1166.52H813.613C813.613 1189.42 820.112 1208.39 831.713 1221.71C843.364 1235.09 859.824 1242.36 878.813 1242.36V1232.36ZM823.613 1166.52C823.613 1145.89 829.503 1129.34 839.177 1118.04C848.796 1106.8 862.438 1100.4 878.813 1100.4V1090.4C859.628 1090.4 843.17 1098 831.58 1111.54C820.044 1125.02 813.613 1144.03 813.613 1166.52H823.613ZM878.813 1100.4C895.3 1100.4 910.372 1108.5 920.426 1122.16L928.48 1116.24C916.694 1100.22 898.727 1090.4 878.813 1090.4V1100.4ZM929.453 1119.2V1047.24H919.453V1119.2H929.453ZM924.453 1052.24H945.453V1042.24H924.453V1052.24ZM940.453 1047.24V1234H950.453V1047.24H940.453ZM883.853 1223.6C902.33 1223.6 920.166 1213.23 928.659 1200.02L920.247 1194.62C913.62 1204.93 898.976 1213.6 883.853 1213.6V1223.6ZM929.453 1197.32V1136H919.453V1197.32H929.453ZM928.659 1133.3C920.229 1120.18 902.444 1109.16 883.853 1109.16V1119.16C898.862 1119.16 913.558 1128.3 920.247 1138.7L928.659 1133.3ZM883.853 1109.16C868.756 1109.16 856.466 1115.45 848.06 1125.99C839.741 1136.41 835.453 1150.69 835.453 1166.52H845.453C845.453 1152.39 849.285 1140.49 855.877 1132.22C862.38 1124.07 871.79 1119.16 883.853 1119.16V1109.16ZM835.453 1166.52C835.453 1182.35 839.742 1196.57 848.071 1206.93C856.488 1217.4 868.779 1223.6 883.853 1223.6V1213.6C871.768 1213.6 862.359 1208.74 855.865 1200.66C849.284 1192.47 845.453 1180.65 845.453 1166.52H835.453ZM1111.27 1173.24V1178.24H1116.27V1173.24H1111.27ZM1001.79 1173.24V1168.24H996.447L996.799 1173.57L1001.79 1173.24ZM1092.23 1202.92L1096.26 1199.96L1092.76 1195.2L1088.65 1199.43L1092.23 1202.92ZM1102.31 1216.64L1105.84 1220.18L1108.88 1217.14L1106.34 1213.68L1102.31 1216.64ZM1090.55 1157.84V1162.84H1095.62L1095.55 1157.77L1090.55 1157.84ZM1001.79 1157.84L996.795 1157.57L996.51 1162.84H1001.79V1157.84ZM1048.55 1232.36C1029.77 1232.36 1013.87 1225.62 1002.67 1214.16C991.463 1202.7 984.668 1186.22 984.668 1166.24H974.668C974.668 1188.54 982.293 1207.62 995.517 1221.15C1008.75 1234.68 1027.29 1242.36 1048.55 1242.36V1232.36ZM984.668 1166.24C984.668 1129.42 1010.8 1100.4 1046.31 1100.4V1090.4C1004.54 1090.4 974.668 1124.66 974.668 1166.24H984.668ZM1046.31 1100.4C1065.34 1100.4 1080.17 1107.78 1090.31 1119.68C1100.53 1131.67 1106.27 1148.57 1106.27 1167.92H1116.27C1116.27 1146.67 1109.96 1127.31 1097.92 1113.19C1085.81 1098.98 1068.16 1090.4 1046.31 1090.4V1100.4ZM1106.27 1167.92V1173.24H1116.27V1167.92H1106.27ZM1111.27 1168.24H1001.79V1178.24H1111.27V1168.24ZM996.799 1173.57C998.625 1201.27 1018.37 1225 1050.51 1225V1215C1024.41 1215 1008.31 1196.17 1006.78 1172.91L996.799 1173.57ZM1050.51 1225C1067.15 1225 1084.16 1218.37 1095.81 1206.41L1088.65 1199.43C1079.02 1209.31 1064.67 1215 1050.51 1215V1225ZM1088.2 1205.88L1098.28 1219.6L1106.34 1213.68L1096.26 1199.96L1088.2 1205.88ZM1098.77 1213.1C1086.38 1225.5 1069.5 1232.36 1048.55 1232.36V1242.36C1071.83 1242.36 1091.36 1234.66 1105.84 1220.18L1098.77 1213.1ZM1095.55 1157.77C1095.39 1146.7 1091.65 1134.29 1083.58 1124.55C1075.4 1114.67 1062.94 1107.76 1046.03 1107.76V1117.76C1059.92 1117.76 1069.57 1123.31 1075.88 1130.93C1082.31 1138.69 1085.42 1148.82 1085.55 1157.91L1095.55 1157.77ZM1046.03 1107.76C1013.56 1107.76 998 1135.28 996.795 1157.57L1006.78 1158.11C1007.82 1138.96 1020.81 1117.76 1046.03 1117.76V1107.76ZM1001.79 1162.84H1090.55V1152.84H1001.79V1162.84ZM1166.28 1234V1239H1171.28V1234H1166.28ZM1145.28 1234H1140.28V1239H1145.28V1234ZM1145.28 1098.76V1093.76H1140.28V1098.76H1145.28ZM1166.28 1098.76H1171.28V1093.76H1166.28V1098.76ZM1166.28 1120.6H1161.28V1135.37L1170.25 1123.64L1166.28 1120.6ZM1211.36 1095.96H1216.36V1090.96H1211.36V1095.96ZM1211.36 1117.52L1210.28 1122.4L1216.36 1123.75V1117.52H1211.36ZM1166.28 1138.24L1161.93 1135.78L1161.28 1136.93V1138.24H1166.28ZM1166.28 1229H1145.28V1239H1166.28V1229ZM1150.28 1234V1098.76H1140.28V1234H1150.28ZM1145.28 1103.76H1166.28V1093.76H1145.28V1103.76ZM1161.28 1098.76V1120.6H1171.28V1098.76H1161.28ZM1170.25 1123.64C1180.53 1110.19 1194.88 1100.96 1211.36 1100.96V1090.96C1190.88 1090.96 1173.87 1102.45 1162.31 1117.56L1170.25 1123.64ZM1206.36 1095.96V1117.52H1216.36V1095.96H1206.36ZM1212.45 1112.64C1209.52 1111.99 1206.64 1111.68 1202.96 1111.68V1121.68C1206.01 1121.68 1208.16 1121.93 1210.28 1122.4L1212.45 1112.64ZM1202.96 1111.68C1195.31 1111.68 1186.79 1114.77 1179.55 1119.06C1172.31 1123.36 1165.58 1129.31 1161.93 1135.78L1170.64 1140.7C1173.14 1136.25 1178.31 1131.42 1184.65 1127.67C1190.99 1123.91 1197.73 1121.68 1202.96 1121.68V1111.68ZM1161.28 1138.24V1234H1171.28V1138.24H1161.28ZM1225.94 1216.08L1221.89 1213.15L1219.47 1216.5L1222.3 1219.51L1225.94 1216.08ZM1236.86 1200.96L1240.64 1197.69L1236.51 1192.91L1232.81 1198.03L1236.86 1200.96ZM1330.1 1115L1334.25 1117.79L1336.55 1114.38L1333.64 1111.46L1330.1 1115ZM1320.3 1129.56L1316.45 1132.75L1320.72 1137.9L1324.45 1132.35L1320.3 1129.56ZM1280.54 1232.36C1259.47 1232.36 1242.15 1225.99 1229.58 1212.65L1222.3 1219.51C1237.17 1235.29 1257.37 1242.36 1280.54 1242.36V1232.36ZM1230 1219.01L1240.92 1203.89L1232.81 1198.03L1221.89 1213.15L1230 1219.01ZM1233.08 1204.23C1242.98 1215.68 1261.44 1225.28 1281.38 1225.28V1215.28C1264.37 1215.28 1248.66 1206.96 1240.64 1197.69L1233.08 1204.23ZM1281.38 1225.28C1292.47 1225.28 1301.64 1222.66 1308.15 1217.67C1314.8 1212.58 1318.3 1205.29 1318.3 1197.04H1308.3C1308.3 1202.23 1306.21 1206.56 1302.07 1209.73C1297.81 1213 1291.02 1215.28 1281.38 1215.28V1225.28ZM1318.3 1197.04C1318.3 1191.76 1316.57 1187.34 1313.51 1183.75C1310.55 1180.28 1306.54 1177.81 1302.26 1175.9C1293.89 1172.17 1282.71 1169.9 1272.67 1167.34C1262.2 1164.68 1252.59 1161.66 1245.59 1156.6C1238.95 1151.8 1234.58 1145.13 1234.58 1134.32H1224.58C1224.58 1148.57 1230.68 1158.17 1239.74 1164.71C1248.44 1171 1259.75 1174.38 1270.21 1177.04C1281.1 1179.8 1290.85 1181.76 1298.19 1185.03C1301.76 1186.63 1304.28 1188.35 1305.9 1190.24C1307.42 1192.02 1308.3 1194.13 1308.3 1197.04H1318.3ZM1234.58 1134.32C1234.58 1125.35 1238.44 1117.02 1245.9 1110.84C1253.4 1104.62 1264.79 1100.4 1279.98 1100.4V1090.4C1262.97 1090.4 1249.17 1095.14 1239.52 1103.13C1229.83 1111.16 1224.58 1122.29 1224.58 1134.32H1234.58ZM1279.98 1100.4C1301.54 1100.4 1316.53 1108.5 1326.57 1118.54L1333.64 1111.46C1321.83 1099.66 1304.34 1090.4 1279.98 1090.4V1100.4ZM1325.96 1112.21L1316.16 1126.77L1324.45 1132.35L1334.25 1117.79L1325.96 1112.21ZM1324.15 1126.37C1314.98 1115.29 1298.65 1107.48 1279.98 1107.48V1117.48C1296.03 1117.48 1309.39 1124.23 1316.45 1132.75L1324.15 1126.37ZM1279.98 1107.48C1269.96 1107.48 1261.35 1109.98 1255.11 1114.58C1248.78 1119.24 1245.02 1125.99 1245.02 1133.76H1255.02C1255.02 1129.49 1257 1125.6 1261.04 1122.63C1265.16 1119.6 1271.53 1117.48 1279.98 1117.48V1107.48ZM1245.02 1133.76C1245.02 1138.81 1246.86 1142.97 1250 1146.26C1252.99 1149.41 1257.01 1151.62 1261.24 1153.32C1269.49 1156.64 1280.69 1158.79 1290.64 1161.35C1301.04 1164.03 1310.64 1167.25 1317.62 1172.61C1324.28 1177.73 1328.74 1184.93 1328.74 1196.48H1338.74C1338.74 1181.71 1332.74 1171.62 1323.71 1164.68C1314.99 1157.98 1303.65 1154.38 1293.13 1151.67C1282.15 1148.84 1272.42 1147.04 1264.97 1144.04C1261.35 1142.58 1258.83 1141.04 1257.24 1139.37C1255.8 1137.85 1255.02 1136.13 1255.02 1133.76H1245.02ZM1328.74 1196.48C1328.74 1206.39 1324.81 1215.18 1317.08 1221.57C1309.28 1228.03 1297.21 1232.36 1280.54 1232.36V1242.36C1298.87 1242.36 1313.41 1237.59 1323.46 1229.28C1333.58 1220.9 1338.74 1209.25 1338.74 1196.48H1328.74Z" fill="white"/>
<path d="M108.92 1237.36C52.92 1237.36 9.52 1198.16 9.52 1140.76C9.52 1083.36 52.92 1044.16 108.92 1044.16C150.08 1044.16 173.88 1066.56 187.04 1089.8L152.88 1106.6C145.04 1091.48 128.24 1079.44 108.92 1079.44C75.04 1079.44 50.4 1105.48 50.4 1140.76C50.4 1176.04 75.04 1202.08 108.92 1202.08C128.24 1202.08 145.04 1190.32 152.88 1174.92L187.04 1191.44C173.6 1214.68 150.08 1237.36 108.92 1237.36ZM250.467 1234H210.707V1047.24H250.467V1234ZM413.543 1234H377.983V1152.24C377.983 1133.48 368.183 1127.04 353.063 1127.04C339.062 1127.04 328.143 1134.88 322.263 1143V1234H286.703V1098.76H322.263V1116.4C330.943 1106.04 347.463 1095.4 369.583 1095.4C399.263 1095.4 413.543 1112.2 413.543 1138.52V1234Z" fill="#1D1D1B"/>
<path d="M187.04 1089.8L189.247 1094.29L194.002 1091.95L191.391 1087.34L187.04 1089.8ZM152.88 1106.6L148.441 1108.9L150.694 1113.25L155.087 1111.09L152.88 1106.6ZM152.88 1174.92L155.057 1170.42L150.647 1168.29L148.424 1172.65L152.88 1174.92ZM187.04 1191.44L191.368 1193.94L194.064 1189.28L189.217 1186.94L187.04 1191.44ZM108.92 1232.36C55.4416 1232.36 14.52 1195.16 14.52 1140.76H4.52C4.52 1201.16 50.3984 1242.36 108.92 1242.36V1232.36ZM14.52 1140.76C14.52 1086.36 55.4416 1049.16 108.92 1049.16V1039.16C50.3984 1039.16 4.52 1080.36 4.52 1140.76H14.52ZM108.92 1049.16C147.834 1049.16 170.173 1070.16 182.689 1092.26L191.391 1087.34C177.587 1062.96 152.326 1039.16 108.92 1039.16V1049.16ZM184.833 1085.31L150.673 1102.11L155.087 1111.09L189.247 1094.29L184.833 1085.31ZM157.319 1104.3C148.717 1087.71 130.311 1074.44 108.92 1074.44V1084.44C126.169 1084.44 141.363 1095.25 148.441 1108.9L157.319 1104.3ZM108.92 1074.44C72.0493 1074.44 45.4 1102.95 45.4 1140.76H55.4C55.4 1108.01 78.0307 1084.44 108.92 1084.44V1074.44ZM45.4 1140.76C45.4 1178.57 72.0493 1207.08 108.92 1207.08V1197.08C78.0307 1197.08 55.4 1173.51 55.4 1140.76H45.4ZM108.92 1207.08C130.273 1207.08 148.714 1194.12 157.336 1177.19L148.424 1172.65C141.366 1186.52 126.207 1197.08 108.92 1197.08V1207.08ZM150.703 1179.42L184.863 1195.94L189.217 1186.94L155.057 1170.42L150.703 1179.42ZM182.712 1188.94C169.877 1211.13 147.786 1232.36 108.92 1232.36V1242.36C152.374 1242.36 177.323 1218.23 191.368 1193.94L182.712 1188.94ZM250.467 1234V1239H255.467V1234H250.467ZM210.707 1234H205.707V1239H210.707V1234ZM210.707 1047.24V1042.24H205.707V1047.24H210.707ZM250.467 1047.24H255.467V1042.24H250.467V1047.24ZM250.467 1229H210.707V1239H250.467V1229ZM215.707 1234V1047.24H205.707V1234H215.707ZM210.707 1052.24H250.467V1042.24H210.707V1052.24ZM245.467 1047.24V1234H255.467V1047.24H245.467ZM413.543 1234V1239H418.543V1234H413.543ZM377.983 1234H372.983V1239H377.983V1234ZM322.263 1143L318.213 1140.07L317.263 1141.38V1143H322.263ZM322.263 1234V1239H327.263V1234H322.263ZM286.703 1234H281.703V1239H286.703V1234ZM286.703 1098.76V1093.76H281.703V1098.76H286.703ZM322.263 1098.76H327.263V1093.76H322.263V1098.76ZM322.263 1116.4H317.263V1130.15L326.095 1119.61L322.263 1116.4ZM413.543 1229H377.983V1239H413.543V1229ZM382.983 1234V1152.24H372.983V1234H382.983ZM382.983 1152.24C382.983 1142.03 380.303 1134.14 374.56 1128.91C368.908 1123.76 361.212 1122.04 353.062 1122.04V1132.04C360.033 1132.04 364.797 1133.54 367.825 1136.3C370.762 1138.98 372.983 1143.69 372.983 1152.24H382.983ZM353.062 1122.04C337.128 1122.04 324.82 1130.94 318.213 1140.07L326.312 1145.93C331.465 1138.82 340.997 1132.04 353.062 1132.04V1122.04ZM317.263 1143V1234H327.263V1143H317.263ZM322.263 1229H286.703V1239H322.263V1229ZM291.703 1234V1098.76H281.703V1234H291.703ZM286.703 1103.76H322.263V1093.76H286.703V1103.76ZM317.263 1098.76V1116.4H327.263V1098.76H317.263ZM326.095 1119.61C333.939 1110.25 349.11 1100.4 369.583 1100.4V1090.4C345.815 1090.4 327.946 1101.83 318.43 1113.19L326.095 1119.61ZM369.583 1100.4C383.487 1100.4 393.023 1104.32 399.107 1110.57C405.217 1116.86 408.543 1126.23 408.543 1138.52H418.543C418.543 1124.49 414.728 1112.3 406.278 1103.61C397.802 1094.88 385.358 1090.4 369.583 1090.4V1100.4ZM408.543 1138.52V1234H418.543V1138.52H408.543Z" fill="white"/>
<path d="M629.249 908.496L629.237 908.526L333.985 814.656C290.919 800.962 261.56 761.225 261.292 716.127L258.45 258.563C258.45 258.563 258.45 258.563 258.45 258.562C258.182 213.362 286.92 173.185 329.793 159.047L329.798 159.046L631.023 59.0652L631.026 59.0643C647.009 53.7382 650.112 32.5544 636.361 22.7648L636.358 22.7631C608.501 2.97821 572.381 -3.12157 538.697 8.04064L538.696 8.04096L104.275 152.192L104.273 152.193C59.4305 167.105 29.2205 209.122 29.5019 256.485L29.502 256.486L32.2519 700.945L32.2519 700.947C32.626 756.008 68.441 804.522 120.895 821.254L120.897 821.254L544.684 955.967L545.442 953.584L544.684 955.967C575.085 965.628 607.359 961.312 633.624 945.651L633.63 945.648C648.777 936.562 646.052 913.817 629.249 908.496Z" fill="#1D1D1B" stroke="white" stroke-width="5"/>
<path d="M716.752 55.1353L716.764 55.1058L1012.02 148.975C1055.08 162.669 1084.44 202.406 1084.71 247.504L1084.71 247.505L1087.55 705.068C1087.82 750.269 1059.08 790.446 1016.21 804.584L1016.2 804.586L714.977 904.566L714.975 904.567C698.992 909.893 695.888 931.077 709.64 940.867L709.642 940.868C737.5 960.653 773.619 966.753 807.304 955.591L807.305 955.59L1241.73 811.439L1241.73 811.438C1286.57 796.527 1316.78 754.509 1316.5 707.146L1313.75 262.686V262.685C1313.37 207.623 1277.56 159.109 1225.11 142.378L1225.1 142.377L801.316 7.66467L801.316 7.66462C770.916 -1.99669 738.642 2.31984 712.376 17.9805L712.376 17.9804L712.371 17.9838C697.223 27.0693 699.949 49.8142 716.752 55.1353Z" fill="#1B1F27" stroke="white" stroke-width="5"/>
<path d="M586.814 437.196L586.683 437.255L586.559 437.329C553.472 457.074 503.258 498.554 460.725 535.636C418.769 572.215 384.093 604.687 380.301 608.237L380.265 608.271C379.906 608.557 379.685 608.884 379.558 609.117C379.381 609.442 379.299 609.742 379.258 609.925C379.214 610.122 379.196 610.291 379.187 610.404C379.182 610.464 379.179 610.516 379.178 610.559C379.177 610.58 379.176 610.6 379.176 610.617L379.176 610.641L379.176 610.652L379.176 610.657L379.176 610.66L379.176 610.661C379.176 610.661 379.176 610.662 379.253 610.662H379.176V641.545C379.176 642.723 379.805 643.792 380.838 644.339C381.841 644.869 383.024 644.806 383.97 644.239L384.029 644.203L384.086 644.165C384.374 643.969 384.72 643.735 385.118 643.465C390.613 639.739 406.251 629.135 423.358 618.186C441.774 606.398 461.629 594.383 472.426 589.987C496.467 580.863 511.691 584.014 520.828 589.1C529.777 594.08 533.322 601.155 533.553 601.632C533.556 601.642 533.569 601.679 533.596 601.758C533.62 601.827 533.654 601.926 533.702 602.066C533.741 602.181 533.787 602.314 533.838 602.464C533.938 602.757 534.06 603.113 534.201 603.524C534.63 604.775 535.246 606.56 536.03 608.774C537.598 613.202 539.837 619.348 542.587 626.384C548.078 640.427 555.643 658.101 564.026 672.736C594.692 728.479 640.848 757.255 683.502 759.509L683.608 759.515L683.713 759.511C753.804 757.302 795.951 739.445 817.478 725.615C892.513 683.413 959.398 612.828 964.798 607.129L964.857 607.066L965.112 606.797L965.278 606.465C965.541 605.939 965.569 605.439 965.577 605.295V605.293C965.59 605.069 965.58 604.868 965.57 604.733C965.56 604.589 965.545 604.463 965.534 604.376C965.528 604.331 965.522 604.293 965.518 604.264L965.512 604.226L965.51 604.212L965.509 604.207L965.509 604.205L965.508 604.203L965.508 604.203C965.508 604.203 965.508 604.202 963.042 604.613L965.508 604.202L965.448 603.842L965.288 603.515L952.913 578.222L952.908 578.212L952.903 578.202C951.916 576.229 949.576 576.075 948.159 577.137L948.055 577.215L947.96 577.303C945.584 579.502 935.589 588.416 909.887 606.795L909.875 606.804L909.864 606.812C857.661 645.04 829.098 651.661 802.469 647.508C786.984 644.922 774.095 633.034 764.436 618.274C754.806 603.558 748.697 586.445 746.599 574.313L746.595 574.288L746.591 574.264C737.663 528.082 732.329 506.18 726.799 492.645C722.6 482.368 718.217 476.814 712.369 469.403C710.447 466.967 708.366 464.331 706.082 461.261L706.001 461.152L705.908 461.052C687.757 441.507 668.094 430.926 647.809 427.582C627.548 424.242 606.902 428.157 586.814 437.196ZM533.566 601.658C533.566 601.658 533.565 601.658 533.565 601.658L533.566 601.658Z" fill="#DB182F" stroke="white" stroke-width="5"/>
<path d="M651.004 327.225L651.011 327.227L651.019 327.23C670.741 333.089 695.1 335.764 715.441 335.764H715.469L715.498 335.763C768.64 334.562 806.369 318.382 827.701 293.754L827.702 293.753C836.918 283.1 841.683 269.421 841.969 255.516C842.669 223.595 832.76 200.849 818.485 185.735C804.251 170.665 785.83 163.346 769.739 161.97L769.716 161.968L769.692 161.967C728.047 159.201 698.591 193.166 679.079 229.642C659.453 266.329 649.219 306.748 646.361 319.235L646.355 319.259L646.35 319.283C645.635 322.715 647.625 326.197 651.004 327.225Z" fill="#DB182F" stroke="white" stroke-width="5"/>
</svg>
