<svg width="150" height="35" viewBox="0 0 150 35" fill="none" xmlns="http://www.w3.org/2000/svg">
<path d="M20.0163 31.3982C20.5116 31.5551 20.5915 32.2255 20.1455 32.493C19.2842 33.0065 18.226 33.148 17.2294 32.8313L3.0085 28.3108C1.2828 27.7603 0.104648 26.1643 0.0923435 24.353L6.39396e-05 9.43848C-0.00916439 7.88553 0.981344 6.50785 2.45172 6.0189L17.0294 1.18167C18.1337 0.815722 19.318 1.01561 20.2316 1.66447C20.6377 1.95353 20.5454 2.57779 20.0748 2.73462L9.96666 6.08963C8.4932 6.57551 7.50577 7.95625 7.515 9.50921L7.61036 24.8635C7.61959 26.4134 8.62855 27.7788 10.1082 28.2493L20.0225 31.4013L20.0163 31.3982Z" fill="#1D1D1B"/>
<path d="M23.0035 2.60196C22.5082 2.44513 22.4283 1.77474 22.8743 1.5072C23.7356 0.99365 24.7938 0.852192 25.7905 1.16893L40.0113 5.68943C41.737 6.23988 42.9152 7.83589 42.9275 9.64716L43.0198 24.5617C43.029 26.1147 42.0385 27.4923 40.5681 27.9813L25.9904 32.8185C24.8861 33.1845 23.7018 32.9846 22.7882 32.3357C22.3821 32.0467 22.4744 31.4224 22.945 31.2656L33.0531 27.9106C34.5266 27.4247 35.514 26.0439 35.5048 24.491L35.4094 9.13669C35.4002 7.5868 34.3913 6.22143 32.9116 5.75093L22.9973 2.59889L23.0035 2.60196Z" fill="#1B1F27"/>
<path d="M11.7344 22.3607V21.3244C11.7344 21.3244 11.7344 21.3121 11.7405 21.309C11.9343 21.1276 16.447 16.8961 18.6525 15.58C19.9784 14.9834 21.3564 15.0725 22.5531 16.361C23.1867 17.2129 23.2975 17.0161 23.8973 20.1189C24.0419 20.9553 24.734 22.4591 25.8414 22.6436C26.7673 22.7881 27.7486 22.5514 29.5081 21.2629C30.3725 20.6447 30.7109 20.3434 30.794 20.2665C30.8063 20.2573 30.8216 20.2604 30.8278 20.2727L31.2431 21.1214C31.2431 21.1214 31.2461 21.1399 31.2431 21.146C31.077 21.3213 28.8314 23.6953 26.3151 25.1099C25.6076 25.565 24.208 26.1616 21.8671 26.2354C20.4705 26.1616 18.9448 25.2175 17.9266 23.3663C17.3698 22.3945 16.9176 21.0107 16.9084 20.9892C16.8992 20.9676 16.4008 19.9252 14.749 20.5525C14.0076 20.8539 12.0543 22.1854 11.7682 22.3791C11.7528 22.3884 11.7344 22.3791 11.7344 22.3607Z" fill="#DB182F"/>
<path d="M20.7949 11.7328C20.7242 11.7113 20.6811 11.6375 20.6965 11.5637C20.8872 10.7303 22.0623 6.17293 24.7477 6.35129C25.7905 6.44047 27.1409 7.30151 27.0948 9.40493C27.0855 9.8539 26.9317 10.2936 26.6364 10.635C25.9412 11.4376 24.7016 11.9758 22.9328 12.0157C22.2561 12.0157 21.447 11.9266 20.7949 11.7328Z" fill="#DB182F"/>
<path d="M87.668 25.264C83.444 25.264 80.122 22.184 80.122 17.674C80.122 13.164 83.444 10.084 87.668 10.084C90.264 10.084 92.068 11.338 93.234 12.988L91.694 13.846C90.858 12.614 89.34 11.712 87.668 11.712C84.456 11.712 82.014 14.176 82.014 17.674C82.014 21.15 84.456 23.636 87.668 23.636C89.34 23.636 90.858 22.756 91.694 21.502L93.256 22.36C92.024 24.032 90.264 25.264 87.668 25.264ZM100.159 25.264C96.9252 25.264 94.9012 22.756 94.9012 19.676C94.9012 16.596 96.9252 14.11 100.159 14.11C103.393 14.11 105.417 16.596 105.417 19.676C105.417 22.756 103.393 25.264 100.159 25.264ZM100.159 23.79C102.425 23.79 103.679 21.854 103.679 19.676C103.679 17.52 102.425 15.584 100.159 15.584C97.8932 15.584 96.6172 17.52 96.6172 19.676C96.6172 21.854 97.8932 23.79 100.159 23.79ZM117.457 25H115.807V23.416C115.015 24.494 113.717 25.264 112.221 25.264C109.449 25.264 107.491 23.152 107.491 19.698C107.491 16.31 109.427 14.11 112.221 14.11C113.651 14.11 114.949 14.814 115.807 15.98V10.326H117.457V25ZM112.617 23.79C113.937 23.79 115.213 23.042 115.807 22.118V17.3C115.213 16.376 113.937 15.584 112.617 15.584C110.483 15.584 109.207 17.344 109.207 19.698C109.207 22.052 110.483 23.79 112.617 23.79ZM125.557 25.264C122.411 25.264 120.145 22.998 120.145 19.676C120.145 16.596 122.345 14.11 125.381 14.11C128.593 14.11 130.485 16.618 130.485 19.808V20.226H121.883C122.015 22.228 123.423 23.9 125.711 23.9C126.921 23.9 128.153 23.416 128.989 22.558L129.781 23.636C128.725 24.692 127.295 25.264 125.557 25.264ZM128.857 19.016C128.835 17.432 127.779 15.474 125.359 15.474C123.093 15.474 121.971 17.388 121.883 19.016H128.857ZM134.808 25H133.158V14.374H134.808V16.09C135.666 14.968 136.898 14.154 138.35 14.154V15.848C138.152 15.804 137.954 15.782 137.69 15.782C136.678 15.782 135.292 16.618 134.808 17.476V25ZM143.786 25.264C142.048 25.264 140.574 24.736 139.496 23.592L140.354 22.404C141.058 23.218 142.4 23.922 143.852 23.922C145.48 23.922 146.36 23.152 146.36 22.096C146.36 19.522 139.782 21.106 139.782 17.168C139.782 15.518 141.212 14.11 143.742 14.11C145.546 14.11 146.822 14.792 147.68 15.65L146.91 16.794C146.272 16.024 145.106 15.452 143.742 15.452C142.29 15.452 141.388 16.178 141.388 17.124C141.388 19.456 147.966 17.916 147.966 22.052C147.966 23.834 146.536 25.264 143.786 25.264Z" fill="#DB182F"/>
<path d="M53.558 25.264C49.158 25.264 45.748 22.184 45.748 17.674C45.748 13.164 49.158 10.084 53.558 10.084C56.792 10.084 58.662 11.844 59.696 13.67L57.012 14.99C56.396 13.802 55.076 12.856 53.558 12.856C50.896 12.856 48.96 14.902 48.96 17.674C48.96 20.446 50.896 22.492 53.558 22.492C55.076 22.492 56.396 21.568 57.012 20.358L59.696 21.656C58.64 23.482 56.792 25.264 53.558 25.264ZM64.6795 25H61.5555V10.326H64.6795V25ZM77.4926 25H74.6986V18.576C74.6986 17.102 73.9286 16.596 72.7406 16.596C71.6406 16.596 70.7826 17.212 70.3206 17.85V25H67.5266V14.374H70.3206V15.76C71.0026 14.946 72.3006 14.11 74.0386 14.11C76.3706 14.11 77.4926 15.43 77.4926 17.498V25Z" fill="#1D1D1B"/>
</svg>
