<svg width="60" height="77" viewBox="0 0 60 77" fill="none" xmlns="http://www.w3.org/2000/svg">
<path d="M30.4831 76.49C28.7931 76.49 27.0931 76.36 25.4331 76.11C23.9631 75.89 22.5231 75.4 21.1631 74.67C15.8131 71.79 6.16308 64.28 1.74308 46.35C-0.456916 37.56 -2.50692 20.97 8.48308 8.58C10.7931 5.51 18.0431 0 25.7431 0C30.1331 0 34.0431 1.81 37.0631 5.24C40.3931 9.08 43.8931 17.71 41.3331 26.68C42.7331 26.83 44.1631 27.14 45.4431 27.59C47.3431 28.25 50.0731 29.89 51.9431 31.49C56.8731 35.69 58.4131 42.04 58.9031 45.46C59.7031 51.09 58.9231 56.55 56.6531 61.24C55.7231 63.16 54.5431 64.92 53.1531 66.49C52.2431 67.51 51.2331 68.47 50.1431 69.35C49.5431 69.83 48.9131 70.21 48.3631 70.55C47.8831 70.84 47.4231 71.12 47.1331 71.38C43.6031 74.49 37.0731 76.49 30.4831 76.49Z" fill="#572F17"/>
<path d="M37.093 29.88C39.293 29.26 42.343 29.68 44.463 30.42C45.963 30.94 48.393 32.3901 50.013 33.7701C53.513 36.7501 55.323 41.4701 55.943 45.8801C56.613 50.6201 56.063 55.6 53.963 59.93C53.163 61.58 52.143 63.12 50.923 64.5C50.113 65.41 49.223 66.25 48.273 67.01C47.323 67.77 46.073 68.32 45.153 69.13C41.853 72.03 34.193 74.41 25.893 73.15C24.773 72.98 23.653 72.6 22.593 72.03C17.783 69.44 8.84302 62.5801 4.66302 45.6301C2.69302 37.7801 0.463017 22.04 10.813 10.47C13.463 6.81005 26.403 -2.33995 34.813 7.23005C37.713 10.57 41.803 20.32 36.943 29.64C36.873 29.78 36.983 29.92 37.093 29.89V29.88Z" fill="#763A10"/>
<path d="M9.62304 52.5398L10.073 53.3098C10.683 54.3598 11.113 55.4898 11.583 56.5998C11.993 57.5798 12.483 58.5198 13.043 59.4298C14.153 61.2398 15.513 62.8998 17.083 64.3398C18.653 65.7798 20.413 66.9898 22.313 67.9298C24.113 68.8198 26.043 69.4598 28.033 69.7998C35.673 71.0898 43.963 67.7198 48.333 61.3298C52.703 54.9398 52.793 45.8298 48.333 39.4998C46.823 37.3498 44.803 35.4998 42.373 34.4998C39.603 33.3598 36.463 33.4098 33.523 33.9998C29.703 34.7698 26.033 36.4898 23.253 39.2098C20.473 41.9298 18.633 45.6998 18.593 49.5898C18.533 54.9598 22.113 60.1798 27.153 62.0498C32.193 63.9198 38.313 62.2998 41.763 58.1798C43.703 55.8698 44.813 52.8398 44.643 49.8198C44.473 46.7998 42.983 43.8598 40.543 42.0798C38.083 40.2798 34.843 39.7598 31.843 40.2598C29.313 40.6898 26.833 41.8798 25.323 43.9398C24.743 44.7298 24.313 45.6998 24.453 46.6698C24.593 47.6398 25.483 48.5398 26.453 48.4098C27.793 48.2398 28.233 46.5698 29.033 45.4898C30.643 43.3098 34.013 43.4598 36.463 44.6098C37.723 45.1998 38.913 46.0098 39.693 47.1498C40.833 48.8098 40.983 51.0398 40.293 52.9298C39.603 54.8198 38.123 56.3598 36.373 57.3598C33.843 58.7998 30.683 59.1398 27.953 58.1398C25.213 57.1498 22.983 54.8098 22.213 52.0098C21.223 48.3898 22.753 44.3698 25.513 41.8298C28.273 39.2898 32.093 38.1098 35.843 37.9798C38.873 37.8698 42.103 38.4698 44.363 40.4998C46.743 42.6298 47.663 45.9798 47.723 49.1698C47.793 53.1598 46.583 57.2798 43.873 60.2098C41.763 62.4898 38.853 63.9398 35.813 64.5998C29.593 65.9398 22.743 63.8798 18.293 59.3198C14.723 55.6498 12.783 50.6798 11.573 45.7098C9.28304 36.2698 9.54304 25.6298 15.093 17.6598C16.843 15.1498 19.163 12.9198 22.043 11.8898C24.923 10.8598 28.423 11.2298 30.653 13.3198C33.203 15.7198 33.553 19.6698 32.993 23.1198C32.623 25.3698 31.803 27.7698 29.853 28.9698C28.243 29.9498 26.213 29.8898 24.343 29.5798C22.293 29.2298 20.013 28.3498 19.353 26.3898C18.883 24.9998 19.423 23.3998 20.453 22.3398C21.483 21.2798 22.913 20.7098 24.353 20.4398C25.443 20.2298 26.583 20.1698 27.603 19.7198C28.623 19.2698 29.523 18.2998 29.443 17.1898C29.373 16.2698 28.643 15.5098 27.783 15.1798C26.923 14.8498 25.973 14.8798 25.063 15.0098C21.313 15.5598 17.773 17.9398 16.263 21.4098C14.753 24.8798 15.553 29.3498 18.473 31.7698C20.563 33.4998 23.403 34.0498 26.113 34.0798C27.963 34.0998 29.883 33.8898 31.483 32.9498C33.503 31.7698 34.743 29.5898 35.473 27.3598C36.853 23.1298 36.653 18.3798 34.853 14.3098C33.903 12.1698 32.473 10.1598 30.463 8.94984C26.293 6.43984 20.763 7.98984 16.823 10.8498C11.073 15.0198 7.40304 21.7098 6.21304 28.7098C5.76304 31.3298 5.65304 33.9998 5.81304 36.6498C5.97304 39.2998 6.42304 41.9498 7.10304 44.5198C7.36304 45.4998 7.65304 46.4698 7.97304 47.4298C8.29304 48.3898 8.66304 49.2998 8.92304 50.2598C9.07304 50.7898 9.20304 51.3298 9.33304 51.8598" fill="#DF9256"/>
<g opacity="0.7">
<path d="M17.083 46.29C17.023 44.77 17.303 41.33 20.473 37.95C20.823 37.57 20.943 37.07 20.673 36.85C19.403 35.83 16.873 35.21 14.543 32.09C14.363 31.84 13.903 32.22 13.733 32.6C12.213 35.96 13.453 43.08 16.603 46.67C16.743 46.83 17.113 46.55 17.103 46.29H17.083Z" fill="#442511"/>
</g>
</svg>
