<svg width="525" height="323" viewBox="0 0 525 323" fill="none" xmlns="http://www.w3.org/2000/svg">
<path opacity="0.1" d="M525 207.455C525.009 216.207 523.951 224.926 521.849 233.421C521.142 236.284 520.32 239.087 519.384 241.83C518.239 245.216 516.911 248.538 515.408 251.781C514.65 253.422 513.849 255.03 513.005 256.605C513.019 265.579 511.172 274.459 507.581 282.683C501.089 297.437 489.512 309.368 474.962 316.299C465.864 320.641 455.921 322.924 445.841 322.987H99.6628C84.2607 323.02 69.1245 318.972 55.7932 311.257L55.5882 311.141C53.6894 310.029 51.8381 308.852 50.0343 307.61C45.9759 304.805 42.163 301.661 38.6368 298.211C33.864 293.546 29.6583 288.334 26.107 282.683C17.7663 269.436 13.3479 254.097 13.3634 238.442C4.91662 223.617 -0.00878906 205.859 -0.00878906 186.777C-0.00878906 162.702 7.81838 140.74 20.6779 124.114C23.3589 120.641 26.2956 117.372 29.4635 114.337C32.5891 111.333 35.9487 108.582 39.5104 106.111C42.36 104.132 45.3382 102.344 48.4252 100.761C49.7134 100.105 51.006 99.4856 52.3209 98.9105C53.4754 98.3978 54.6432 97.9207 55.8244 97.4704C57.2419 96.9324 58.6772 96.4375 60.1303 95.9857C61.5834 95.534 63.0172 95.1387 64.4317 94.7998C66.5118 94.2916 68.6275 93.8784 70.779 93.5604C72.5619 93.2973 74.3449 93.1145 76.1278 92.9763C77.5453 92.8693 78.9761 92.8114 80.4159 92.7935H81.1959C82.7827 92.7935 84.3606 92.8559 85.9252 92.9629C86.0901 92.633 86.2684 92.2986 86.4333 91.9732C87.0574 90.7828 87.7037 89.5968 88.3545 88.4376C88.353 88.4273 88.353 88.4168 88.3545 88.4064C88.4659 88.2013 88.5773 88.0007 88.6932 87.8045C89.2192 86.8549 89.7675 85.9142 90.3291 84.9823C90.5876 84.5365 90.8417 84.1174 91.1047 83.6983C91.1603 83.5942 91.2213 83.493 91.2874 83.3951C91.5549 82.9493 91.8268 82.5035 92.1031 82.0576C93.479 79.8581 94.9098 77.6973 96.3956 75.5751L96.7745 75.0311C97.0062 74.7012 97.2202 74.3802 97.4787 74.0503C98.0938 73.1898 98.7268 72.3249 99.3642 71.4778C99.81 70.8714 100.256 70.2695 100.737 69.6944C101.896 68.2082 103.085 66.7221 104.303 65.236C105.521 63.7498 106.787 62.283 108.101 60.8355C108.279 60.6348 108.457 60.4387 108.644 60.2425L110.548 58.1649C110.641 58.0668 110.722 57.9776 110.811 57.8885C111.038 57.6432 111.257 57.398 111.502 57.1617C112.522 56.0783 113.57 55.0172 114.622 53.9606C119.975 48.6272 125.679 43.6569 131.694 39.0828C131.93 38.8955 132.171 38.7172 132.407 38.5389C133.539 37.6873 134.689 36.8447 135.839 36.0154C142.165 31.4765 148.777 27.3513 155.634 23.6655C156.107 23.3936 156.588 23.1394 157.074 22.8898C163.222 19.6365 169.545 16.7252 176.013 14.1691C179.539 12.7736 183.145 11.4628 186.774 10.2635C189.189 9.46989 191.614 8.71642 194.07 8.00752C197.91 6.90183 201.776 5.91058 205.668 5.03375C217.137 2.45983 228.804 0.869829 240.543 0.281062C244.109 0.0997521 247.715 0.00612626 251.361 0.000181683C268.954 -0.0231154 286.479 2.1942 303.513 6.59866C303.689 6.86487 303.93 7.08189 304.213 7.2293C304.496 7.37671 304.812 7.44967 305.131 7.4413H306.628C307.279 7.61964 307.925 7.79798 308.576 7.98523C312.21 9.03148 315.793 10.1743 319.323 11.4138L320.214 11.7348C328.928 14.8338 337.405 18.5589 345.581 22.8809C352.952 26.7675 360.048 31.1529 366.821 36.0065C367.864 36.7555 368.892 37.5105 369.905 38.2714C371.136 37.4837 372.387 36.7287 373.658 36.0065C378.57 33.2085 383.787 30.9841 389.206 29.3768C400.536 26.0232 412.523 25.5543 424.08 28.0125C438.901 31.1557 452.318 38.958 463.154 50.055C467.566 54.5954 471.493 59.583 474.872 64.9372C475.118 65.3207 475.363 65.7085 475.599 66.1009C478.503 70.8397 480.999 75.8169 483.061 80.9787C483.136 81.1704 483.212 81.3487 483.279 81.536C485.182 86.3694 486.717 91.3399 487.87 96.4048C487.924 96.6634 487.986 96.9176 488.04 97.1762C489.118 102.078 489.851 107.049 490.233 112.054C490.233 112.232 490.233 112.415 490.268 112.602C490.455 115.191 490.551 117.807 490.553 120.449C490.553 122.812 490.473 125.157 490.326 127.485C490.326 127.739 490.29 128.002 490.268 128.265C490.228 128.938 490.17 129.602 490.112 130.28C493.516 133.027 496.703 136.033 499.642 139.273C500.941 140.69 502.198 142.162 503.413 143.687C507.115 148.327 510.369 153.309 513.13 158.564C520.668 172.796 525 189.537 525 207.455Z" fill="#222222"/>
<path opacity="0.1" d="M474.631 314.649C474.631 317.694 464.143 320.548 445.841 323H99.6625C84.2604 323.033 69.1242 318.986 55.7929 311.27L55.5879 311.154C60.8476 309.237 70.3418 307.449 83.2638 305.835L83.8433 305.764C89.6379 305.055 96.1145 304.382 103.193 303.744C103.371 303.744 103.554 303.717 103.732 303.695C109.348 303.196 115.323 302.727 121.655 302.291C121.856 302.291 122.052 302.255 122.253 302.246C124.695 302.071 127.188 301.904 129.732 301.747L130.713 301.684C149.233 300.534 170.285 299.615 193.116 299.009H193.143C196.34 298.92 199.572 298.841 202.838 298.773C206.469 298.687 210.145 298.611 213.865 298.545C216.705 298.483 219.58 298.438 222.464 298.394H222.53C235.542 298.198 248.985 298.1 262.732 298.1C296.724 298.1 328.853 298.719 357.322 299.834H357.402C361.779 300.003 366.076 300.191 370.266 300.382L373.832 300.552C378.56 300.778 383.166 301.02 387.65 301.278C440.381 304.279 474.631 309.152 474.631 314.649Z" fill="#6C63FF"/>
<g opacity="0.2">
<path d="M303.227 296.052C303.212 296.533 303.157 297.012 303.062 297.484C299.959 296.99 296.839 296.544 293.701 296.146C293.701 296.021 293.701 295.892 293.701 295.763C293.73 294.426 294.115 293.121 294.816 291.982C295.734 290.528 297.129 289.619 298.667 289.668C300.205 289.717 301.537 290.711 302.362 292.214C302.986 293.394 303.284 294.719 303.227 296.052Z" fill="#3F3D56"/>
<path d="M303.483 288.433C303.592 284.985 301.546 282.123 298.913 282.039C296.281 281.956 294.058 284.684 293.949 288.132C293.84 291.58 295.886 294.442 298.519 294.526C301.152 294.609 303.374 291.881 303.483 288.433Z" fill="#3F3D56"/>
<path d="M303.726 280.8C303.835 277.352 301.789 274.49 299.157 274.407C296.524 274.323 294.301 277.051 294.192 280.499C294.083 283.947 296.129 286.81 298.762 286.893C301.395 286.976 303.617 284.248 303.726 280.8Z" fill="#3F3D56"/>
<path d="M303.965 273.168C304.074 269.72 302.028 266.857 299.395 266.774C296.762 266.691 294.54 269.418 294.431 272.866C294.322 276.314 296.368 279.177 299 279.26C301.633 279.343 303.856 276.616 303.965 273.168Z" fill="#3F3D56"/>
<path d="M304.204 265.535C304.313 262.087 302.267 259.224 299.634 259.141C297.001 259.058 294.779 261.785 294.67 265.233C294.561 268.681 296.607 271.544 299.24 271.627C301.872 271.71 304.095 268.983 304.204 265.535Z" fill="#3F3D56"/>
<path d="M283.213 212.573C282.586 211.723 282.02 210.829 281.52 209.898L294.116 208.235L280.557 207.909C279.347 205.038 278.735 201.951 278.759 198.835C278.782 195.72 279.441 192.642 280.695 189.79L298.578 199.799L282.197 186.941C283.85 184.268 286.035 181.964 288.618 180.174C291.201 178.383 294.125 177.145 297.207 176.535C300.29 175.926 303.465 175.959 306.535 176.632C309.604 177.305 312.502 178.604 315.047 180.448C317.592 182.292 319.729 184.641 321.326 187.348C322.922 190.055 323.944 193.062 324.326 196.182C324.709 199.301 324.444 202.466 323.549 205.479C322.653 208.492 321.146 211.288 319.122 213.692C320.098 215.014 320.928 216.439 321.596 217.941L305.063 225.877L322.594 220.602C323.698 224.246 323.876 228.108 323.112 231.837C322.348 235.567 320.665 239.047 318.217 241.963C320.762 245.417 322.285 249.518 322.609 253.796C322.934 258.075 322.049 262.359 320.054 266.157C318.059 269.956 315.036 273.117 311.33 275.278C307.624 277.44 303.385 278.514 299.097 278.379C294.809 278.244 290.646 276.904 287.084 274.514C283.521 272.123 280.703 268.778 278.952 264.861C277.2 260.944 276.586 256.613 277.18 252.364C277.774 248.114 279.551 244.117 282.309 240.83C279.268 236.702 277.702 231.672 277.864 226.547C278.026 221.422 279.905 216.501 283.2 212.573H283.213Z" fill="#6C63FF"/>
<path opacity="0.1" d="M323.566 227.99C323.41 233.118 321.525 238.042 318.217 241.963C320.762 245.417 322.285 249.518 322.609 253.796C322.934 258.075 322.049 262.359 320.054 266.158C318.059 269.956 315.036 273.117 311.33 275.278C307.624 277.44 303.385 278.514 299.097 278.379C294.809 278.244 290.646 276.904 287.084 274.514C283.521 272.123 280.703 268.778 278.952 264.861C277.2 260.944 276.586 256.613 277.18 252.364C277.774 248.114 279.551 244.117 282.309 240.83C279.38 236.849 323.646 225.426 323.566 227.99Z" fill="black"/>
</g>
<g opacity="0.2">
<path d="M235.475 296.052C235.46 296.533 235.405 297.012 235.31 297.484C232.207 296.99 229.087 296.544 225.949 296.146C225.949 296.021 225.949 295.892 225.949 295.763C225.978 294.426 226.363 293.121 227.064 291.982C227.982 290.528 229.377 289.619 230.915 289.668C232.453 289.717 233.785 290.711 234.61 292.214C235.234 293.394 235.532 294.719 235.475 296.052Z" fill="#3F3D56"/>
<path d="M235.726 288.435C235.835 284.987 233.789 282.125 231.157 282.041C228.524 281.958 226.301 284.686 226.192 288.134C226.083 291.582 228.129 294.444 230.762 294.528C233.395 294.611 235.617 291.883 235.726 288.435Z" fill="#3F3D56"/>
<path d="M235.97 280.802C236.078 277.354 234.033 274.492 231.4 274.409C228.767 274.325 226.544 277.053 226.436 280.501C226.327 283.949 228.373 286.812 231.005 286.895C233.638 286.978 235.861 284.25 235.97 280.802Z" fill="#3F3D56"/>
<path d="M236.208 273.17C236.317 269.722 234.271 266.859 231.638 266.776C229.005 266.693 226.783 269.42 226.674 272.868C226.565 276.316 228.611 279.179 231.244 279.262C233.876 279.345 236.099 276.618 236.208 273.17Z" fill="#3F3D56"/>
<path d="M236.447 265.537C236.556 262.089 234.51 259.226 231.877 259.143C229.245 259.06 227.022 261.787 226.913 265.235C226.804 268.683 228.85 271.546 231.483 271.629C234.116 271.712 236.338 268.985 236.447 265.537Z" fill="#3F3D56"/>
<path d="M215.461 212.573C214.834 211.723 214.268 210.829 213.768 209.898L226.364 208.235L212.805 207.909C211.595 205.038 210.983 201.951 211.007 198.835C211.03 195.72 211.689 192.642 212.943 189.79L230.826 199.799L214.445 186.941C216.098 184.268 218.283 181.964 220.866 180.174C223.449 178.383 226.373 177.145 229.455 176.535C232.538 175.926 235.713 175.959 238.783 176.632C241.852 177.305 244.75 178.604 247.295 180.448C249.84 182.292 251.977 184.641 253.574 187.348C255.17 190.055 256.192 193.062 256.574 196.182C256.957 199.301 256.692 202.466 255.797 205.479C254.901 208.492 253.394 211.288 251.37 213.692C252.346 215.014 253.176 216.439 253.844 217.941L237.312 225.877L254.842 220.602C255.946 224.246 256.124 228.108 255.36 231.837C254.596 235.567 252.913 239.047 250.465 241.963C253.011 245.417 254.533 249.518 254.857 253.796C255.182 258.075 254.297 262.359 252.302 266.157C250.307 269.956 247.284 273.117 243.578 275.278C239.872 277.44 235.633 278.514 231.345 278.379C227.057 278.244 222.894 276.904 219.332 274.514C215.769 272.123 212.951 268.778 211.2 264.861C209.448 260.944 208.834 256.613 209.428 252.364C210.022 248.114 211.799 244.117 214.557 240.83C211.516 236.702 209.95 231.672 210.112 226.547C210.274 221.422 212.153 216.501 215.448 212.573H215.461Z" fill="#6C63FF"/>
<path opacity="0.1" d="M255.814 227.99C255.658 233.118 253.773 238.042 250.465 241.963C253.011 245.417 254.533 249.518 254.857 253.796C255.182 258.075 254.297 262.359 252.302 266.158C250.307 269.956 247.284 273.117 243.578 275.278C239.872 277.44 235.633 278.514 231.345 278.379C227.057 278.244 222.894 276.904 219.332 274.514C215.769 272.123 212.951 268.778 211.2 264.861C209.448 260.944 208.834 256.613 209.428 252.364C210.022 248.114 211.799 244.117 214.557 240.83C211.628 236.849 255.894 225.426 255.814 227.99Z" fill="black"/>
</g>
<g opacity="0.2">
<path d="M420.545 300.932C420.511 301.843 420.402 302.749 420.22 303.643C414.247 302.688 408.231 301.835 402.172 301.083C402.172 300.843 402.172 300.597 402.172 300.348C402.228 297.773 402.97 295.26 404.32 293.067C406.103 290.272 408.778 288.52 411.733 288.609C414.688 288.698 417.26 290.619 418.865 293.513C420.075 295.792 420.655 298.353 420.545 300.932Z" fill="#3F3D56"/>
<path d="M421.03 286.253C421.24 279.613 417.299 274.1 412.228 273.94C407.157 273.78 402.876 279.032 402.666 285.672C402.456 292.313 406.397 297.825 411.468 297.986C416.539 298.146 420.82 292.893 421.03 286.253Z" fill="#3F3D56"/>
<path d="M421.494 271.558C421.704 264.918 417.763 259.405 412.692 259.245C407.621 259.084 403.34 264.337 403.13 270.977C402.92 277.617 406.861 283.13 411.932 283.29C417.003 283.451 421.284 278.198 421.494 271.558Z" fill="#3F3D56"/>
<path d="M421.961 256.862C422.171 250.222 418.23 244.71 413.159 244.549C408.087 244.389 403.806 249.642 403.597 256.282C403.387 262.922 407.328 268.435 412.399 268.595C417.47 268.755 421.751 263.502 421.961 256.862Z" fill="#3F3D56"/>
<path d="M421.902 241.499C422.101 234.856 418.15 229.347 413.076 229.195C408.003 229.042 403.728 234.304 403.529 240.948C403.329 247.591 407.281 253.1 412.355 253.252C417.428 253.404 421.703 248.142 421.902 241.499Z" fill="#3F3D56"/>
<path d="M382.011 140.223C380.808 138.586 379.72 136.868 378.753 135.082L403.001 131.881L376.903 131.252C374.572 125.726 373.392 119.782 373.437 113.784C373.481 107.786 374.749 101.861 377.162 96.3694L411.595 115.634L380.063 90.8811C383.251 85.7468 387.463 81.3243 392.435 77.8892C397.407 74.4541 403.032 72.0802 408.962 70.9152C414.891 69.7502 420.997 69.8192 426.898 71.1179C432.8 72.4166 438.371 74.9171 443.264 78.4637C448.157 82.0102 452.267 86.5268 455.338 91.7318C458.41 96.9369 460.377 102.719 461.116 108.718C461.855 114.716 461.352 120.803 459.636 126.598C457.921 132.394 455.03 137.774 451.145 142.403C453.023 144.951 454.621 147.693 455.91 150.584L424.08 165.872L457.827 155.707C459.954 162.713 460.3 170.139 458.834 177.313C457.369 184.486 454.138 191.181 449.434 196.791C454.333 203.441 457.262 211.335 457.886 219.572C458.511 227.808 456.806 236.054 452.966 243.367C449.126 250.68 443.306 256.764 436.172 260.925C429.037 265.085 420.877 267.153 412.623 266.893C404.368 266.633 396.354 264.054 389.496 259.453C382.638 254.851 377.213 248.412 373.841 240.872C370.469 233.332 369.287 224.995 370.429 216.814C371.571 208.633 374.992 200.939 380.3 194.611C374.449 186.665 371.437 176.982 371.747 167.118C372.058 157.254 375.672 147.781 382.011 140.218V140.223Z" fill="#6C63FF"/>
<path opacity="0.1" d="M459.703 169.898C459.411 179.764 455.799 189.243 449.451 196.8C454.35 203.45 457.279 211.344 457.904 219.581C458.529 227.817 456.824 236.063 452.984 243.376C449.143 250.689 443.324 256.773 436.189 260.934C429.055 265.094 420.894 267.162 412.64 266.902C404.386 266.641 396.372 264.063 389.514 259.462C382.656 254.86 377.23 248.421 373.859 240.881C370.487 233.341 369.304 225.003 370.446 216.823C371.588 208.642 375.009 200.948 380.317 194.62C374.638 186.947 459.859 164.962 459.703 169.898Z" fill="black"/>
</g>
<path d="M70.3467 301.715L75.0225 301.701H81.615L89.9503 166.263L172.497 28.4841L168.908 24.632V14.877L79.6359 163.071L70.3467 301.715Z" fill="#F1C0C0"/>
<path opacity="0.1" d="M75.5215 301.702H81.6147L89.9501 166.264L172.496 28.4849L168.908 24.6328L83.7632 164.2L75.5215 301.702Z" fill="black"/>
<path d="M56.5684 302.843L270.456 319.214L270.639 319.227L477.635 306.494L477.791 306.485V297.742L249.707 293.556L59.4166 293.373H58.0259L57.8744 294.354L56.5684 302.843Z" fill="#F1C0C0"/>
<path opacity="0.1" d="M56.5684 302.843L270.456 319.214L270.639 319.227L477.635 306.494L477.791 306.325V297.925H477.609L270.456 304.845L59.4166 293.373H59.3854L59.011 293.618L57.8744 294.354L56.5684 302.843Z" fill="black"/>
<path opacity="0.1" d="M56.5684 302.844L270.456 319.215V304.845L59.011 293.619L57.8744 294.355L56.5684 302.844Z" fill="black"/>
<path d="M168.882 24.4502L263.178 125.683L260.263 303.753L268.273 304.721L268.406 304.738H276.416L277.375 133.33L453.945 192.324L456.923 297.364L463.368 298.086L465.552 298.332L460.497 185.038L275.917 120.222L174.708 14.9805H168.882V24.4502Z" fill="#F1C0C0"/>
<path opacity="0.1" d="M276.647 130.053L277.374 133.33L453.945 192.324L456.922 297.364L463.367 298.087L458.313 190.139L276.647 130.053Z" fill="black"/>
<path opacity="0.1" d="M168.882 24.4502L263.178 125.683L260.263 303.753L268.273 304.721L270.457 119.856L168.882 14.9805V24.4502Z" fill="black"/>
<path d="M276.991 201.516L341.753 214.272L341.775 214.276L455.202 236.626L460.395 234.544L460.377 234.179L460.038 226.934L277.058 189.951L276.991 201.516Z" fill="#F1C0C0"/>
<path opacity="0.1" d="M341.774 214.277L455.202 236.627L460.394 234.545L460.377 234.18L341.774 214.277Z" fill="black"/>
<path d="M346.111 156.295L347.863 252.749L348.768 302.233L356.742 301.965L361.761 301.796L360.201 157.69L356.742 156.54L355.984 156.295H346.111Z" fill="#F1C0C0"/>
<path opacity="0.1" d="M346.183 156.273V156.296L347.863 252.749L348.768 302.234L356.742 301.966V156.273H346.183Z" fill="black"/>
<path d="M221.202 180.927C221.67 181.182 222.117 181.472 222.54 181.797C223.039 182.234 223.487 182.726 223.877 183.264C225.789 185.738 227.554 188.614 227.367 191.735C227.371 192.189 227.285 192.639 227.115 193.06C226.944 193.481 226.692 193.864 226.373 194.187C225.584 194.86 224.452 194.891 223.418 194.891C222.294 194.891 221.113 194.891 220.141 194.312C219.17 193.732 218.359 192.604 217.209 192.631C217.046 192.658 216.881 192.658 216.718 192.631C216.322 192.502 216.241 191.98 215.983 191.65C215.537 191.057 214.597 191.204 213.897 191.463C213.197 191.721 212.421 192.109 211.73 191.811C211.329 191.599 211.002 191.271 210.79 190.87C209.136 188.195 208.784 184.98 208.472 181.873C208.28 179.982 206.818 173.535 210.852 175.002C212.635 175.644 214.302 176.928 215.925 177.869L221.202 180.927Z" fill="#3F3D56"/>
<path d="M217.218 181.565C217.578 181.824 218.015 181.955 218.458 181.938C218.902 181.92 219.327 181.754 219.665 181.467C220.329 180.867 220.752 180.046 220.855 179.157C221.301 179.019 221.528 179.603 221.813 179.96C222.313 180.566 223.329 180.557 223.784 181.204C224.1 181.65 224.029 182.269 224.252 182.773C224.541 183.424 225.259 183.763 225.749 184.289C226.212 184.864 226.547 185.531 226.73 186.246L227.461 188.44C227.811 189.352 228.036 190.307 228.13 191.28C228.176 191.766 228.124 192.257 227.979 192.723C227.834 193.189 227.597 193.621 227.283 193.995C226.302 195.052 224.693 195.163 223.271 195.132C222.796 195.142 222.322 195.087 221.862 194.967C220.601 194.575 219.794 193.304 219.46 192.025C219.126 190.745 219.161 189.403 218.965 188.092C218.753 186.805 218.379 185.549 217.851 184.356C217.459 183.429 216.38 182.047 216.398 181.061C216.719 181.061 216.95 181.355 217.218 181.565Z" fill="#3F3D56"/>
<path d="M218.818 177.05C218.609 176.417 218.488 175.758 218.457 175.092C218.457 173.755 219.067 172.498 219.682 171.303L214.588 171.994C213.972 172.078 213.286 172.203 212.938 172.716C212.806 172.97 212.737 173.252 212.737 173.539C212.737 173.825 212.806 174.107 212.938 174.361C213.194 174.87 213.397 175.403 213.545 175.953C213.556 176.434 213.611 176.913 213.709 177.384C213.868 177.73 214.09 178.043 214.365 178.307C215.822 179.921 216.914 181.825 218.002 183.711C217.971 183.657 221.073 181.254 220.948 180.469C220.877 180.023 219.981 179.488 219.696 179.06C219.302 178.439 219.005 177.761 218.818 177.05Z" fill="#BE6F72"/>
<path d="M262.5 159.629V164.02L187.317 178.689L183.417 181.052H169.96V178.577L243.828 160.726L262.5 159.629Z" fill="#F1C0C0"/>
<path opacity="0.1" d="M262.5 164.021L187.317 178.69L183.417 181.053H169.96L244.376 165.123L262.5 164.021Z" fill="black"/>
<path d="M202.139 284.297C201.301 283.282 200.144 282.581 198.858 282.307C197.571 282.033 196.229 282.204 195.051 282.79C194.799 282.908 194.577 283.082 194.401 283.298C193.955 283.922 194.24 284.783 194.28 285.554C194.383 287.435 192.885 288.965 191.539 290.28C190.817 290.984 190.081 291.738 189.756 292.696C189.431 293.655 189.671 294.872 190.545 295.371C190.926 295.563 191.341 295.678 191.766 295.71C193.191 295.988 194.652 296.029 196.09 295.831C197.512 295.559 198.907 294.752 199.522 293.441C199.641 293.085 199.837 292.761 200.097 292.491C200.882 291.871 202.085 292.598 202.977 292.157C203.712 291.791 203.743 291.216 203.752 290.458C203.779 288.363 203.467 285.991 202.139 284.297Z" fill="#DB1E2F"/>
<path d="M212.836 284.217C213.384 285.661 213.46 287.235 213.532 288.778C213.572 289.669 213.598 290.624 213.117 291.377C212.636 292.13 211.695 292.527 210.795 292.715C208.936 293.098 206.783 292.737 205.584 291.261C204.666 290.133 204.474 288.586 204.644 287.124C204.786 285.924 205.089 284.52 204.229 283.668C204.006 283.441 203.716 283.281 203.511 283.035C203.066 282.491 203.137 281.671 203.378 281.002C203.691 280.363 203.926 279.688 204.077 278.992C204.113 278.662 210.113 279.223 210.665 279.495C211.419 279.865 211.303 280.485 211.53 281.234C211.847 282.277 212.453 283.218 212.836 284.217Z" fill="#DB1E2F"/>
<path d="M213.937 220.167C215.113 220.93 215.568 222.428 215.751 223.819C216.255 227.631 215.372 231.483 215.305 235.33C215.243 240.721 216.803 246.209 215.47 251.43C214.672 254.551 215.35 258.117 214.601 261.27C214.378 262.206 213.968 263.089 213.754 264.025C213.308 266.053 213.776 268.176 214.405 270.16C214.605 270.694 214.733 271.254 214.784 271.823C214.753 272.698 214.531 273.557 214.133 274.337L211.458 280.664C211.16 281.373 209.983 281.488 209.23 281.582C207.812 281.752 206.23 281.872 205.102 280.994C203.974 280.115 203.703 278.644 203.529 277.271C203.195 274.635 203.046 271.978 203.083 269.321C203.132 268.628 203.07 267.931 202.9 267.257C202.655 266.495 202.116 265.835 201.969 265.028C201.781 263.985 202.312 262.959 202.508 261.907C202.642 260.946 202.627 259.97 202.463 259.014C202.29 257.587 202.089 256.16 201.862 254.742C201.541 252.758 202 250.801 202.307 248.813C202.597 246.945 202.227 245.041 201.862 243.186C201.893 244.691 201.706 246.193 201.304 247.645C201.068 248.353 200.729 249.031 200.524 249.753C199.611 252.995 201.559 256.396 201.282 259.754C201.153 261.323 200.538 262.875 200.712 264.422C200.832 265.554 201.358 266.593 201.719 267.672C202.08 268.751 202.267 269.986 201.719 270.993C200.27 273.731 201.354 277.454 202.651 280.262C202.914 280.761 203.143 281.276 203.337 281.805C203.72 283.071 203.399 284.431 203.502 285.751C203.129 285.812 202.746 285.787 202.384 285.678C202.022 285.569 201.689 285.379 201.411 285.122C201.215 284.917 201.055 284.676 200.863 284.462C200.328 283.952 199.694 283.556 199 283.299C198.593 283.071 198.129 282.964 197.663 282.991C197.173 283.128 196.732 283.402 196.392 283.78C195.952 284.168 195.484 284.524 194.993 284.846C194.784 285.006 194.539 285.115 194.28 285.162C194.149 285.182 194.016 285.161 193.898 285.101C193.78 285.041 193.685 284.945 193.624 284.828C193.597 284.753 193.58 284.675 193.575 284.596C193.41 283.25 193.322 281.895 193.312 280.539C193.312 278.207 190.522 276.602 190.17 274.297C189.889 272.438 190.411 270.543 190.237 268.67C190.152 267.707 189.885 266.762 189.902 265.799C189.902 265.175 190.045 264.564 190.094 263.945C190.135 263.257 190.125 262.567 190.063 261.88L189.925 259.727C189.791 257.6 189.644 255.429 188.806 253.485C187.812 251.215 187.224 248.789 187.068 246.316C186.978 244.755 187.036 243.195 186.858 241.63C186.698 240.217 186.341 238.812 186.444 237.395C186.528 236.298 186.889 235.237 186.974 234.14C187.148 232.031 186.345 229.98 185.717 227.961C185.089 225.941 184.625 223.703 185.45 221.754C185.567 221.435 185.764 221.149 186.02 220.925C186.336 220.716 186.696 220.582 187.072 220.533C194.72 218.926 202.559 218.426 210.349 219.048C211.618 219.12 212.851 219.505 213.937 220.167Z" fill="#3F3D56"/>
<path d="M188.632 172.814C192.576 172.814 195.773 169.616 195.773 165.672C195.773 161.727 192.576 158.529 188.632 158.529C184.688 158.529 181.491 161.727 181.491 165.672C181.491 169.616 184.688 172.814 188.632 172.814Z" fill="#BE6F72"/>
<path d="M187.251 174.592C187.353 175 187.353 175.427 187.251 175.835C187.138 176.121 186.98 176.386 186.783 176.62C186.092 177.512 185.327 178.344 184.496 179.108C184.919 180.053 185.681 180.806 186.631 181.217C187.575 181.618 188.564 181.901 189.578 182.059C190.083 182.192 190.61 182.229 191.129 182.166C191.607 182.046 192.06 181.841 192.466 181.56L196.433 179.184C197.032 178.859 197.586 178.459 198.082 177.993C198.81 177.245 199.222 176.246 199.232 175.202C199.251 175.015 199.2 174.828 199.09 174.676C198.938 174.544 198.747 174.464 198.546 174.449C197.151 174.141 196.05 173.009 195.426 171.725C194.861 170.409 194.496 169.016 194.342 167.592L190.112 169.821C189.484 170.155 188.86 170.49 188.209 170.78C187.795 170.967 186.957 171.123 186.662 171.502C186.101 172.202 187.104 173.749 187.251 174.592Z" fill="#BE6F72"/>
<path d="M184.523 177.81C183.92 178.304 183.45 178.94 183.154 179.661C182.878 180.552 183.154 181.493 183.404 182.376C184.574 186.138 185.468 189.981 186.078 193.874C186.453 196.549 186.591 199.264 186.774 201.971C187.148 207.49 187.692 216.291 188.418 221.775C191.093 221.895 193.7 221.115 196.353 220.83C201.309 220.304 206.413 221.507 211.267 220.384C210.09 215.734 208.913 207.793 207.737 203.148C207.216 201.317 206.855 199.445 206.658 197.552C206.556 196.192 206.618 194.828 206.636 193.459C206.676 190.784 206.529 188.109 206.382 185.434C206.212 182.313 206.043 179.192 205.303 176.138C205.251 175.749 205.069 175.389 204.786 175.117C204.34 174.792 203.761 174.908 203.23 174.979C201.606 175.186 199.962 174.796 198.604 173.882C198.015 173.481 197.226 172.991 196.678 173.437C196.444 173.706 196.29 174.034 196.232 174.386C195.99 175.017 195.615 175.589 195.134 176.063C194.653 176.537 194.076 176.904 193.442 177.137C192.172 177.597 190.841 177.871 189.493 177.949C189.08 178.037 188.649 177.989 188.267 177.81C187.634 177.422 187.589 176.027 186.791 175.933C186.092 175.853 184.995 177.36 184.523 177.81Z" fill="#3F3D56"/>
<path d="M195.068 188.699C193.424 187.125 192.701 184.843 191.502 182.903C190.686 181.599 189.643 180.451 188.422 179.515C187.809 179.109 187.246 178.632 186.746 178.092C186.323 177.571 186.002 176.875 185.36 176.675C185.095 176.617 184.82 176.625 184.558 176.697C184.296 176.769 184.056 176.904 183.858 177.089C183.465 177.464 183.093 177.86 182.744 178.275C180.854 180.232 177.533 180.504 176.035 182.769C175.631 183.25 175.357 183.825 175.237 184.441C174.806 187.738 175.658 191.074 177.618 193.759C177.997 194.382 178.58 194.854 179.267 195.097C179.174 195.928 179.284 196.77 179.588 197.549C180.413 200.371 181.427 203.134 182.623 205.819C182.337 206.87 182.138 207.942 182.026 209.025C181.714 211.749 182.004 214.513 181.71 217.242C181.469 219.471 180.818 221.642 180.796 223.876C180.796 224.233 180.827 224.656 181.135 224.839C181.298 224.923 181.481 224.962 181.665 224.951L187.148 225.116C190.33 225.209 193.544 225.303 196.677 224.714C197.095 224.653 197.5 224.525 197.876 224.335C198.937 223.742 199.29 222.405 199.459 221.214C199.68 219.67 199.768 218.11 199.722 216.551C200.386 218.651 201.175 220.822 203.181 221.732C204.242 222.213 205.454 222.177 206.617 222.146C209.125 222.035 211.624 221.777 214.101 221.375C214.254 221.394 214.409 221.377 214.554 221.325C214.699 221.273 214.83 221.188 214.936 221.077C215.042 220.966 215.121 220.831 215.165 220.684C215.21 220.536 215.22 220.381 215.193 220.229L215.22 217.795C215.274 212.85 214.048 208.124 213.571 203.202C213.419 201.651 213.433 200.081 213.054 198.561C212.898 197.924 212.671 197.299 212.532 196.657C212.413 196.029 212.339 195.393 212.31 194.754L211.962 189.849C211.797 187.58 211.561 185.391 211.387 183.126C211.291 180.921 210.972 178.731 210.433 176.59C210.045 175.252 209.238 173.737 207.843 173.572C207.099 173.487 206.377 173.812 205.668 174.04C203.926 174.588 202.056 174.58 200.319 174.017C199.782 173.805 199.223 173.656 198.652 173.572C198.365 173.532 198.072 173.57 197.804 173.682C197.536 173.793 197.303 173.973 197.128 174.205C196.955 174.553 196.873 174.94 196.891 175.328C196.682 179.782 196.294 184.37 195.068 188.699Z" fill="#DB1E2F"/>
<path d="M187.897 188.831C185.842 186.665 183.733 184.458 181.086 183.08C180.043 182.536 178.857 182.126 177.703 182.331C176.548 182.536 175.474 183.539 175.527 184.712C175.563 185.439 176.004 186.081 176.142 186.794C176.303 187.597 176.071 188.453 176.321 189.228C176.524 189.739 176.827 190.205 177.212 190.597L180.368 194.338C181.705 195.898 183.042 197.481 184.763 198.56C186.484 199.639 188.712 200.143 190.602 199.376C191.947 198.751 193.065 197.724 193.803 196.438C194.587 195.189 195.14 193.825 195.875 192.536C197.02 190.478 198.53 188.645 200.333 187.128C199.406 186.888 198.242 186.549 197.658 185.791C197.492 185.55 197.35 185.293 197.235 185.024L196.513 183.464C196.267 183.451 196.022 183.489 195.791 183.576C195.561 183.662 195.352 183.796 195.175 183.967C194.866 184.325 194.534 184.663 194.181 184.979C193.553 185.452 192.702 185.581 192.131 186.121C191.91 186.352 191.71 186.603 191.534 186.87C191.102 187.437 190.555 187.906 189.927 188.244C189.3 188.582 188.608 188.783 187.897 188.831Z" fill="#3F3D56"/>
<path d="M200.498 179.51C202.045 176.688 201.974 173.304 202.415 170.116C202.463 169.272 202.759 168.461 203.266 167.785C204.158 166.777 205.731 166.764 207.077 166.893C207.474 166.937 207.969 167.125 207.946 167.522C207.915 167.664 207.846 167.795 207.746 167.901C206.441 169.585 205.674 171.623 205.544 173.75C206.244 174.236 207.327 173.237 208 173.75C208.446 174.124 208.241 174.865 207.973 175.4C207.352 176.639 206.712 177.87 206.052 179.091C205.525 180.168 204.839 181.159 204.015 182.029C203.449 182.573 202.785 183.001 202.21 183.536C200.873 184.789 200.066 186.559 198.684 187.781C198.567 187.907 198.409 187.988 198.238 188.008C198.062 187.995 197.897 187.921 197.77 187.798C197.08 187.237 196.507 186.544 196.085 185.761C195.559 184.789 195.64 184.504 196.469 183.817C198.02 182.591 199.531 181.276 200.498 179.51Z" fill="#BE6F72"/>
<path d="M185.311 186.916C185.579 187.08 185.909 187.268 186.203 187.13C186.323 187.057 186.425 186.958 186.502 186.84C187.011 186.16 187.436 185.42 187.767 184.637C187.824 184.527 187.856 184.405 187.861 184.281C187.861 183.995 187.607 183.786 187.371 183.621C186.105 182.814 184.744 182.167 183.319 181.695C182.142 181.249 180.912 180.861 179.664 180.972C179.195 181.004 178.737 181.13 178.318 181.343C177.899 181.556 177.528 181.852 177.226 182.212C176.334 183.358 177.827 183.705 178.763 184.12C180.93 185.105 183.274 185.676 185.311 186.916Z" fill="#DB1E2F"/>
<path opacity="0.1" d="M183.907 194.494C183.892 194.596 183.901 194.7 183.934 194.797C183.967 194.895 184.022 194.984 184.095 195.056C184.224 194.423 184.055 193.754 184.188 193.117C184.384 192.158 185.316 191.436 185.396 190.473C183.689 190.138 183.921 193.46 183.907 194.494Z" fill="black"/>
<path opacity="0.2" d="M262.5 159.629V164.02L244.376 165.122L243.828 160.726L262.5 159.629Z" fill="black"/>
<path d="M182.204 166.732C183.336 165.809 182.681 163.874 183.448 162.635C183.894 161.957 184.647 161.6 185.387 161.297C186.28 160.879 187.237 160.614 188.217 160.513C188.708 160.465 189.204 160.53 189.667 160.7C190.13 160.871 190.549 161.143 190.892 161.498C191.181 161.828 191.378 162.229 191.649 162.572C191.986 162.973 192.425 163.275 192.92 163.446C193.414 163.617 193.945 163.651 194.458 163.544C195.05 163.411 195.666 162.96 195.625 162.354C195.559 161.985 195.37 161.649 195.091 161.4L193.816 159.987C192.367 158.382 190.758 156.678 188.632 156.277C187.152 155.996 185.636 156.393 184.21 156.87C183.635 157.062 182.989 157.347 182.828 157.931C182.721 158.332 182.882 158.769 182.788 159.175C182.605 159.982 181.571 160.254 181.09 160.932C180.609 161.609 180.756 162.412 180.617 163.161C180.479 163.91 180.078 164.641 180.029 165.417C179.998 165.885 180.234 166.754 180.76 166.924C181.286 167.093 181.879 166.175 182.204 166.732Z" fill="#3F3D56"/>
<path d="M195.193 161.712C194.818 159.751 194.007 157.898 192.822 156.291C191.768 154.789 190.302 153.625 188.601 152.938C187.751 152.606 186.836 152.47 185.926 152.542C185.016 152.614 184.134 152.891 183.346 153.353C182.176 154.188 181.266 155.336 180.72 156.665C179.566 159.153 179.138 162.194 180.48 164.584C181.015 163.933 181.933 164.227 182.744 163.991C183.76 163.701 184.621 163.023 185.588 162.6C188.507 161.311 192.073 162.354 195.193 161.712Z" fill="#FED253"/>
<path opacity="0.1" d="M181.162 161.574C181.059 160.772 180.993 159.84 181.563 159.269C181.591 159.234 181.628 159.206 181.669 159.188C181.71 159.169 181.754 159.161 181.799 159.162C181.839 159.175 181.876 159.196 181.907 159.224C181.939 159.251 181.964 159.285 181.982 159.323C182.311 159.843 182.592 160.392 182.82 160.964C182.488 160.887 182.14 160.912 181.822 161.035C181.505 161.158 181.231 161.374 181.037 161.655" fill="black"/>
<path opacity="0.1" d="M191.579 159.308L191.418 157.716C191.392 157.585 191.403 157.449 191.449 157.324C191.517 157.219 191.62 157.143 191.74 157.11C191.861 157.077 191.989 157.09 192.1 157.146C192.319 157.267 192.5 157.448 192.622 157.667C192.993 158.237 193.301 158.845 193.54 159.482C192.822 159.344 192.083 159.353 191.369 159.509" fill="black"/>
<path opacity="0.1" d="M195.567 223.906V227.544L192.496 227.749H176.343V223.906H195.567Z" fill="black"/>
<path d="M195.568 223.908V227.751H176.343L125.271 163.759V160.736H135.977L195.568 223.908Z" fill="#F1C0C0"/>
<path opacity="0.1" d="M195.568 223.908V227.751H176.343L125.271 163.759V160.736H135.977L195.568 223.908Z" fill="black"/>
<path opacity="0.1" d="M195.568 223.908V227.751H176.343L125.271 163.759V160.736L176.62 223.908H195.568Z" fill="black"/>
<path d="M131.966 288.046C131.999 288.227 131.995 288.413 131.954 288.592C131.913 288.771 131.835 288.94 131.725 289.088C131.615 289.236 131.476 289.359 131.317 289.451C131.157 289.542 130.981 289.6 130.798 289.62C129.559 290.039 128.244 290.454 127.366 291.403C126.488 292.353 126.314 294.114 127.366 294.886C127.904 295.21 128.521 295.378 129.149 295.371C131.168 295.51 133.272 295.483 135.104 294.627C136.414 294.021 137.649 292.986 139.089 293.08C139.833 293.124 140.627 293.472 141.291 293.133C141.955 292.795 142.142 291.849 142.147 291.06C142.163 289.413 141.915 287.773 141.411 286.205C141.344 285.991 138.509 285.826 138.171 285.759L134.734 285.313C134.083 285.229 132.679 284.738 132.166 285.282C131.654 285.826 131.966 287.4 131.966 288.046Z" fill="#DB1E2F"/>
<path d="M152.474 276.918C152.619 277.721 152.855 278.504 153.178 279.254C153.655 280.467 154.266 281.755 155.433 282.344C156.494 282.874 157.796 282.682 158.874 282.179C159.325 281.992 159.719 281.693 160.02 281.309C160.368 280.703 160.523 280.004 160.466 279.307C160.466 277.582 160.363 275.799 159.574 274.265C158.897 272.927 157.716 271.777 157.698 270.297L153.637 271.082C153.42 271.102 153.213 271.184 153.04 271.318C152.911 271.453 152.822 271.621 152.781 271.804C152.348 273.472 152.243 275.209 152.474 276.918Z" fill="#DB1E2F"/>
<path d="M103.982 234.562C103.813 235.998 103.884 237.536 104.633 238.776C105.382 240.015 106.96 240.835 108.324 240.341C108.394 240.323 108.459 240.291 108.517 240.247C108.574 240.204 108.622 240.149 108.658 240.086C108.694 239.936 108.674 239.777 108.6 239.641C107.998 238.033 108.048 236.254 108.738 234.683C108.828 234.478 109.019 234.237 109.229 234.317C109.316 234.362 109.387 234.434 109.429 234.522C109.645 234.896 109.753 235.322 109.741 235.753C109.678 236.143 109.666 236.541 109.706 236.934C109.79 237.318 110.2 237.679 110.557 237.514C110.66 237.451 110.749 237.367 110.819 237.268C110.889 237.169 110.938 237.057 110.963 236.939C111.957 234.063 111.506 230.92 111.052 227.91C111.056 227.841 111.044 227.772 111.018 227.708C110.992 227.644 110.953 227.586 110.902 227.539C110.852 227.492 110.791 227.456 110.726 227.435C110.66 227.414 110.59 227.407 110.521 227.416C108.417 227.206 107.267 226.702 106.064 228.659C105.03 230.309 103.982 232.578 103.982 234.562Z" fill="#DB1E2F"/>
<path d="M128.578 227.247C127.954 229.842 127.325 232.468 127.285 235.134C127.296 236.795 127.421 238.453 127.66 240.096L128.128 243.957C128.288 245.259 128.444 246.557 128.671 247.845C128.816 248.509 128.896 249.185 128.908 249.865C128.864 250.534 128.758 251.199 128.591 251.849C128.311 253.214 128.154 254.602 128.123 255.995C128.074 258.224 128.35 260.453 128.524 262.683C128.871 267.125 128.819 271.589 128.368 276.022C128.188 277.219 128.448 278.44 129.099 279.46C129.364 279.781 129.581 280.139 129.746 280.521C130.08 281.542 129.3 282.563 129.099 283.611C128.971 284.428 129.172 285.262 129.659 285.931C130.145 286.6 130.877 287.048 131.694 287.177C135.259 287.601 138.923 287.409 142.137 289.041C142.476 288.051 141.736 286.928 142.075 285.92C142.289 285.296 142.877 284.89 143.278 284.364C143.817 283.562 144.086 282.61 144.045 281.644C144.061 280.385 143.837 279.133 143.385 277.957C143.006 276.976 142.463 276.009 142.494 274.957C142.494 274.44 142.677 273.896 142.467 273.419C142.323 273.145 142.128 272.901 141.892 272.701C140.56 271.241 139.741 269.386 139.561 267.418C139.387 265.464 139.45 263.497 139.748 261.559C139.966 259.713 140.261 257.765 141.433 256.325C140.889 251.958 141.209 247.527 142.373 243.284C142.489 242.892 142.672 242.437 143.073 242.343C143.233 242.327 143.394 242.349 143.543 242.408C143.691 242.467 143.824 242.561 143.929 242.682C144.629 243.338 144.963 244.287 145.266 245.197C145.601 246.182 145.939 247.234 145.685 248.242C145.578 248.688 145.364 249.08 145.24 249.508C144.968 250.368 145.016 251.297 145.373 252.125C145.547 252.428 145.657 252.763 145.694 253.11C145.653 253.409 145.562 253.698 145.427 253.966C145.261 254.494 145.209 255.051 145.273 255.6C145.336 256.149 145.515 256.679 145.797 257.154C146.365 258.101 147.066 258.961 147.878 259.709C147.49 261.42 147.591 263.206 148.168 264.863C148.21 264.938 148.236 265.02 148.246 265.105C148.256 265.189 148.249 265.276 148.226 265.358C148.146 265.527 147.941 265.59 147.78 265.71C147.334 266.076 147.611 266.767 147.909 267.244C148.728 268.553 149.632 269.807 150.615 270.998C151.507 272.063 151.426 274.119 152.755 274.502C153.313 274.623 153.89 274.623 154.448 274.502C155.759 274.301 157.221 273.922 157.863 272.763C158.126 272.286 158.233 271.707 158.643 271.35C159.053 270.993 159.583 270.931 159.811 270.503C160.038 270.075 159.784 269.513 159.86 269.018C159.936 268.523 160.368 268.126 160.506 267.605C160.836 266.401 159.432 265.411 159.24 264.181C158.964 262.397 161.21 261.06 161.117 259.276C160.921 255.402 160.796 251.51 160.595 247.635C160.343 244.165 160.308 240.682 160.488 237.207C160.644 235.045 160.934 232.78 160.141 230.769C158.999 227.934 155.853 226.342 152.808 226.039C149.764 225.736 146.728 226.458 143.711 226.931C138.702 227.703 133.614 227.809 128.578 227.247Z" fill="#3F3D56"/>
<path d="M137.626 184.632C141.57 184.632 144.767 181.435 144.767 177.49C144.767 173.545 141.57 170.348 137.626 170.348C133.682 170.348 130.485 173.545 130.485 177.49C130.485 181.435 133.682 184.632 137.626 184.632Z" fill="#FBBEBE"/>
<path d="M134.721 185.965C134.478 186.53 134.07 187.008 133.551 187.337C133.031 187.665 132.424 187.829 131.81 187.806C131.551 188.876 132.171 189.955 132.88 190.798C134.351 192.511 136.253 193.8 138.389 194.533C140.525 195.266 142.818 195.415 145.031 194.966C145.892 194.812 146.709 194.471 147.424 193.968C148.389 193.162 149.036 192.04 149.252 190.802C149.457 189.573 149.515 188.323 149.425 187.079C149.451 186.834 149.38 186.588 149.229 186.393C149.051 186.255 148.831 186.182 148.605 186.188C147.099 186.054 145.525 185.996 144.201 185.256C142.878 184.516 141.937 182.844 142.574 181.471C142.472 181.685 139.869 181.787 139.526 181.832C138.451 181.983 137.377 182.153 136.307 182.349C135.793 182.377 135.285 182.473 134.796 182.634C134.15 182.969 134.391 182.804 134.542 183.41C134.77 184.337 135.104 185.002 134.721 185.965Z" fill="#FBBEBE"/>
<path d="M140.153 190.308C139.192 190.319 138.232 190.213 137.296 189.991C136.351 189.771 135.518 189.215 134.951 188.426C134.622 187.927 134.408 187.298 133.882 187.018C133.021 186.572 132.041 187.325 131.354 188.016C130.729 188.698 130.005 189.281 129.206 189.746C128.252 190.25 127.138 190.428 126.237 191.021C125.534 191.553 124.93 192.205 124.454 192.947L118.138 201.552C115.602 205.012 113.396 208.726 111.136 212.377C109.179 215.538 108.154 219.176 106.678 222.587C106.561 222.796 106.513 223.036 106.54 223.274C106.594 223.505 106.874 223.693 107.071 223.559C106.406 224.219 106.99 225.342 106.834 226.27C106.657 226.919 106.287 227.498 105.773 227.933C106.755 227.805 107.751 227.851 108.715 228.071C109.712 228.353 110.653 228.806 111.497 229.408C112.036 229.324 111.987 228.365 112.388 228.008C112.629 227.799 112.985 227.826 113.302 227.763C114.492 227.531 114.965 226.1 115.878 225.293C116.641 224.62 117.719 224.402 118.526 223.768C119.836 222.739 120.117 220.906 120.804 219.386C121.388 218.097 122.306 216.974 122.818 215.654C123.153 214.798 123.313 213.871 123.79 213.082C124.552 211.806 125.988 211.129 127.356 210.518C128.221 210.13 129.139 209.729 130.071 209.791C130.022 211.864 129.759 213.906 130.209 215.931C130.365 216.644 130.583 217.339 130.77 218.048C131.622 221.241 131.822 224.566 131.863 227.857C133.91 227.388 136.002 227.137 138.103 227.108C139.757 227.059 141.406 227.273 143.059 227.242C145.021 227.206 146.96 226.827 148.921 226.693C150.882 226.559 152.933 226.693 154.667 227.585C154.526 224.759 154.605 221.927 154.903 219.114L155.375 214.682C155.482 213.395 155.68 212.116 155.968 210.857C156.227 209.84 156.601 208.859 156.886 207.847C157.889 204.281 157.706 200.473 157.515 196.759C157.417 194.851 156.681 192.974 155.817 191.275C155.504 190.644 155.146 190.037 154.747 189.456C153.702 188.016 152.309 186.864 150.699 186.108C149.089 185.352 147.313 185.016 145.538 185.132C145.311 185.139 145.087 185.187 144.878 185.274C144.502 185.515 144.208 185.865 144.036 186.277C143.113 187.935 141.775 189.324 140.153 190.308Z" fill="#3F3D56"/>
<path d="M131.346 179.857C131.547 179.411 132.086 179.246 132.416 178.89C133.049 178.212 132.763 177.129 132.861 176.215C133.022 174.877 134.132 173.758 135.402 173.281C136.698 172.865 138.076 172.778 139.414 173.027C140.058 173.074 140.68 173.281 141.224 173.629C141.455 173.798 141.669 174.017 141.888 174.173C142.286 174.413 142.762 174.489 143.215 174.383C143.668 174.277 144.062 173.999 144.312 173.606C142.735 171.707 140.987 169.701 138.589 169.117C137.767 168.949 136.928 168.87 136.089 168.881C134.979 168.858 133.833 168.84 132.808 169.264C131.413 169.839 130.432 171.163 129.928 172.59C129.488 174.036 129.252 175.537 129.229 177.048C129.137 178.057 129.137 179.072 129.229 180.08C129.401 181.457 129.913 182.77 130.717 183.901C130.826 184.077 130.98 184.22 131.163 184.316C133.196 185.207 131.181 180.227 131.346 179.857Z" fill="#3F3D56"/>
<path d="M144.081 172.505C143.835 170.405 142.338 168.671 140.747 167.276C139.464 166.066 137.936 165.146 136.267 164.578C134.586 164.083 132.652 164.19 131.212 165.194C130.053 166.001 129.318 167.285 128.752 168.578C128.008 170.103 127.64 171.785 127.677 173.482C127.789 175.167 128.609 176.875 130.071 177.726C130.597 176.95 131.511 176.549 132.389 176.233C136.216 174.78 140.119 173.536 144.081 172.505Z" fill="#FED253"/>
<path opacity="0.1" d="M130.561 171.631C130.704 171.631 130.797 171.778 130.869 171.899C131.231 172.464 131.543 173.061 131.8 173.682C131.279 173.793 130.383 173.918 130.124 173.459C129.986 173.227 130.151 171.609 130.561 171.631Z" fill="black"/>
<path opacity="0.1" d="M140.72 170.623C140.613 170.726 140.488 170.516 140.488 170.365V168.635C140.485 168.587 140.496 168.539 140.519 168.497C140.537 168.476 140.56 168.458 140.585 168.446C140.611 168.434 140.638 168.427 140.666 168.425C141.027 168.385 141.326 168.693 141.558 168.987C141.909 169.464 142.215 169.973 142.471 170.508L140.586 170.45" fill="black"/>
<path d="M164.25 199.269C164.66 198.88 165.098 198.521 165.561 198.195C166.795 197.37 168.289 197.044 169.675 196.518C171.061 195.992 172.47 195.141 173.009 193.758C173.279 192.894 173.367 191.983 173.268 191.083C173.281 190.707 173.214 190.331 173.071 189.982C172.902 189.674 172.66 189.411 172.367 189.215C170.486 187.824 167.963 187.713 165.628 187.855C160.478 188.175 155.431 189.435 150.735 191.574C150.487 191.656 150.27 191.811 150.111 192.02C150.02 192.213 149.979 192.426 149.991 192.639C149.908 193.954 150.079 195.273 150.495 196.523C151.11 198.11 152.376 199.389 152.906 201.008C153.147 201.735 153.227 202.506 153.437 203.237C153.609 203.992 154.055 204.656 154.689 205.101C156.45 206.153 158.112 204.74 159.334 203.643L164.25 199.269Z" fill="#3F3D56"/>
<path d="M141.193 205.444L138.933 200.513C138.601 199.829 138.315 199.125 138.077 198.404C137.818 197.543 137.694 196.652 137.453 195.787C136.659 192.906 134.658 190.508 133.682 187.686C133.62 187.431 133.494 187.196 133.316 187.004C133.174 186.903 133.011 186.834 132.839 186.804C132.668 186.773 132.491 186.78 132.322 186.825C130.958 187.061 129.893 188.1 128.645 188.689C128.066 188.956 127.442 189.135 126.862 189.442C126.572 189.579 126.316 189.778 126.11 190.023C125.904 190.268 125.753 190.555 125.668 190.864C125.529 191.547 125.868 192.202 126.153 192.866C127.366 195.604 127.642 198.662 127.696 201.658C127.736 203.674 127.633 205.836 126.443 207.454C124.157 210.575 125.619 215.159 126.474 218.935C126.577 219.381 126.697 219.862 126.769 220.335C126.844 220.926 126.878 221.522 126.871 222.118C126.871 224.12 126.76 226.184 125.922 227.999C126.749 228.439 127.661 228.697 128.596 228.757C131.184 229.087 133.783 229.318 136.392 229.452C137.209 229.529 138.034 229.487 138.839 229.327C139.796 229.069 140.639 228.499 141.235 227.708C141.832 226.916 142.148 225.949 142.133 224.958C142.276 226.193 142.539 227.535 143.435 228.391C144.331 229.247 145.637 229.376 146.854 229.443C150.288 229.626 153.731 229.529 157.15 229.154C157.368 229.144 157.583 229.094 157.783 229.006C158.443 228.676 158.478 227.767 158.425 227.036C158.327 225.667 158.224 224.298 158.059 222.938C157.92 222.072 157.848 221.195 157.845 220.317C157.913 219.414 158.063 218.518 158.291 217.642C158.888 214.86 159.361 212.02 159.16 209.171C159.081 208.477 159.053 207.778 159.076 207.08C159.192 205.506 160.021 204.008 159.865 202.443C159.419 197.842 159.058 193.12 157.774 188.68C157.542 187.886 157.248 187.035 156.557 186.58C155.666 185.983 154.413 186.295 153.393 185.916C152.914 185.693 152.458 185.422 152.033 185.109C151.109 184.531 150.051 184.205 148.962 184.163C148.142 184.132 147.228 184.315 146.733 184.975C146.504 185.346 146.352 185.76 146.287 186.192C145.641 188.912 144.883 191.6 144.126 194.289L143.399 196.866L141.451 203.785C141.259 204.521 141.389 204.748 141.193 205.444Z" fill="#DB1E2F"/>
<path d="M152.59 178.449L195.707 223.769V227.612H176.482L144.081 185.315" fill="#F1C0C0"/>
<path opacity="0.1" d="M152.59 178.449L195.707 223.769V227.612H176.482L144.081 185.315" fill="black"/>
<path opacity="0.1" d="M144.767 184.717L144.906 184.766L176.758 223.768H195.707V227.611H176.482L144.081 185.314L144.767 184.717Z" fill="black"/>
<path d="M149.728 185.672C148.168 186.354 146.434 187.228 145.966 188.868C145.873 189.156 145.853 189.463 145.908 189.76C146.022 190.11 146.239 190.417 146.531 190.641C146.823 190.864 147.176 190.994 147.544 191.013C148.278 191.031 149.008 190.897 149.688 190.621L158.892 187.58C159.142 187.5 159.427 187.379 159.49 187.134C159.506 186.98 159.474 186.824 159.4 186.688C159.115 185.993 158.834 184.571 158.237 184.085C157.747 183.692 156.775 183.83 156.182 183.839C153.9 183.857 151.756 184.78 149.728 185.672Z" fill="#DB1E2F"/>
<path d="M157.934 187.941C159.485 187.937 161.027 188.176 162.503 188.65C163.986 189.132 165.3 190.029 166.288 191.236C166.575 191.573 166.78 191.973 166.885 192.404C166.974 192.85 168.427 193.118 168.106 193.421C169.082 193.265 168.851 193.724 169.84 193.715C170.83 193.706 171.899 193.452 172.492 192.663C172.904 192.015 173.088 191.247 173.014 190.483C173.027 189.953 172.926 189.427 172.72 188.94C172.274 188.004 171.249 187.5 170.304 187.067L162.343 183.425C161.881 183.179 161.385 183.003 160.872 182.903C160.44 182.862 160.004 182.873 159.575 182.934L155.969 183.349C156.757 183.86 157.399 184.567 157.832 185.401C158.264 186.235 158.471 187.167 158.434 188.106" fill="#3F3D56"/>
<path d="M294.997 119.956C293.772 119.534 292.697 118.944 291.774 118.186C290.871 117.418 290.161 116.531 289.644 115.524C289.128 114.517 288.823 113.439 288.728 112.289C288.648 111.145 288.814 109.975 289.225 108.78C289.637 107.585 290.226 106.561 290.994 105.708C291.776 104.861 292.681 104.199 293.708 103.724C294.749 103.253 295.86 103.001 297.039 102.967C298.224 102.918 299.436 103.107 300.677 103.535C302.054 104.009 303.211 104.678 304.148 105.542C305.106 106.397 305.805 107.415 306.243 108.599L303.133 109.965C302.802 109.157 302.356 108.487 301.795 107.955C301.238 107.408 300.567 106.999 299.78 106.729C299.039 106.473 298.316 106.36 297.613 106.388C296.909 106.417 296.252 106.58 295.642 106.878C295.032 107.175 294.492 107.59 294.021 108.121C293.565 108.658 293.207 109.305 292.947 110.061C292.686 110.818 292.57 111.548 292.599 112.252C292.642 112.96 292.813 113.62 293.111 114.23C293.408 114.84 293.825 115.373 294.362 115.829C294.899 116.284 295.538 116.64 296.28 116.895C297.066 117.166 297.845 117.264 298.614 117.191C299.389 117.103 300.159 116.834 300.922 116.387L302.532 119.378C301.458 120.04 300.278 120.421 298.991 120.519C297.72 120.623 296.389 120.435 294.997 119.956ZM309.208 124.748C307.907 124.3 306.843 123.629 306.017 122.735C305.206 121.847 304.667 120.832 304.4 119.691C304.153 118.54 304.238 117.359 304.655 116.149C305.077 114.924 305.737 113.941 306.635 113.201C307.553 112.451 308.602 111.983 309.783 111.797C310.984 111.602 312.235 111.728 313.536 112.176C314.822 112.619 315.878 113.287 316.704 114.181C317.536 115.059 318.077 116.066 318.329 117.202C318.581 118.338 318.493 119.526 318.066 120.767C317.65 121.977 316.99 122.96 316.087 123.715C315.189 124.455 314.139 124.923 312.938 125.118C311.737 125.314 310.494 125.19 309.208 124.748ZM310.208 121.843C310.798 122.046 311.374 122.092 311.937 121.981C312.5 121.871 313.003 121.612 313.447 121.207C313.897 120.786 314.241 120.228 314.481 119.532C314.726 118.821 314.798 118.169 314.697 117.576C314.597 116.983 314.359 116.47 313.984 116.036C313.609 115.602 313.126 115.284 312.536 115.081C311.946 114.877 311.37 114.831 310.807 114.942C310.244 115.053 309.733 115.309 309.274 115.709C308.83 116.114 308.485 116.672 308.24 117.384C308.001 118.079 307.929 118.731 308.024 119.34C308.139 119.938 308.385 120.454 308.76 120.888C309.135 121.321 309.618 121.64 310.208 121.843ZM338.232 120.679C339.2 121.013 339.987 121.504 340.593 122.152C341.219 122.791 341.606 123.584 341.754 124.532C341.921 125.47 341.792 126.559 341.365 127.799L338.958 134.788L335.418 133.57L337.637 127.125C337.976 126.142 338.022 125.345 337.775 124.735C337.528 124.126 337.033 123.693 336.292 123.438C335.778 123.261 335.275 123.223 334.783 123.325C334.296 123.411 333.859 123.649 333.47 124.04C333.082 124.431 332.763 124.99 332.513 125.716L330.403 131.843L326.863 130.624L329.082 124.179C329.421 123.196 329.466 122.399 329.219 121.79C328.988 121.185 328.501 120.755 327.76 120.5C327.245 120.323 326.742 120.285 326.251 120.387C325.764 120.473 325.326 120.711 324.938 121.102C324.55 121.493 324.23 122.052 323.98 122.778L321.871 128.905L318.331 127.686L322.534 115.477L325.916 116.642L324.767 119.977L324.468 118.783C325.178 118.097 325.991 117.674 326.909 117.517C327.846 117.349 328.815 117.437 329.813 117.78C330.933 118.166 331.809 118.789 332.443 119.651C333.098 120.502 333.361 121.557 333.232 122.816L332.101 122.046C332.838 121.233 333.749 120.701 334.834 120.449C335.934 120.201 337.067 120.278 338.232 120.679ZM342.131 135.881L346.335 123.672L349.875 124.891L345.671 137.1L342.131 135.881ZM348.691 122.58C348.04 122.356 347.576 121.985 347.298 121.466C347.02 120.947 346.977 120.408 347.169 119.848C347.362 119.288 347.728 118.889 348.267 118.652C348.805 118.414 349.4 118.408 350.05 118.632C350.701 118.855 351.168 119.219 351.451 119.723C351.74 120.212 351.788 120.736 351.595 121.296C351.392 121.886 351.019 122.307 350.475 122.56C349.951 122.802 349.357 122.809 348.691 122.58ZM360.643 128.396C361.611 128.73 362.406 129.223 363.027 129.877C363.668 130.521 364.07 131.319 364.233 132.272C364.401 133.21 364.271 134.299 363.844 135.539L361.437 142.529L357.897 141.31L360.116 134.865C360.455 133.882 360.486 133.08 360.208 132.46C359.946 131.845 359.422 131.402 358.635 131.131C358.076 130.939 357.527 130.885 356.99 130.971C356.473 131.047 356.003 131.283 355.579 131.678C355.17 132.079 354.835 132.658 354.575 133.414L352.497 139.45L348.957 138.231L353.16 126.023L356.541 127.187L355.377 130.568L355.093 129.328C355.813 128.662 356.657 128.251 357.625 128.093C358.593 127.936 359.599 128.037 360.643 128.396ZM368.898 150.225C367.748 149.829 366.686 149.302 365.71 148.645C364.745 148.008 364.003 147.287 363.485 146.483L365.767 144.426C366.136 145.026 366.672 145.583 367.375 146.096C368.088 146.629 368.831 147.029 369.602 147.295C370.858 147.727 371.862 147.76 372.614 147.393C373.382 147.031 373.956 146.298 374.336 145.193L374.969 143.355L376.251 140.37L377.268 137.268L378.174 134.636L381.533 135.792L378.032 145.958C377.251 148.228 376.085 149.696 374.536 150.364C372.986 151.032 371.106 150.985 368.898 150.225ZM370.135 144.863C369 144.473 368.055 143.876 367.298 143.075C366.563 142.263 366.066 141.322 365.808 140.252C365.571 139.172 365.656 138.042 366.062 136.862C366.473 135.666 367.103 134.724 367.949 134.034C368.816 133.334 369.787 132.898 370.862 132.727C371.951 132.561 373.063 132.673 374.198 133.063C375.226 133.418 376.061 133.942 376.702 134.636C377.348 135.316 377.739 136.17 377.876 137.198C378.018 138.212 377.854 139.399 377.385 140.761C376.922 142.107 376.32 143.143 375.579 143.87C374.843 144.581 374.009 145.013 373.077 145.166C372.144 145.318 371.163 145.218 370.135 144.863ZM371.838 142.201C372.458 142.415 373.052 142.484 373.62 142.408C374.192 142.318 374.693 142.093 375.122 141.732C375.55 141.372 375.866 140.897 376.069 140.307C376.278 139.702 376.321 139.133 376.2 138.601C376.084 138.053 375.826 137.575 375.425 137.166C375.029 136.743 374.521 136.424 373.901 136.21C373.281 135.997 372.684 135.935 372.112 136.026C371.544 136.101 371.039 136.316 370.595 136.671C370.172 137.016 369.856 137.491 369.647 138.096C369.444 138.686 369.401 139.255 369.517 139.803C369.648 140.355 369.911 140.844 370.307 141.268C370.707 141.676 371.218 141.987 371.838 142.201ZM391.095 152.944C390.052 152.584 389.087 152.117 388.202 151.542C387.338 150.956 386.691 150.378 386.261 149.807L388.316 147.672C388.756 148.213 389.315 148.727 389.994 149.214C390.692 149.691 391.412 150.058 392.154 150.313C392.971 150.594 393.579 150.694 393.98 150.612C394.395 150.535 394.663 150.323 394.783 149.975C394.882 149.687 394.819 149.429 394.593 149.199C394.388 148.959 394.079 148.725 393.667 148.499C393.254 148.272 392.796 148.03 392.293 147.772C391.804 147.519 391.316 147.241 390.828 146.938C390.346 146.619 389.929 146.256 389.579 145.848C389.229 145.439 388.993 144.969 388.872 144.436C388.766 143.909 388.833 143.298 389.072 142.602C389.338 141.83 389.792 141.225 390.434 140.786C391.091 140.352 391.9 140.115 392.862 140.074C393.829 140.017 394.902 140.193 396.082 140.599C396.914 140.885 397.73 141.268 398.53 141.746C399.33 142.225 399.957 142.737 400.412 143.283L398.365 145.395C397.895 144.844 397.378 144.404 396.815 144.075C396.271 143.735 395.72 143.469 395.16 143.277C394.374 143.006 393.762 142.914 393.326 143C392.89 143.087 392.615 143.297 392.5 143.63C392.396 143.932 392.447 144.204 392.652 144.443C392.872 144.688 393.186 144.932 393.593 145.174C394.001 145.416 394.449 145.663 394.937 145.916C395.446 146.158 395.941 146.439 396.424 146.758C396.906 147.076 397.315 147.437 397.65 147.84C398.006 148.233 398.244 148.696 398.365 149.228C398.492 149.746 398.435 150.352 398.195 151.048C397.935 151.805 397.476 152.4 396.819 152.833C396.167 153.252 395.353 153.479 394.376 153.515C393.414 153.556 392.321 153.366 391.095 152.944ZM404.853 157.681C403.552 157.233 402.488 156.562 401.662 155.668C400.851 154.78 400.312 153.765 400.045 152.624C399.798 151.473 399.883 150.292 400.3 149.082C400.722 147.857 401.382 146.874 402.28 146.134C403.198 145.384 404.247 144.916 405.428 144.731C406.629 144.535 407.88 144.661 409.181 145.109C410.467 145.552 411.523 146.22 412.349 147.114C413.181 147.992 413.722 149 413.974 150.135C414.226 151.271 414.139 152.46 413.711 153.7C413.295 154.91 412.635 155.893 411.732 156.648C410.834 157.388 409.784 157.856 408.583 158.052C407.382 158.247 406.139 158.124 404.853 157.681ZM405.853 154.776C406.443 154.979 407.019 155.026 407.582 154.915C408.145 154.804 408.648 154.546 409.092 154.14C409.542 153.72 409.886 153.161 410.126 152.466C410.371 151.754 410.443 151.102 410.343 150.509C410.242 149.916 410.004 149.403 409.629 148.969C409.254 148.535 408.771 148.217 408.181 148.014C407.591 147.811 407.015 147.765 406.452 147.875C405.889 147.986 405.378 148.242 404.919 148.642C404.475 149.047 404.13 149.606 403.886 150.317C403.646 151.013 403.574 151.665 403.669 152.273C403.784 152.871 404.03 153.387 404.405 153.821C404.78 154.255 405.263 154.573 405.853 154.776ZM419.722 162.801C418.421 162.353 417.358 161.682 416.532 160.789C415.721 159.9 415.182 158.885 414.915 157.744C414.668 156.593 414.753 155.413 415.17 154.202C415.592 152.977 416.252 151.994 417.15 151.254C418.068 150.504 419.117 150.036 420.298 149.851C421.499 149.655 422.75 149.781 424.051 150.229C425.337 150.672 426.393 151.34 427.219 152.234C428.05 153.112 428.592 154.12 428.844 155.256C429.096 156.391 429.008 157.58 428.581 158.82C428.164 160.03 427.505 161.013 426.601 161.768C425.704 162.508 424.654 162.976 423.453 163.172C422.252 163.367 421.008 163.244 419.722 162.801ZM420.723 159.896C421.313 160.099 421.889 160.146 422.452 160.035C423.014 159.924 423.518 159.666 423.962 159.26C424.412 158.84 424.756 158.281 424.996 157.586C425.241 156.875 425.313 156.223 425.212 155.63C425.112 155.037 424.874 154.523 424.499 154.089C424.124 153.656 423.641 153.337 423.051 153.134C422.461 152.931 421.885 152.885 421.322 152.995C420.759 153.106 420.248 153.362 419.789 153.762C419.345 154.168 419 154.726 418.755 155.437C418.516 156.133 418.443 156.785 418.539 157.393C418.654 157.991 418.9 158.507 419.275 158.941C419.65 159.375 420.133 159.693 420.723 159.896ZM440.532 155.904C441.5 156.238 442.295 156.731 442.916 157.385C443.557 158.029 443.959 158.827 444.122 159.78C444.29 160.718 444.16 161.807 443.733 163.047L441.326 170.037L437.786 168.818L440.005 162.373C440.344 161.39 440.375 160.588 440.097 159.968C439.835 159.353 439.311 158.91 438.524 158.639C437.964 158.447 437.416 158.393 436.879 158.479C436.362 158.555 435.892 158.791 435.468 159.186C435.059 159.587 434.724 160.165 434.464 160.922L432.386 166.958L428.845 165.739L433.049 153.531L436.43 154.695L435.266 158.076L434.982 156.836C435.702 156.17 436.546 155.759 437.514 155.601C438.482 155.444 439.488 155.545 440.532 155.904ZM445.812 171.784C445.206 171.576 444.755 171.192 444.457 170.632C444.179 170.063 444.152 169.453 444.376 168.802C444.6 168.152 444.992 167.703 445.551 167.455C446.13 167.198 446.722 167.173 447.327 167.382C447.948 167.595 448.399 167.979 448.682 168.534C448.97 169.073 449.002 169.668 448.778 170.318C448.554 170.969 448.158 171.433 447.588 171.711C447.024 171.973 446.432 171.998 445.812 171.784ZM451.751 173.829C451.145 173.621 450.694 173.237 450.396 172.677C450.118 172.108 450.091 171.498 450.315 170.847C450.539 170.197 450.931 169.748 451.49 169.5C452.069 169.243 452.661 169.218 453.266 169.427C453.887 169.64 454.338 170.024 454.621 170.579C454.909 171.118 454.941 171.713 454.717 172.363C454.493 173.014 454.097 173.478 453.527 173.756C452.963 174.018 452.371 174.043 451.751 173.829ZM457.69 175.874C457.084 175.666 456.633 175.282 456.335 174.722C456.057 174.153 456.03 173.543 456.254 172.892C456.478 172.242 456.87 171.793 457.429 171.545C458.008 171.288 458.6 171.263 459.205 171.472C459.826 171.685 460.277 172.069 460.56 172.624C460.848 173.163 460.881 173.758 460.657 174.408C460.433 175.059 460.036 175.523 459.466 175.8C458.902 176.063 458.31 176.088 457.69 175.874Z" fill="black"/>
</svg>
