<svg width="645" height="515" viewBox="0 0 645 515" fill="none" xmlns="http://www.w3.org/2000/svg">
<path d="M624.74 514.369H20.5064C15.133 514.369 9.97972 512.234 6.18019 508.433C2.38065 504.633 0.246094 499.479 0.246094 494.104C219.281 468.642 434.199 468.642 645 494.104C645 499.479 642.866 504.633 639.066 508.433C635.267 512.234 630.113 514.369 624.74 514.369Z" fill="#2F2E41"/>
<path d="M645 495.296L0.246094 494.103L74.9709 368.343L75.3284 367.747V90.5839C75.3281 87.2197 75.9904 83.8884 77.2774 80.7803C78.5644 77.6722 80.4509 74.8481 82.8291 72.4692C85.2074 70.0904 88.0309 68.2035 91.1384 66.9162C94.2458 65.6289 97.5763 64.9665 100.94 64.9668H540.731C544.095 64.9665 547.425 65.6289 550.533 66.9162C553.64 68.2035 556.463 70.0904 558.842 72.4692C561.22 74.8481 563.107 77.6722 564.394 80.7803C565.681 83.8884 566.343 87.2197 566.343 90.5839V369.654L645 495.296Z" fill="#3F3D56"/>
<path d="M100.355 82.8477C98.1434 82.8501 96.0229 83.7301 94.4589 85.2944C92.8949 86.8587 92.0152 88.9797 92.0127 91.192V343.906C92.0153 346.118 92.895 348.239 94.459 349.803C96.0229 351.368 98.1434 352.248 100.355 352.25H544.89C547.102 352.247 549.222 351.367 550.786 349.803C552.35 348.239 553.23 346.118 553.232 343.906V91.192C553.23 88.9797 552.35 86.8588 550.786 85.2945C549.222 83.7302 547.102 82.8502 544.89 82.8477H100.355Z" fill="white"/>
<path d="M238.364 293.663C237.379 293.663 236.505 293.857 235.741 294.244C234.989 294.62 234.352 295.168 233.832 295.888C233.323 296.607 232.936 297.476 232.67 298.494C232.404 299.512 232.271 300.658 232.271 301.931C232.271 303.646 232.482 305.113 232.902 306.33C233.334 307.536 233.998 308.461 234.895 309.103C235.791 309.733 236.948 310.049 238.364 310.049C239.349 310.049 240.334 309.938 241.319 309.717C242.315 309.495 243.395 309.18 244.557 308.771V313.087C243.483 313.53 242.426 313.845 241.386 314.033C240.345 314.232 239.178 314.332 237.883 314.332C235.382 314.332 233.323 313.817 231.707 312.788C230.102 311.748 228.912 310.298 228.138 308.438C227.363 306.568 226.976 304.388 226.976 301.897C226.976 300.06 227.225 298.378 227.723 296.851C228.221 295.323 228.951 294.001 229.914 292.883C230.877 291.765 232.067 290.902 233.483 290.293C234.9 289.684 236.527 289.38 238.364 289.38C239.571 289.38 240.777 289.535 241.983 289.845C243.201 290.144 244.363 290.559 245.47 291.09L243.81 295.273C242.902 294.842 241.989 294.465 241.07 294.145C240.152 293.824 239.25 293.663 238.364 293.663ZM266.205 304.687C266.205 306.236 265.995 307.608 265.574 308.804C265.165 309.999 264.562 311.012 263.765 311.842C262.979 312.661 262.027 313.281 260.909 313.701C259.802 314.122 258.552 314.332 257.157 314.332C255.851 314.332 254.65 314.122 253.555 313.701C252.47 313.281 251.524 312.661 250.716 311.842C249.919 311.012 249.299 309.999 248.856 308.804C248.425 307.608 248.209 306.236 248.209 304.687C248.209 302.628 248.574 300.885 249.305 299.457C250.035 298.029 251.076 296.945 252.426 296.203C253.776 295.462 255.386 295.091 257.257 295.091C258.994 295.091 260.533 295.462 261.872 296.203C263.222 296.945 264.279 298.029 265.043 299.457C265.818 300.885 266.205 302.628 266.205 304.687ZM253.372 304.687C253.372 305.904 253.505 306.928 253.771 307.758C254.036 308.588 254.451 309.213 255.016 309.634C255.58 310.054 256.316 310.265 257.224 310.265C258.12 310.265 258.845 310.054 259.398 309.634C259.963 309.213 260.372 308.588 260.627 307.758C260.893 306.928 261.025 305.904 261.025 304.687C261.025 303.458 260.893 302.44 260.627 301.632C260.372 300.813 259.963 300.199 259.398 299.789C258.834 299.38 258.098 299.175 257.19 299.175C255.851 299.175 254.877 299.634 254.269 300.553C253.671 301.471 253.372 302.849 253.372 304.687ZM263.748 287.952V288.301C263.427 288.611 263.007 288.993 262.486 289.446C261.966 289.9 261.407 290.376 260.81 290.874C260.212 291.361 259.625 291.831 259.05 292.285C258.474 292.728 257.971 293.099 257.539 293.397H254.169V292.949C254.534 292.529 254.955 292.031 255.431 291.455C255.918 290.868 256.399 290.265 256.875 289.646C257.351 289.026 257.749 288.461 258.07 287.952H263.748ZM276.266 314.332C274.196 314.332 272.508 313.524 271.202 311.908C269.907 310.281 269.26 307.896 269.26 304.753C269.26 301.576 269.918 299.175 271.235 297.548C272.552 295.91 274.273 295.091 276.398 295.091C277.284 295.091 278.064 295.213 278.739 295.456C279.414 295.7 279.995 296.026 280.482 296.436C280.98 296.845 281.401 297.304 281.744 297.813H281.91C281.844 297.459 281.761 296.939 281.661 296.253C281.573 295.556 281.528 294.842 281.528 294.111V288.168H286.608V314H282.724L281.744 311.593H281.528C281.207 312.102 280.803 312.567 280.316 312.987C279.84 313.397 279.271 313.723 278.606 313.967C277.942 314.21 277.162 314.332 276.266 314.332ZM278.042 310.298C279.425 310.298 280.399 309.888 280.964 309.069C281.539 308.239 281.844 306.994 281.877 305.334V304.786C281.877 302.982 281.6 301.604 281.047 300.652C280.493 299.689 279.464 299.208 277.959 299.208C276.841 299.208 275.967 299.689 275.336 300.652C274.705 301.615 274.39 303.004 274.39 304.819C274.39 306.634 274.705 308.001 275.336 308.92C275.978 309.839 276.88 310.298 278.042 310.298ZM296.968 295.439V314H291.904V295.439H296.968ZM294.444 288.168C295.197 288.168 295.844 288.345 296.387 288.699C296.929 289.042 297.2 289.69 297.2 290.642C297.2 291.582 296.929 292.235 296.387 292.601C295.844 292.955 295.197 293.132 294.444 293.132C293.681 293.132 293.028 292.955 292.485 292.601C291.954 292.235 291.688 291.582 291.688 290.642C291.688 289.69 291.954 289.042 292.485 288.699C293.028 288.345 293.681 288.168 294.444 288.168ZM307.726 322.168C305.136 322.168 303.155 321.714 301.782 320.807C300.421 319.91 299.74 318.648 299.74 317.021C299.74 315.904 300.089 314.968 300.786 314.216C301.483 313.463 302.507 312.926 303.857 312.605C303.337 312.384 302.883 312.024 302.496 311.526C302.109 311.017 301.915 310.48 301.915 309.916C301.915 309.208 302.12 308.621 302.529 308.156C302.939 307.68 303.531 307.215 304.306 306.762C303.332 306.341 302.557 305.666 301.981 304.736C301.417 303.807 301.135 302.711 301.135 301.449C301.135 300.099 301.428 298.953 302.015 298.013C302.612 297.061 303.476 296.336 304.604 295.838C305.744 295.34 307.128 295.091 308.755 295.091C309.098 295.091 309.496 295.113 309.95 295.157C310.404 295.201 310.819 295.251 311.195 295.307C311.583 295.362 311.843 295.406 311.976 295.439H318.45V298.013L315.545 298.76C315.811 299.169 316.01 299.606 316.143 300.071C316.275 300.536 316.342 301.029 316.342 301.549C316.342 303.541 315.645 305.096 314.25 306.214C312.867 307.321 310.941 307.874 308.473 307.874C307.886 307.841 307.333 307.797 306.812 307.741C306.558 307.94 306.364 308.151 306.231 308.372C306.099 308.593 306.032 308.826 306.032 309.069C306.032 309.313 306.132 309.518 306.331 309.684C306.541 309.839 306.851 309.96 307.261 310.049C307.681 310.126 308.201 310.165 308.821 310.165H311.976C314.012 310.165 315.562 310.602 316.624 311.477C317.698 312.351 318.234 313.635 318.234 315.328C318.234 317.497 317.327 319.18 315.512 320.375C313.708 321.57 311.112 322.168 307.726 322.168ZM307.941 318.864C309.148 318.864 310.183 318.748 311.046 318.516C311.92 318.294 312.59 317.973 313.055 317.553C313.52 317.143 313.752 316.651 313.752 316.075C313.752 315.61 313.614 315.24 313.337 314.963C313.071 314.697 312.662 314.509 312.108 314.398C311.566 314.288 310.869 314.232 310.017 314.232H307.394C306.774 314.232 306.215 314.332 305.717 314.531C305.23 314.73 304.842 315.007 304.555 315.361C304.267 315.727 304.123 316.147 304.123 316.623C304.123 317.32 304.455 317.868 305.119 318.267C305.794 318.665 306.735 318.864 307.941 318.864ZM308.755 304.786C309.707 304.786 310.404 304.493 310.847 303.906C311.289 303.32 311.511 302.523 311.511 301.516C311.511 300.398 311.278 299.562 310.813 299.009C310.36 298.444 309.674 298.162 308.755 298.162C307.825 298.162 307.128 298.444 306.663 299.009C306.198 299.562 305.966 300.398 305.966 301.516C305.966 302.523 306.193 303.32 306.646 303.906C307.111 304.493 307.814 304.786 308.755 304.786ZM338.389 304.687C338.389 306.236 338.178 307.608 337.758 308.804C337.348 309.999 336.745 311.012 335.948 311.842C335.162 312.661 334.211 313.281 333.093 313.701C331.986 314.122 330.735 314.332 329.341 314.332C328.035 314.332 326.834 314.122 325.738 313.701C324.654 313.281 323.707 312.661 322.899 311.842C322.103 311.012 321.483 309.999 321.04 308.804C320.608 307.608 320.393 306.236 320.393 304.687C320.393 302.628 320.758 300.885 321.488 299.457C322.219 298.029 323.259 296.945 324.609 296.203C325.96 295.462 327.57 295.091 329.44 295.091C331.178 295.091 332.716 295.462 334.056 296.203C335.406 296.945 336.463 298.029 337.227 299.457C338.001 300.885 338.389 302.628 338.389 304.687ZM325.556 304.687C325.556 305.904 325.688 306.928 325.954 307.758C326.22 308.588 326.635 309.213 327.199 309.634C327.764 310.054 328.5 310.265 329.407 310.265C330.304 310.265 331.029 310.054 331.582 309.634C332.146 309.213 332.556 308.588 332.811 307.758C333.076 306.928 333.209 305.904 333.209 304.687C333.209 303.458 333.076 302.44 332.811 301.632C332.556 300.813 332.146 300.199 331.582 299.789C331.018 299.38 330.282 299.175 329.374 299.175C328.035 299.175 327.061 299.634 326.452 300.553C325.854 301.471 325.556 302.849 325.556 304.687ZM341.858 311.626C341.858 310.586 342.141 309.855 342.705 309.435C343.281 309.014 343.972 308.804 344.78 308.804C345.566 308.804 346.241 309.014 346.806 309.435C347.381 309.855 347.669 310.586 347.669 311.626C347.669 312.622 347.381 313.341 346.806 313.784C346.241 314.227 345.566 314.448 344.78 314.448C343.972 314.448 343.281 314.227 342.705 313.784C342.141 313.341 341.858 312.622 341.858 311.626ZM341.858 297.913C341.858 296.873 342.141 296.142 342.705 295.722C343.281 295.301 343.972 295.091 344.78 295.091C345.566 295.091 346.241 295.301 346.806 295.722C347.381 296.142 347.669 296.873 347.669 297.913C347.669 298.92 347.381 299.645 346.806 300.088C346.241 300.52 345.566 300.735 344.78 300.735C343.972 300.735 343.281 300.52 342.705 300.088C342.141 299.645 341.858 298.92 341.858 297.913ZM377.319 308.97H374.397V314H369.384V308.97H359.024V305.4L369.666 289.729H374.397V304.985H377.319V308.97ZM369.384 304.985V300.868C369.384 300.481 369.389 300.021 369.4 299.49C369.423 298.959 369.445 298.428 369.467 297.896C369.489 297.365 369.511 296.895 369.533 296.485C369.566 296.065 369.589 295.771 369.6 295.605H369.467C369.257 296.059 369.035 296.502 368.803 296.934C368.57 297.354 368.299 297.797 367.989 298.262L363.54 304.985H369.384ZM396.096 301.864C396.096 303.823 395.941 305.572 395.631 307.11C395.332 308.649 394.845 309.955 394.17 311.028C393.506 312.102 392.632 312.921 391.547 313.485C390.462 314.05 389.145 314.332 387.596 314.332C385.648 314.332 384.049 313.84 382.798 312.854C381.547 311.858 380.623 310.431 380.025 308.571C379.428 306.701 379.129 304.465 379.129 301.864C379.129 299.241 379.4 297 379.942 295.141C380.496 293.27 381.392 291.837 382.632 290.841C383.871 289.845 385.526 289.347 387.596 289.347C389.533 289.347 391.126 289.845 392.377 290.841C393.639 291.826 394.574 293.254 395.183 295.124C395.791 296.983 396.096 299.23 396.096 301.864ZM384.226 301.864C384.226 303.713 384.325 305.257 384.524 306.496C384.735 307.725 385.083 308.649 385.57 309.269C386.057 309.888 386.732 310.198 387.596 310.198C388.448 310.198 389.118 309.894 389.604 309.285C390.103 308.665 390.457 307.741 390.667 306.513C390.877 305.273 390.982 303.724 390.982 301.864C390.982 300.016 390.877 298.472 390.667 297.232C390.457 295.993 390.103 295.063 389.604 294.443C389.118 293.812 388.448 293.497 387.596 293.497C386.732 293.497 386.057 293.812 385.57 294.443C385.083 295.063 384.735 295.993 384.524 297.232C384.325 298.472 384.226 300.016 384.226 301.864ZM414.739 295.157C414.739 296.275 414.507 297.243 414.042 298.062C413.577 298.882 412.946 299.551 412.149 300.071C411.364 300.591 410.478 300.973 409.493 301.217V301.316C411.441 301.56 412.919 302.158 413.926 303.109C414.944 304.061 415.453 305.334 415.453 306.928C415.453 308.344 415.104 309.612 414.407 310.729C413.721 311.847 412.659 312.727 411.22 313.369C409.781 314.011 407.927 314.332 405.658 314.332C404.319 314.332 403.068 314.221 401.906 314C400.755 313.79 399.671 313.463 398.652 313.021V308.654C399.693 309.186 400.783 309.59 401.923 309.866C403.063 310.132 404.125 310.265 405.11 310.265C406.948 310.265 408.231 309.949 408.962 309.318C409.703 308.676 410.074 307.78 410.074 306.629C410.074 305.954 409.903 305.384 409.56 304.919C409.216 304.454 408.619 304.1 407.767 303.856C406.925 303.613 405.747 303.491 404.23 303.491H402.388V299.557H404.264C405.758 299.557 406.892 299.418 407.667 299.142C408.453 298.854 408.984 298.466 409.261 297.979C409.549 297.481 409.692 296.917 409.692 296.286C409.692 295.423 409.427 294.748 408.896 294.261C408.364 293.774 407.479 293.53 406.239 293.53C405.465 293.53 404.756 293.63 404.114 293.829C403.483 294.017 402.913 294.25 402.404 294.526C401.895 294.792 401.447 295.052 401.06 295.307L398.686 291.771C399.637 291.084 400.75 290.514 402.022 290.061C403.306 289.607 404.834 289.38 406.604 289.38C409.106 289.38 411.087 289.883 412.548 290.891C414.009 291.898 414.739 293.32 414.739 295.157Z" fill="black"/>
<path d="M102.218 385.627C101.534 385.628 100.866 385.825 100.29 386.193C99.7145 386.562 99.2564 387.088 98.9696 387.708L75.9446 437.774C75.6939 438.319 75.5843 438.918 75.6258 439.517C75.6672 440.115 75.8585 440.693 76.182 441.198C76.5054 441.703 76.9506 442.119 77.4766 442.407C78.0027 442.694 78.5927 442.845 79.1923 442.845H563.396C564.006 442.845 564.605 442.689 565.137 442.392C565.67 442.096 566.117 441.668 566.437 441.149C566.758 440.63 566.94 440.039 566.968 439.43C566.995 438.821 566.866 438.215 566.593 437.67L541.566 387.604C541.271 387.008 540.815 386.508 540.25 386.158C539.685 385.809 539.033 385.625 538.369 385.627H102.218Z" fill="#2F2E41"/>
<path d="M320.836 78.6757C323.798 78.6757 326.199 76.274 326.199 73.3115C326.199 70.3489 323.798 67.9473 320.836 67.9473C317.874 67.9473 315.473 70.3489 315.473 73.3115C315.473 76.274 317.874 78.6757 320.836 78.6757Z" fill="white"/>
<path d="M273.242 452.381C272.456 452.382 271.693 452.641 271.069 453.12C270.445 453.598 269.996 454.268 269.79 455.027L264.015 476.484C263.872 477.014 263.853 477.57 263.96 478.108C264.066 478.647 264.295 479.153 264.629 479.589C264.963 480.025 265.392 480.378 265.884 480.621C266.376 480.864 266.918 480.99 267.467 480.99H377.306C377.876 480.99 378.437 480.854 378.944 480.592C379.451 480.331 379.887 479.952 380.218 479.488C380.548 479.024 380.763 478.487 380.844 477.922C380.925 477.358 380.87 476.783 380.683 476.244L373.258 454.787C373.014 454.085 372.558 453.475 371.953 453.044C371.347 452.613 370.622 452.381 369.879 452.381H273.242Z" fill="#2F2E41"/>
<path d="M566.342 363.574V368.342H74.9707L75.3405 367.747V363.574H566.342Z" fill="#2F2E41"/>
<path d="M552.637 166.886C598.711 166.886 636.061 129.528 636.061 83.4432C636.061 37.3588 598.711 0 552.637 0C506.562 0 469.212 37.3588 469.212 83.4432C469.212 129.528 506.562 166.886 552.637 166.886Z" fill="#DB1E2F"/>
<path d="M587.199 119.801H518.076C516.812 119.8 515.6 119.297 514.706 118.403C513.812 117.509 513.31 116.297 513.309 115.033V73.3111C513.31 72.047 513.813 70.8349 514.706 69.941C515.6 69.0471 516.812 68.5443 518.076 68.543H587.199C588.463 68.5443 589.675 69.0471 590.568 69.941C591.462 70.8349 591.965 72.047 591.966 73.3111V115.033C591.965 116.297 591.462 117.509 590.569 118.403C589.675 119.297 588.463 119.8 587.199 119.801ZM518.076 73.3112V115.033H587.203L587.199 73.3111L518.076 73.3112Z" fill="white"/>
<path d="M574.089 73.3102H531.185V54.2374C531.185 40.423 540.207 30.3965 552.637 30.3965C565.067 30.3965 574.089 40.423 574.089 54.2374L574.089 73.3102ZM535.952 68.542H569.322V54.2374C569.322 43.0078 562.461 35.1647 552.637 35.1647C542.813 35.1647 535.952 43.0079 535.952 54.2374L535.952 68.542Z" fill="white"/>
<path d="M552.637 97.7473C555.27 97.7473 557.404 95.6125 557.404 92.9791C557.404 90.3457 555.27 88.2109 552.637 88.2109C550.004 88.2109 547.87 90.3457 547.87 92.9791C547.87 95.6125 550.004 97.7473 552.637 97.7473Z" fill="white"/>
<path d="M494.399 266.531H150.846C149.16 266.529 147.543 265.858 146.35 264.665C145.157 263.472 144.486 261.855 144.484 260.168V174.928C144.486 173.241 145.157 171.623 146.35 170.43C147.543 169.238 149.16 168.566 150.846 168.564H494.399C496.086 168.566 497.703 169.238 498.895 170.43C500.088 171.623 500.759 173.241 500.761 174.928V260.168C500.759 261.855 500.088 263.472 498.895 264.665C497.703 265.858 496.086 266.529 494.399 266.531ZM150.846 171.11C149.834 171.111 148.864 171.514 148.148 172.229C147.433 172.945 147.03 173.916 147.029 174.928V260.168C147.03 261.18 147.433 262.15 148.148 262.866C148.864 263.582 149.834 263.985 150.846 263.986H494.399C495.411 263.985 496.381 263.582 497.097 262.866C497.812 262.15 498.215 261.18 498.216 260.168V174.928C498.215 173.916 497.812 172.945 497.097 172.229C496.381 171.514 495.411 171.111 494.399 171.11L150.846 171.11Z" fill="#E6E6E6"/>
<path d="M212.967 50L211.104 43.8828H201.734L199.871 50H194L203.07 24.1953H209.732L218.838 50H212.967ZM209.803 39.3125L207.939 33.3359C207.822 32.9375 207.664 32.4277 207.465 31.8066C207.277 31.1738 207.084 30.5352 206.885 29.8906C206.697 29.2344 206.545 28.666 206.428 28.1855C206.311 28.666 206.146 29.2637 205.936 29.9785C205.736 30.6816 205.543 31.3496 205.355 31.9824C205.168 32.6152 205.033 33.0664 204.951 33.3359L203.105 39.3125H209.803ZM229.648 50.3516C227.703 50.3516 226.045 50 224.674 49.2969C223.303 48.582 222.26 47.4805 221.545 45.9922C220.83 44.5039 220.473 42.5996 220.473 40.2793C220.473 37.877 220.877 35.9199 221.686 34.4082C222.506 32.8848 223.637 31.7656 225.078 31.0508C226.531 30.3359 228.213 29.9785 230.123 29.9785C231.482 29.9785 232.654 30.1133 233.639 30.3828C234.635 30.6406 235.502 30.9512 236.24 31.3145L234.658 35.4629C233.814 35.123 233.029 34.8477 232.303 34.6367C231.576 34.4141 230.85 34.3027 230.123 34.3027C229.186 34.3027 228.406 34.5254 227.785 34.9707C227.164 35.4043 226.701 36.0605 226.396 36.9395C226.092 37.8184 225.939 38.9199 225.939 40.2441C225.939 41.5449 226.104 42.623 226.432 43.4785C226.76 44.334 227.234 44.9727 227.855 45.3945C228.477 45.8047 229.232 46.0098 230.123 46.0098C231.236 46.0098 232.227 45.8633 233.094 45.5703C233.961 45.2656 234.805 44.8438 235.625 44.3047V48.8926C234.805 49.4082 233.943 49.7773 233.041 50C232.15 50.2344 231.02 50.3516 229.648 50.3516ZM248.299 29.9785C250.115 29.9785 251.68 30.3301 252.992 31.0332C254.305 31.7246 255.318 32.7324 256.033 34.0566C256.748 35.3809 257.105 36.998 257.105 38.9082V41.5098H244.432C244.49 43.0215 244.941 44.2109 245.785 45.0781C246.641 45.9336 247.824 46.3613 249.336 46.3613C250.59 46.3613 251.738 46.2324 252.781 45.9746C253.824 45.7168 254.896 45.3301 255.998 44.8145V48.9629C255.025 49.4434 254.006 49.7949 252.939 50.0176C251.885 50.2402 250.602 50.3516 249.09 50.3516C247.121 50.3516 245.375 49.9883 243.852 49.2617C242.34 48.5352 241.15 47.4277 240.283 45.9395C239.428 44.4512 239 42.5762 239 40.3145C239 38.0176 239.387 36.1074 240.16 34.584C240.945 33.0488 242.035 31.9004 243.43 31.1387C244.824 30.3652 246.447 29.9785 248.299 29.9785ZM248.334 33.793C247.291 33.793 246.424 34.127 245.732 34.7949C245.053 35.4629 244.66 36.5117 244.555 37.9414H252.078C252.066 37.1445 251.92 36.4355 251.639 35.8145C251.369 35.1934 250.959 34.7012 250.408 34.3379C249.869 33.9746 249.178 33.793 248.334 33.793ZM275.176 44.1641C275.176 45.5 274.859 46.6309 274.227 47.5566C273.605 48.4707 272.674 49.168 271.432 49.6484C270.189 50.1172 268.643 50.3516 266.791 50.3516C265.42 50.3516 264.242 50.2637 263.258 50.0879C262.285 49.9121 261.301 49.6191 260.305 49.209V44.7793C261.371 45.2598 262.514 45.6582 263.732 45.9746C264.963 46.2793 266.041 46.4316 266.967 46.4316C268.01 46.4316 268.754 46.2793 269.199 45.9746C269.656 45.6582 269.885 45.248 269.885 44.7441C269.885 44.416 269.791 44.123 269.604 43.8652C269.428 43.5957 269.041 43.2969 268.443 42.9688C267.846 42.6289 266.908 42.1895 265.631 41.6504C264.4 41.1348 263.387 40.6133 262.59 40.0859C261.805 39.5586 261.219 38.9375 260.832 38.2227C260.457 37.4961 260.27 36.5762 260.27 35.4629C260.27 33.6465 260.973 32.2812 262.379 31.3672C263.797 30.4414 265.689 29.9785 268.057 29.9785C269.275 29.9785 270.436 30.1016 271.537 30.3477C272.65 30.5938 273.793 30.9863 274.965 31.5254L273.348 35.3926C272.375 34.9707 271.455 34.625 270.588 34.3555C269.732 34.0859 268.859 33.9512 267.969 33.9512C267.184 33.9512 266.592 34.0566 266.193 34.2676C265.795 34.4785 265.596 34.8008 265.596 35.2344C265.596 35.5508 265.695 35.832 265.895 36.0781C266.105 36.3242 266.504 36.5996 267.09 36.9043C267.688 37.1973 268.561 37.5781 269.709 38.0469C270.822 38.5039 271.789 38.9844 272.609 39.4883C273.43 39.9805 274.062 40.5957 274.508 41.334C274.953 42.0605 275.176 43.0039 275.176 44.1641ZM293.07 44.1641C293.07 45.5 292.754 46.6309 292.121 47.5566C291.5 48.4707 290.568 49.168 289.326 49.6484C288.084 50.1172 286.537 50.3516 284.686 50.3516C283.314 50.3516 282.137 50.2637 281.152 50.0879C280.18 49.9121 279.195 49.6191 278.199 49.209V44.7793C279.266 45.2598 280.408 45.6582 281.627 45.9746C282.857 46.2793 283.936 46.4316 284.861 46.4316C285.904 46.4316 286.648 46.2793 287.094 45.9746C287.551 45.6582 287.779 45.248 287.779 44.7441C287.779 44.416 287.686 44.123 287.498 43.8652C287.322 43.5957 286.936 43.2969 286.338 42.9688C285.74 42.6289 284.803 42.1895 283.525 41.6504C282.295 41.1348 281.281 40.6133 280.484 40.0859C279.699 39.5586 279.113 38.9375 278.727 38.2227C278.352 37.4961 278.164 36.5762 278.164 35.4629C278.164 33.6465 278.867 32.2812 280.273 31.3672C281.691 30.4414 283.584 29.9785 285.951 29.9785C287.17 29.9785 288.33 30.1016 289.432 30.3477C290.545 30.5938 291.688 30.9863 292.859 31.5254L291.242 35.3926C290.27 34.9707 289.35 34.625 288.482 34.3555C287.627 34.0859 286.754 33.9512 285.863 33.9512C285.078 33.9512 284.486 34.0566 284.088 34.2676C283.689 34.4785 283.49 34.8008 283.49 35.2344C283.49 35.5508 283.59 35.832 283.789 36.0781C284 36.3242 284.398 36.5996 284.984 36.9043C285.582 37.1973 286.455 37.5781 287.604 38.0469C288.717 38.5039 289.684 38.9844 290.504 39.4883C291.324 39.9805 291.957 40.5957 292.402 41.334C292.848 42.0605 293.07 43.0039 293.07 44.1641ZM315.113 40.1387C315.113 41.7793 314.891 43.2324 314.445 44.498C314.012 45.7637 313.373 46.8359 312.529 47.7148C311.697 48.582 310.689 49.2383 309.506 49.6836C308.334 50.1289 307.01 50.3516 305.533 50.3516C304.15 50.3516 302.879 50.1289 301.719 49.6836C300.57 49.2383 299.568 48.582 298.713 47.7148C297.869 46.8359 297.213 45.7637 296.744 44.498C296.287 43.2324 296.059 41.7793 296.059 40.1387C296.059 37.959 296.445 36.1133 297.219 34.6016C297.992 33.0898 299.094 31.9414 300.523 31.1562C301.953 30.3711 303.658 29.9785 305.639 29.9785C307.479 29.9785 309.107 30.3711 310.525 31.1562C311.955 31.9414 313.074 33.0898 313.883 34.6016C314.703 36.1133 315.113 37.959 315.113 40.1387ZM301.525 40.1387C301.525 41.4277 301.666 42.5117 301.947 43.3906C302.229 44.2695 302.668 44.9316 303.266 45.377C303.863 45.8223 304.643 46.0449 305.604 46.0449C306.553 46.0449 307.32 45.8223 307.906 45.377C308.504 44.9316 308.938 44.2695 309.207 43.3906C309.488 42.5117 309.629 41.4277 309.629 40.1387C309.629 38.8379 309.488 37.7598 309.207 36.9043C308.938 36.0371 308.504 35.3867 307.906 34.9531C307.309 34.5195 306.529 34.3027 305.568 34.3027C304.15 34.3027 303.119 34.7891 302.475 35.7617C301.842 36.7344 301.525 38.1934 301.525 40.1387ZM340.057 29.9785C342.154 29.9785 343.842 30.5527 345.119 31.7012C346.396 32.8379 347.035 34.666 347.035 37.1855V50H341.674V38.5215C341.674 37.1152 341.416 36.0547 340.9 35.3398C340.396 34.625 339.6 34.2676 338.51 34.2676C336.869 34.2676 335.75 34.8242 335.152 35.9375C334.555 37.0508 334.256 38.6562 334.256 40.7539V50H328.895V30.3477H332.99L333.711 32.8613H334.01C334.432 32.1816 334.953 31.6309 335.574 31.209C336.207 30.7871 336.904 30.4766 337.666 30.2773C338.439 30.0781 339.236 29.9785 340.057 29.9785ZM360.658 29.9785C362.475 29.9785 364.039 30.3301 365.352 31.0332C366.664 31.7246 367.678 32.7324 368.393 34.0566C369.107 35.3809 369.465 36.998 369.465 38.9082V41.5098H356.791C356.85 43.0215 357.301 44.2109 358.145 45.0781C359 45.9336 360.184 46.3613 361.695 46.3613C362.949 46.3613 364.098 46.2324 365.141 45.9746C366.184 45.7168 367.256 45.3301 368.357 44.8145V48.9629C367.385 49.4434 366.365 49.7949 365.299 50.0176C364.244 50.2402 362.961 50.3516 361.449 50.3516C359.48 50.3516 357.734 49.9883 356.211 49.2617C354.699 48.5352 353.51 47.4277 352.643 45.9395C351.787 44.4512 351.359 42.5762 351.359 40.3145C351.359 38.0176 351.746 36.1074 352.52 34.584C353.305 33.0488 354.395 31.9004 355.789 31.1387C357.184 30.3652 358.807 29.9785 360.658 29.9785ZM360.693 33.793C359.65 33.793 358.783 34.127 358.092 34.7949C357.412 35.4629 357.02 36.5117 356.914 37.9414H364.438C364.426 37.1445 364.279 36.4355 363.998 35.8145C363.729 35.1934 363.318 34.7012 362.768 34.3379C362.229 33.9746 361.537 33.793 360.693 33.793ZM379.572 58.6484C376.83 58.6484 374.732 58.168 373.279 57.207C371.838 56.2578 371.117 54.9219 371.117 53.1992C371.117 52.0156 371.486 51.0254 372.225 50.2285C372.963 49.4316 374.047 48.8633 375.477 48.5234C374.926 48.2891 374.445 47.9082 374.035 47.3809C373.625 46.8418 373.42 46.2734 373.42 45.6758C373.42 44.9258 373.637 44.3047 374.07 43.8125C374.504 43.3086 375.131 42.8164 375.951 42.3359C374.92 41.8906 374.1 41.1758 373.49 40.1914C372.893 39.207 372.594 38.0469 372.594 36.7109C372.594 35.2812 372.904 34.0684 373.525 33.0723C374.158 32.0645 375.072 31.2969 376.268 30.7695C377.475 30.2422 378.939 29.9785 380.662 29.9785C381.025 29.9785 381.447 30.002 381.928 30.0488C382.408 30.0957 382.848 30.1484 383.246 30.207C383.656 30.2656 383.932 30.3125 384.072 30.3477H390.928V33.0723L387.852 33.8633C388.133 34.2969 388.344 34.7598 388.484 35.252C388.625 35.7441 388.695 36.2656 388.695 36.8164C388.695 38.9258 387.957 40.5723 386.48 41.7559C385.016 42.9277 382.977 43.5137 380.363 43.5137C379.742 43.4785 379.156 43.4316 378.605 43.373C378.336 43.584 378.131 43.8066 377.99 44.041C377.85 44.2754 377.779 44.5215 377.779 44.7793C377.779 45.0371 377.885 45.2539 378.096 45.4297C378.318 45.5938 378.646 45.7227 379.08 45.8164C379.525 45.8984 380.076 45.9395 380.732 45.9395H384.072C386.229 45.9395 387.869 46.4023 388.994 47.3281C390.131 48.2539 390.699 49.6133 390.699 51.4062C390.699 53.7031 389.738 55.4844 387.816 56.75C385.906 58.0156 383.158 58.6484 379.572 58.6484ZM379.801 55.1504C381.078 55.1504 382.174 55.0273 383.088 54.7812C384.014 54.5469 384.723 54.207 385.215 53.7617C385.707 53.3281 385.953 52.8066 385.953 52.1973C385.953 51.7051 385.807 51.3125 385.514 51.0195C385.232 50.7383 384.799 50.5391 384.213 50.4219C383.639 50.3047 382.9 50.2461 381.998 50.2461H379.221C378.564 50.2461 377.973 50.3516 377.445 50.5625C376.93 50.7734 376.52 51.0664 376.215 51.4414C375.91 51.8281 375.758 52.2734 375.758 52.7773C375.758 53.5156 376.109 54.0957 376.812 54.5176C377.527 54.9395 378.523 55.1504 379.801 55.1504ZM380.662 40.2441C381.67 40.2441 382.408 39.9336 382.877 39.3125C383.346 38.6914 383.58 37.8477 383.58 36.7812C383.58 35.5977 383.334 34.7129 382.842 34.127C382.361 33.5293 381.635 33.2305 380.662 33.2305C379.678 33.2305 378.939 33.5293 378.447 34.127C377.955 34.7129 377.709 35.5977 377.709 36.7812C377.709 37.8477 377.949 38.6914 378.43 39.3125C378.922 39.9336 379.666 40.2441 380.662 40.2441ZM402.23 29.9434C404.867 29.9434 406.889 30.5176 408.295 31.666C409.701 32.8145 410.404 34.5605 410.404 36.9043V50H406.66L405.623 47.3281H405.482C404.92 48.0312 404.346 48.6055 403.76 49.0508C403.174 49.4961 402.5 49.8242 401.738 50.0352C400.977 50.2461 400.051 50.3516 398.961 50.3516C397.801 50.3516 396.758 50.1289 395.832 49.6836C394.918 49.2383 394.197 48.5586 393.67 47.6445C393.143 46.7188 392.879 45.5469 392.879 44.1289C392.879 42.043 393.611 40.5078 395.076 39.5234C396.541 38.5273 398.738 37.9766 401.668 37.8711L405.078 37.7656V36.9043C405.078 35.873 404.809 35.1172 404.27 34.6367C403.73 34.1562 402.98 33.916 402.02 33.916C401.07 33.916 400.139 34.0508 399.225 34.3203C398.311 34.5898 397.396 34.9297 396.482 35.3398L394.707 31.7188C395.75 31.168 396.916 30.7344 398.205 30.418C399.506 30.1016 400.848 29.9434 402.23 29.9434ZM405.078 40.8945L403.004 40.9648C401.27 41.0117 400.062 41.3223 399.383 41.8965C398.715 42.4707 398.381 43.2266 398.381 44.1641C398.381 44.9844 398.621 45.5703 399.102 45.9219C399.582 46.2617 400.209 46.4316 400.982 46.4316C402.131 46.4316 403.098 46.0918 403.883 45.4121C404.68 44.7324 405.078 43.7656 405.078 42.5117V40.8945ZM422.164 50.3516C419.973 50.3516 418.186 49.4961 416.803 47.7852C415.432 46.0625 414.746 43.5371 414.746 40.209C414.746 36.8457 415.443 34.3027 416.838 32.5801C418.232 30.8457 420.055 29.9785 422.305 29.9785C423.242 29.9785 424.068 30.1074 424.783 30.3652C425.498 30.623 426.113 30.9688 426.629 31.4023C427.156 31.8359 427.602 32.3223 427.965 32.8613H428.141C428.07 32.4863 427.982 31.9355 427.877 31.209C427.783 30.4707 427.736 29.7148 427.736 28.9414V22.6484H433.115V50H429.002L427.965 47.4512H427.736C427.396 47.9902 426.969 48.4824 426.453 48.9277C425.949 49.3613 425.346 49.707 424.643 49.9648C423.939 50.2227 423.113 50.3516 422.164 50.3516ZM424.045 46.0801C425.51 46.0801 426.541 45.6465 427.139 44.7793C427.748 43.9004 428.07 42.582 428.105 40.8242V40.2441C428.105 38.334 427.812 36.875 427.227 35.8672C426.641 34.8477 425.551 34.3379 423.957 34.3379C422.773 34.3379 421.848 34.8477 421.18 35.8672C420.512 36.8867 420.178 38.3574 420.178 40.2793C420.178 42.2012 420.512 43.6484 421.18 44.6211C421.859 45.5938 422.814 46.0801 424.045 46.0801ZM456.582 40.1387C456.582 41.7793 456.359 43.2324 455.914 44.498C455.48 45.7637 454.842 46.8359 453.998 47.7148C453.166 48.582 452.158 49.2383 450.975 49.6836C449.803 50.1289 448.479 50.3516 447.002 50.3516C445.619 50.3516 444.348 50.1289 443.188 49.6836C442.039 49.2383 441.037 48.582 440.182 47.7148C439.338 46.8359 438.682 45.7637 438.213 44.498C437.756 43.2324 437.527 41.7793 437.527 40.1387C437.527 37.959 437.914 36.1133 438.688 34.6016C439.461 33.0898 440.562 31.9414 441.992 31.1562C443.422 30.3711 445.127 29.9785 447.107 29.9785C448.947 29.9785 450.576 30.3711 451.994 31.1562C453.424 31.9414 454.543 33.0898 455.352 34.6016C456.172 36.1133 456.582 37.959 456.582 40.1387ZM442.994 40.1387C442.994 41.4277 443.135 42.5117 443.416 43.3906C443.697 44.2695 444.137 44.9316 444.734 45.377C445.332 45.8223 446.111 46.0449 447.072 46.0449C448.021 46.0449 448.789 45.8223 449.375 45.377C449.973 44.9316 450.406 44.2695 450.676 43.3906C450.957 42.5117 451.098 41.4277 451.098 40.1387C451.098 38.8379 450.957 37.7598 450.676 36.9043C450.406 36.0371 449.973 35.3867 449.375 34.9531C448.777 34.5195 447.998 34.3027 447.037 34.3027C445.619 34.3027 444.588 34.7891 443.943 35.7617C443.311 36.7344 442.994 38.1934 442.994 40.1387Z" fill="black"/>
<path d="M161.677 206L155.033 190.6H158.883L164.691 204.24H162.425L168.321 190.6H171.863L165.197 206H161.677ZM177.658 206.176C176.397 206.176 175.275 205.912 174.292 205.384C173.324 204.856 172.554 204.137 171.982 203.228C171.425 202.304 171.146 201.255 171.146 200.082C171.146 198.894 171.425 197.845 171.982 196.936C172.554 196.012 173.324 195.293 174.292 194.78C175.275 194.252 176.397 193.988 177.658 193.988C178.905 193.988 180.02 194.252 181.002 194.78C181.985 195.293 182.755 196.005 183.312 196.914C183.87 197.823 184.148 198.879 184.148 200.082C184.148 201.255 183.87 202.304 183.312 203.228C182.755 204.137 181.985 204.856 181.002 205.384C180.02 205.912 178.905 206.176 177.658 206.176ZM177.658 203.36C178.23 203.36 178.744 203.228 179.198 202.964C179.653 202.7 180.012 202.326 180.276 201.842C180.54 201.343 180.672 200.757 180.672 200.082C180.672 199.393 180.54 198.806 180.276 198.322C180.012 197.838 179.653 197.464 179.198 197.2C178.744 196.936 178.23 196.804 177.658 196.804C177.086 196.804 176.573 196.936 176.118 197.2C175.664 197.464 175.297 197.838 175.018 198.322C174.754 198.806 174.622 199.393 174.622 200.082C174.622 200.757 174.754 201.343 175.018 201.842C175.297 202.326 175.664 202.7 176.118 202.964C176.573 203.228 177.086 203.36 177.658 203.36ZM192.162 206.176C190.886 206.176 189.75 205.919 188.752 205.406C187.755 204.878 186.97 204.152 186.398 203.228C185.841 202.304 185.562 201.255 185.562 200.082C185.562 198.894 185.841 197.845 186.398 196.936C186.97 196.012 187.755 195.293 188.752 194.78C189.75 194.252 190.886 193.988 192.162 193.988C193.409 193.988 194.494 194.252 195.418 194.78C196.342 195.293 197.024 196.034 197.464 197.002L194.802 198.432C194.494 197.875 194.106 197.464 193.636 197.2C193.182 196.936 192.683 196.804 192.14 196.804C191.554 196.804 191.026 196.936 190.556 197.2C190.087 197.464 189.713 197.838 189.434 198.322C189.17 198.806 189.038 199.393 189.038 200.082C189.038 200.771 189.17 201.358 189.434 201.842C189.713 202.326 190.087 202.7 190.556 202.964C191.026 203.228 191.554 203.36 192.14 203.36C192.683 203.36 193.182 203.235 193.636 202.986C194.106 202.722 194.494 202.304 194.802 201.732L197.464 203.184C197.024 204.137 196.342 204.878 195.418 205.406C194.494 205.919 193.409 206.176 192.162 206.176ZM205.164 206.176C203.815 206.176 202.627 205.912 201.6 205.384C200.588 204.856 199.803 204.137 199.246 203.228C198.689 202.304 198.41 201.255 198.41 200.082C198.41 198.894 198.681 197.845 199.224 196.936C199.781 196.012 200.537 195.293 201.49 194.78C202.443 194.252 203.521 193.988 204.724 193.988C205.883 193.988 206.924 194.237 207.848 194.736C208.787 195.22 209.527 195.924 210.07 196.848C210.613 197.757 210.884 198.85 210.884 200.126C210.884 200.258 210.877 200.412 210.862 200.588C210.847 200.749 210.833 200.903 210.818 201.05H201.204V199.048H209.014L207.694 199.642C207.694 199.026 207.569 198.491 207.32 198.036C207.071 197.581 206.726 197.229 206.286 196.98C205.846 196.716 205.333 196.584 204.746 196.584C204.159 196.584 203.639 196.716 203.184 196.98C202.744 197.229 202.399 197.589 202.15 198.058C201.901 198.513 201.776 199.055 201.776 199.686V200.214C201.776 200.859 201.915 201.431 202.194 201.93C202.487 202.414 202.891 202.788 203.404 203.052C203.932 203.301 204.548 203.426 205.252 203.426C205.883 203.426 206.433 203.331 206.902 203.14C207.386 202.949 207.826 202.663 208.222 202.282L210.048 204.262C209.505 204.878 208.823 205.355 208.002 205.692C207.181 206.015 206.235 206.176 205.164 206.176ZM200.236 192.646L203.14 189.478H206.176L209.08 192.646H206.572L203.536 190.006H205.78L202.744 192.646H200.236ZM226.593 193.988C227.532 193.988 228.368 194.179 229.101 194.56C229.849 194.927 230.436 195.499 230.861 196.276C231.287 197.039 231.499 198.021 231.499 199.224V206H228.067V199.752C228.067 198.799 227.855 198.095 227.429 197.64C227.019 197.185 226.432 196.958 225.669 196.958C225.127 196.958 224.635 197.075 224.195 197.31C223.77 197.53 223.433 197.875 223.183 198.344C222.949 198.813 222.831 199.415 222.831 200.148V206H219.399V194.164H222.677V197.442L222.061 196.452C222.487 195.66 223.095 195.051 223.887 194.626C224.679 194.201 225.581 193.988 226.593 193.988ZM241.87 206V203.69L241.65 203.184V199.048C241.65 198.315 241.423 197.743 240.968 197.332C240.528 196.921 239.846 196.716 238.922 196.716C238.292 196.716 237.668 196.819 237.052 197.024C236.451 197.215 235.938 197.479 235.512 197.816L234.28 195.418C234.926 194.963 235.703 194.611 236.612 194.362C237.522 194.113 238.446 193.988 239.384 193.988C241.188 193.988 242.589 194.413 243.586 195.264C244.584 196.115 245.082 197.442 245.082 199.246V206H241.87ZM238.262 206.176C237.338 206.176 236.546 206.022 235.886 205.714C235.226 205.391 234.72 204.959 234.368 204.416C234.016 203.873 233.84 203.265 233.84 202.59C233.84 201.886 234.009 201.27 234.346 200.742C234.698 200.214 235.248 199.803 235.996 199.51C236.744 199.202 237.72 199.048 238.922 199.048H242.068V201.05H239.296C238.49 201.05 237.932 201.182 237.624 201.446C237.331 201.71 237.184 202.04 237.184 202.436C237.184 202.876 237.353 203.228 237.69 203.492C238.042 203.741 238.519 203.866 239.12 203.866C239.692 203.866 240.206 203.734 240.66 203.47C241.115 203.191 241.445 202.788 241.65 202.26L242.178 203.844C241.929 204.607 241.474 205.186 240.814 205.582C240.154 205.978 239.304 206.176 238.262 206.176ZM241.386 192.712C241.005 192.712 240.668 192.646 240.374 192.514C240.081 192.367 239.817 192.206 239.582 192.03C239.348 191.839 239.128 191.678 238.922 191.546C238.717 191.399 238.512 191.326 238.306 191.326C238.013 191.326 237.771 191.436 237.58 191.656C237.39 191.861 237.28 192.162 237.25 192.558H235.512C235.542 191.575 235.784 190.798 236.238 190.226C236.693 189.639 237.309 189.346 238.086 189.346C238.468 189.346 238.805 189.419 239.098 189.566C239.392 189.698 239.656 189.859 239.89 190.05C240.14 190.241 240.367 190.409 240.572 190.556C240.778 190.688 240.976 190.754 241.166 190.754C241.474 190.754 241.724 190.651 241.914 190.446C242.105 190.226 242.208 189.933 242.222 189.566H243.96C243.946 190.505 243.704 191.267 243.234 191.854C242.78 192.426 242.164 192.712 241.386 192.712ZM253.906 206.176C252.645 206.176 251.523 205.912 250.54 205.384C249.572 204.856 248.802 204.137 248.23 203.228C247.673 202.304 247.394 201.255 247.394 200.082C247.394 198.894 247.673 197.845 248.23 196.936C248.802 196.012 249.572 195.293 250.54 194.78C251.523 194.252 252.645 193.988 253.906 193.988C255.153 193.988 256.268 194.252 257.25 194.78C258.233 195.293 259.003 196.005 259.56 196.914C260.118 197.823 260.396 198.879 260.396 200.082C260.396 201.255 260.118 202.304 259.56 203.228C259.003 204.137 258.233 204.856 257.25 205.384C256.268 205.912 255.153 206.176 253.906 206.176ZM253.906 203.36C254.478 203.36 254.992 203.228 255.446 202.964C255.901 202.7 256.26 202.326 256.524 201.842C256.788 201.343 256.92 200.757 256.92 200.082C256.92 199.393 256.788 198.806 256.524 198.322C256.26 197.838 255.901 197.464 255.446 197.2C254.992 196.936 254.478 196.804 253.906 196.804C253.334 196.804 252.821 196.936 252.366 197.2C251.912 197.464 251.545 197.838 251.266 198.322C251.002 198.806 250.87 199.393 250.87 200.082C250.87 200.757 251.002 201.343 251.266 201.842C251.545 202.326 251.912 202.7 252.366 202.964C252.821 203.228 253.334 203.36 253.906 203.36ZM273.761 206.176C272.368 206.176 271.282 205.824 270.505 205.12C269.728 204.401 269.339 203.338 269.339 201.93V191.546H272.771V201.886C272.771 202.385 272.903 202.773 273.167 203.052C273.431 203.316 273.79 203.448 274.245 203.448C274.788 203.448 275.25 203.301 275.631 203.008L276.555 205.428C276.203 205.677 275.778 205.868 275.279 206C274.795 206.117 274.289 206.176 273.761 206.176ZM267.513 197.068V194.428H275.719V197.068H267.513ZM283.99 206.176C282.641 206.176 281.453 205.912 280.426 205.384C279.414 204.856 278.63 204.137 278.072 203.228C277.515 202.304 277.236 201.255 277.236 200.082C277.236 198.894 277.508 197.845 278.05 196.936C278.608 196.012 279.363 195.293 280.316 194.78C281.27 194.252 282.348 193.988 283.55 193.988C284.709 193.988 285.75 194.237 286.674 194.736C287.613 195.22 288.354 195.924 288.896 196.848C289.439 197.757 289.71 198.85 289.71 200.126C289.71 200.258 289.703 200.412 289.688 200.588C289.674 200.749 289.659 200.903 289.644 201.05H280.03V199.048H287.84L286.52 199.642C286.52 199.026 286.396 198.491 286.146 198.036C285.897 197.581 285.552 197.229 285.112 196.98C284.672 196.716 284.159 196.584 283.572 196.584C282.986 196.584 282.465 196.716 282.01 196.98C281.57 197.229 281.226 197.589 280.976 198.058C280.727 198.513 280.602 199.055 280.602 199.686V200.214C280.602 200.859 280.742 201.431 281.02 201.93C281.314 202.414 281.717 202.788 282.23 203.052C282.758 203.301 283.374 203.426 284.078 203.426C284.709 203.426 285.259 203.331 285.728 203.14C286.212 202.949 286.652 202.663 287.048 202.282L288.874 204.262C288.332 204.878 287.65 205.355 286.828 205.692C286.007 206.015 285.061 206.176 283.99 206.176ZM307.153 193.988C308.092 193.988 308.92 194.179 309.639 194.56C310.372 194.927 310.944 195.499 311.355 196.276C311.78 197.039 311.993 198.021 311.993 199.224V206H308.561V199.752C308.561 198.799 308.363 198.095 307.967 197.64C307.571 197.185 307.014 196.958 306.295 196.958C305.796 196.958 305.349 197.075 304.953 197.31C304.557 197.53 304.249 197.867 304.029 198.322C303.809 198.777 303.699 199.356 303.699 200.06V206H300.267V199.752C300.267 198.799 300.069 198.095 299.673 197.64C299.292 197.185 298.742 196.958 298.023 196.958C297.524 196.958 297.077 197.075 296.681 197.31C296.285 197.53 295.977 197.867 295.757 198.322C295.537 198.777 295.427 199.356 295.427 200.06V206H291.995V194.164H295.273V197.398L294.657 196.452C295.068 195.645 295.647 195.037 296.395 194.626C297.158 194.201 298.023 193.988 298.991 193.988C300.076 193.988 301.022 194.267 301.829 194.824C302.65 195.367 303.193 196.203 303.457 197.332L302.247 197.002C302.643 196.078 303.274 195.345 304.139 194.802C305.019 194.259 306.024 193.988 307.153 193.988ZM328.56 206V203.69L328.34 203.184V199.048C328.34 198.315 328.112 197.743 327.658 197.332C327.218 196.921 326.536 196.716 325.612 196.716C324.981 196.716 324.358 196.819 323.742 197.024C323.14 197.215 322.627 197.479 322.202 197.816L320.97 195.418C321.615 194.963 322.392 194.611 323.302 194.362C324.211 194.113 325.135 193.988 326.074 193.988C327.878 193.988 329.278 194.413 330.276 195.264C331.273 196.115 331.772 197.442 331.772 199.246V206H328.56ZM324.952 206.176C324.028 206.176 323.236 206.022 322.576 205.714C321.916 205.391 321.41 204.959 321.058 204.416C320.706 203.873 320.53 203.265 320.53 202.59C320.53 201.886 320.698 201.27 321.036 200.742C321.388 200.214 321.938 199.803 322.686 199.51C323.434 199.202 324.409 199.048 325.612 199.048H328.758V201.05H325.986C325.179 201.05 324.622 201.182 324.314 201.446C324.02 201.71 323.874 202.04 323.874 202.436C323.874 202.876 324.042 203.228 324.38 203.492C324.732 203.741 325.208 203.866 325.81 203.866C326.382 203.866 326.895 203.734 327.35 203.47C327.804 203.191 328.134 202.788 328.34 202.26L328.868 203.844C328.618 204.607 328.164 205.186 327.504 205.582C326.844 205.978 325.993 206.176 324.952 206.176ZM340.684 206.176C339.408 206.176 338.271 205.919 337.274 205.406C336.277 204.878 335.492 204.152 334.92 203.228C334.363 202.304 334.084 201.255 334.084 200.082C334.084 198.894 334.363 197.845 334.92 196.936C335.492 196.012 336.277 195.293 337.274 194.78C338.271 194.252 339.408 193.988 340.684 193.988C341.931 193.988 343.016 194.252 343.94 194.78C344.864 195.293 345.546 196.034 345.986 197.002L343.324 198.432C343.016 197.875 342.627 197.464 342.158 197.2C341.703 196.936 341.205 196.804 340.662 196.804C340.075 196.804 339.547 196.936 339.078 197.2C338.609 197.464 338.235 197.838 337.956 198.322C337.692 198.806 337.56 199.393 337.56 200.082C337.56 200.771 337.692 201.358 337.956 201.842C338.235 202.326 338.609 202.7 339.078 202.964C339.547 203.228 340.075 203.36 340.662 203.36C341.205 203.36 341.703 203.235 342.158 202.986C342.627 202.722 343.016 202.304 343.324 201.732L345.986 203.184C345.546 204.137 344.864 204.878 343.94 205.406C343.016 205.919 341.931 206.176 340.684 206.176ZM353.686 206.176C352.336 206.176 351.148 205.912 350.122 205.384C349.11 204.856 348.325 204.137 347.768 203.228C347.21 202.304 346.932 201.255 346.932 200.082C346.932 198.894 347.203 197.845 347.746 196.936C348.303 196.012 349.058 195.293 350.012 194.78C350.965 194.252 352.043 193.988 353.246 193.988C354.404 193.988 355.446 194.237 356.37 194.736C357.308 195.22 358.049 195.924 358.592 196.848C359.134 197.757 359.406 198.85 359.406 200.126C359.406 200.258 359.398 200.412 359.384 200.588C359.369 200.749 359.354 200.903 359.34 201.05H349.726V199.048H357.536L356.216 199.642C356.216 199.026 356.091 198.491 355.842 198.036C355.592 197.581 355.248 197.229 354.808 196.98C354.368 196.716 353.854 196.584 353.268 196.584C352.681 196.584 352.16 196.716 351.706 196.98C351.266 197.229 350.921 197.589 350.672 198.058C350.422 198.513 350.298 199.055 350.298 199.686V200.214C350.298 200.859 350.437 201.431 350.716 201.93C351.009 202.414 351.412 202.788 351.926 203.052C352.454 203.301 353.07 203.426 353.774 203.426C354.404 203.426 354.954 203.331 355.424 203.14C355.908 202.949 356.348 202.663 356.744 202.282L358.57 204.262C358.027 204.878 357.345 205.355 356.524 205.692C355.702 206.015 354.756 206.176 353.686 206.176ZM365.672 206.176C364.66 206.176 363.685 206.059 362.746 205.824C361.822 205.575 361.089 205.267 360.546 204.9L361.69 202.436C362.233 202.773 362.871 203.052 363.604 203.272C364.352 203.477 365.086 203.58 365.804 203.58C366.596 203.58 367.154 203.485 367.476 203.294C367.814 203.103 367.982 202.839 367.982 202.502C367.982 202.223 367.85 202.018 367.586 201.886C367.337 201.739 367 201.629 366.574 201.556C366.149 201.483 365.68 201.409 365.166 201.336C364.668 201.263 364.162 201.167 363.648 201.05C363.135 200.918 362.666 200.727 362.24 200.478C361.815 200.229 361.47 199.891 361.206 199.466C360.957 199.041 360.832 198.491 360.832 197.816C360.832 197.068 361.045 196.408 361.47 195.836C361.91 195.264 362.541 194.817 363.362 194.494C364.184 194.157 365.166 193.988 366.31 193.988C367.117 193.988 367.938 194.076 368.774 194.252C369.61 194.428 370.307 194.685 370.864 195.022L369.72 197.464C369.148 197.127 368.569 196.899 367.982 196.782C367.41 196.65 366.853 196.584 366.31 196.584C365.548 196.584 364.99 196.687 364.638 196.892C364.286 197.097 364.11 197.361 364.11 197.684C364.11 197.977 364.235 198.197 364.484 198.344C364.748 198.491 365.093 198.608 365.518 198.696C365.944 198.784 366.406 198.865 366.904 198.938C367.418 198.997 367.931 199.092 368.444 199.224C368.958 199.356 369.42 199.547 369.83 199.796C370.256 200.031 370.6 200.361 370.864 200.786C371.128 201.197 371.26 201.739 371.26 202.414C371.26 203.147 371.04 203.8 370.6 204.372C370.16 204.929 369.522 205.369 368.686 205.692C367.865 206.015 366.86 206.176 365.672 206.176ZM377.36 206.176C376.348 206.176 375.373 206.059 374.434 205.824C373.51 205.575 372.777 205.267 372.234 204.9L373.378 202.436C373.921 202.773 374.559 203.052 375.292 203.272C376.04 203.477 376.773 203.58 377.492 203.58C378.284 203.58 378.841 203.485 379.164 203.294C379.501 203.103 379.67 202.839 379.67 202.502C379.67 202.223 379.538 202.018 379.274 201.886C379.025 201.739 378.687 201.629 378.262 201.556C377.837 201.483 377.367 201.409 376.854 201.336C376.355 201.263 375.849 201.167 375.336 201.05C374.823 200.918 374.353 200.727 373.928 200.478C373.503 200.229 373.158 199.891 372.894 199.466C372.645 199.041 372.52 198.491 372.52 197.816C372.52 197.068 372.733 196.408 373.158 195.836C373.598 195.264 374.229 194.817 375.05 194.494C375.871 194.157 376.854 193.988 377.998 193.988C378.805 193.988 379.626 194.076 380.462 194.252C381.298 194.428 381.995 194.685 382.552 195.022L381.408 197.464C380.836 197.127 380.257 196.899 379.67 196.782C379.098 196.65 378.541 196.584 377.998 196.584C377.235 196.584 376.678 196.687 376.326 196.892C375.974 197.097 375.798 197.361 375.798 197.684C375.798 197.977 375.923 198.197 376.172 198.344C376.436 198.491 376.781 198.608 377.206 198.696C377.631 198.784 378.093 198.865 378.592 198.938C379.105 198.997 379.619 199.092 380.132 199.224C380.645 199.356 381.107 199.547 381.518 199.796C381.943 200.031 382.288 200.361 382.552 200.786C382.816 201.197 382.948 201.739 382.948 202.414C382.948 203.147 382.728 203.8 382.288 204.372C381.848 204.929 381.21 205.369 380.374 205.692C379.553 206.015 378.548 206.176 377.36 206.176ZM390.697 206.176C389.436 206.176 388.314 205.912 387.331 205.384C386.363 204.856 385.593 204.137 385.021 203.228C384.464 202.304 384.185 201.255 384.185 200.082C384.185 198.894 384.464 197.845 385.021 196.936C385.593 196.012 386.363 195.293 387.331 194.78C388.314 194.252 389.436 193.988 390.697 193.988C391.944 193.988 393.059 194.252 394.041 194.78C395.024 195.293 395.794 196.005 396.351 196.914C396.909 197.823 397.187 198.879 397.187 200.082C397.187 201.255 396.909 202.304 396.351 203.228C395.794 204.137 395.024 204.856 394.041 205.384C393.059 205.912 391.944 206.176 390.697 206.176ZM390.697 203.36C391.269 203.36 391.783 203.228 392.237 202.964C392.692 202.7 393.051 202.326 393.315 201.842C393.579 201.343 393.711 200.757 393.711 200.082C393.711 199.393 393.579 198.806 393.315 198.322C393.051 197.838 392.692 197.464 392.237 197.2C391.783 196.936 391.269 196.804 390.697 196.804C390.125 196.804 389.612 196.936 389.157 197.2C388.703 197.464 388.336 197.838 388.057 198.322C387.793 198.806 387.661 199.393 387.661 200.082C387.661 200.757 387.793 201.343 388.057 201.842C388.336 202.326 388.703 202.7 389.157 202.964C389.612 203.228 390.125 203.36 390.697 203.36ZM412.972 206V203.69L412.752 203.184V199.048C412.752 198.315 412.525 197.743 412.07 197.332C411.63 196.921 410.948 196.716 410.024 196.716C409.393 196.716 408.77 196.819 408.154 197.024C407.553 197.215 407.039 197.479 406.614 197.816L405.382 195.418C406.027 194.963 406.805 194.611 407.714 194.362C408.623 194.113 409.547 193.988 410.486 193.988C412.29 193.988 413.691 194.413 414.688 195.264C415.685 196.115 416.184 197.442 416.184 199.246V206H412.972ZM409.364 206.176C408.44 206.176 407.648 206.022 406.988 205.714C406.328 205.391 405.822 204.959 405.47 204.416C405.118 203.873 404.942 203.265 404.942 202.59C404.942 201.886 405.111 201.27 405.448 200.742C405.8 200.214 406.35 199.803 407.098 199.51C407.846 199.202 408.821 199.048 410.024 199.048H413.17V201.05H410.398C409.591 201.05 409.034 201.182 408.726 201.446C408.433 201.71 408.286 202.04 408.286 202.436C408.286 202.876 408.455 203.228 408.792 203.492C409.144 203.741 409.621 203.866 410.222 203.866C410.794 203.866 411.307 203.734 411.762 203.47C412.217 203.191 412.547 202.788 412.752 202.26L413.28 203.844C413.031 204.607 412.576 205.186 411.916 205.582C411.256 205.978 410.405 206.176 409.364 206.176ZM431.395 206.176C430.045 206.176 428.857 205.912 427.831 205.384C426.819 204.856 426.034 204.137 425.477 203.228C424.919 202.304 424.641 201.255 424.641 200.082C424.641 198.894 424.912 197.845 425.455 196.936C426.012 196.012 426.767 195.293 427.721 194.78C428.674 194.252 429.752 193.988 430.955 193.988C432.113 193.988 433.155 194.237 434.079 194.736C435.017 195.22 435.758 195.924 436.301 196.848C436.843 197.757 437.115 198.85 437.115 200.126C437.115 200.258 437.107 200.412 437.093 200.588C437.078 200.749 437.063 200.903 437.049 201.05H427.435V199.048H435.245L433.925 199.642C433.925 199.026 433.8 198.491 433.551 198.036C433.301 197.581 432.957 197.229 432.517 196.98C432.077 196.716 431.563 196.584 430.977 196.584C430.39 196.584 429.869 196.716 429.415 196.98C428.975 197.229 428.63 197.589 428.381 198.058C428.131 198.513 428.007 199.055 428.007 199.686V200.214C428.007 200.859 428.146 201.431 428.425 201.93C428.718 202.414 429.121 202.788 429.635 203.052C430.163 203.301 430.779 203.426 431.483 203.426C432.113 203.426 432.663 203.331 433.133 203.14C433.617 202.949 434.057 202.663 434.453 202.282L436.279 204.262C435.736 204.878 435.054 205.355 434.233 205.692C433.411 206.015 432.465 206.176 431.395 206.176ZM443.381 206.176C442.369 206.176 441.394 206.059 440.455 205.824C439.531 205.575 438.798 205.267 438.255 204.9L439.399 202.436C439.942 202.773 440.58 203.052 441.313 203.272C442.061 203.477 442.795 203.58 443.513 203.58C444.305 203.58 444.863 203.485 445.185 203.294C445.523 203.103 445.691 202.839 445.691 202.502C445.691 202.223 445.559 202.018 445.295 201.886C445.046 201.739 444.709 201.629 444.283 201.556C443.858 201.483 443.389 201.409 442.875 201.336C442.377 201.263 441.871 201.167 441.357 201.05C440.844 200.918 440.375 200.727 439.949 200.478C439.524 200.229 439.179 199.891 438.915 199.466C438.666 199.041 438.541 198.491 438.541 197.816C438.541 197.068 438.754 196.408 439.179 195.836C439.619 195.264 440.25 194.817 441.071 194.494C441.893 194.157 442.875 193.988 444.019 193.988C444.826 193.988 445.647 194.076 446.483 194.252C447.319 194.428 448.016 194.685 448.573 195.022L447.429 197.464C446.857 197.127 446.278 196.899 445.691 196.782C445.119 196.65 444.562 196.584 444.019 196.584C443.257 196.584 442.699 196.687 442.347 196.892C441.995 197.097 441.819 197.361 441.819 197.684C441.819 197.977 441.944 198.197 442.193 198.344C442.457 198.491 442.802 198.608 443.227 198.696C443.653 198.784 444.115 198.865 444.613 198.938C445.127 198.997 445.64 199.092 446.153 199.224C446.667 199.356 447.129 199.547 447.539 199.796C447.965 200.031 448.309 200.361 448.573 200.786C448.837 201.197 448.969 201.739 448.969 202.414C448.969 203.147 448.749 203.8 448.309 204.372C447.869 204.929 447.231 205.369 446.395 205.692C445.574 206.015 444.569 206.176 443.381 206.176ZM455.069 206.176C454.057 206.176 453.082 206.059 452.143 205.824C451.219 205.575 450.486 205.267 449.943 204.9L451.087 202.436C451.63 202.773 452.268 203.052 453.001 203.272C453.749 203.477 454.482 203.58 455.201 203.58C455.993 203.58 456.55 203.485 456.873 203.294C457.21 203.103 457.379 202.839 457.379 202.502C457.379 202.223 457.247 202.018 456.983 201.886C456.734 201.739 456.396 201.629 455.971 201.556C455.546 201.483 455.076 201.409 454.563 201.336C454.064 201.263 453.558 201.167 453.045 201.05C452.532 200.918 452.062 200.727 451.637 200.478C451.212 200.229 450.867 199.891 450.603 199.466C450.354 199.041 450.229 198.491 450.229 197.816C450.229 197.068 450.442 196.408 450.867 195.836C451.307 195.264 451.938 194.817 452.759 194.494C453.58 194.157 454.563 193.988 455.707 193.988C456.514 193.988 457.335 194.076 458.171 194.252C459.007 194.428 459.704 194.685 460.261 195.022L459.117 197.464C458.545 197.127 457.966 196.899 457.379 196.782C456.807 196.65 456.25 196.584 455.707 196.584C454.944 196.584 454.387 196.687 454.035 196.892C453.683 197.097 453.507 197.361 453.507 197.684C453.507 197.977 453.632 198.197 453.881 198.344C454.145 198.491 454.49 198.608 454.915 198.696C455.34 198.784 455.802 198.865 456.301 198.938C456.814 198.997 457.328 199.092 457.841 199.224C458.354 199.356 458.816 199.547 459.227 199.796C459.652 200.031 459.997 200.361 460.261 200.786C460.525 201.197 460.657 201.739 460.657 202.414C460.657 203.147 460.437 203.8 459.997 204.372C459.557 204.929 458.919 205.369 458.083 205.692C457.262 206.015 456.257 206.176 455.069 206.176ZM470.034 206V203.69L469.814 203.184V199.048C469.814 198.315 469.587 197.743 469.132 197.332C468.692 196.921 468.01 196.716 467.086 196.716C466.456 196.716 465.832 196.819 465.216 197.024C464.615 197.215 464.102 197.479 463.676 197.816L462.444 195.418C463.09 194.963 463.867 194.611 464.776 194.362C465.686 194.113 466.61 193.988 467.548 193.988C469.352 193.988 470.753 194.413 471.75 195.264C472.748 196.115 473.246 197.442 473.246 199.246V206H470.034ZM466.426 206.176C465.502 206.176 464.71 206.022 464.05 205.714C463.39 205.391 462.884 204.959 462.532 204.416C462.18 203.873 462.004 203.265 462.004 202.59C462.004 201.886 462.173 201.27 462.51 200.742C462.862 200.214 463.412 199.803 464.16 199.51C464.908 199.202 465.884 199.048 467.086 199.048H470.232V201.05H467.46C466.654 201.05 466.096 201.182 465.788 201.446C465.495 201.71 465.348 202.04 465.348 202.436C465.348 202.876 465.517 203.228 465.854 203.492C466.206 203.741 466.683 203.866 467.284 203.866C467.856 203.866 468.37 203.734 468.824 203.47C469.279 203.191 469.609 202.788 469.814 202.26L470.342 203.844C470.093 204.607 469.638 205.186 468.978 205.582C468.318 205.978 467.468 206.176 466.426 206.176ZM283.845 233.176C282.847 233.176 281.975 232.956 281.227 232.516C280.479 232.076 279.892 231.409 279.467 230.514C279.056 229.605 278.851 228.461 278.851 227.082C278.851 225.689 279.049 224.545 279.445 223.65C279.841 222.755 280.413 222.088 281.161 221.648C281.909 221.208 282.803 220.988 283.845 220.988C284.959 220.988 285.957 221.245 286.837 221.758C287.731 222.257 288.435 222.961 288.949 223.87C289.477 224.779 289.741 225.85 289.741 227.082C289.741 228.329 289.477 229.407 288.949 230.316C288.435 231.225 287.731 231.929 286.837 232.428C285.957 232.927 284.959 233.176 283.845 233.176ZM276.849 237.268V221.164H280.127V223.584L280.061 227.104L280.281 230.602V237.268H276.849ZM283.251 230.36C283.823 230.36 284.329 230.228 284.769 229.964C285.223 229.7 285.583 229.326 285.847 228.842C286.125 228.343 286.265 227.757 286.265 227.082C286.265 226.393 286.125 225.806 285.847 225.322C285.583 224.838 285.223 224.464 284.769 224.2C284.329 223.936 283.823 223.804 283.251 223.804C282.679 223.804 282.165 223.936 281.711 224.2C281.256 224.464 280.897 224.838 280.633 225.322C280.369 225.806 280.237 226.393 280.237 227.082C280.237 227.757 280.369 228.343 280.633 228.842C280.897 229.326 281.256 229.7 281.711 229.964C282.165 230.228 282.679 230.36 283.251 230.36ZM299.105 233V230.69L298.885 230.184V226.048C298.885 225.315 298.657 224.743 298.203 224.332C297.763 223.921 297.081 223.716 296.157 223.716C295.526 223.716 294.903 223.819 294.287 224.024C293.685 224.215 293.172 224.479 292.747 224.816L291.515 222.418C292.16 221.963 292.937 221.611 293.847 221.362C294.756 221.113 295.68 220.988 296.619 220.988C298.423 220.988 299.823 221.413 300.821 222.264C301.818 223.115 302.317 224.442 302.317 226.246V233H299.105ZM295.497 233.176C294.573 233.176 293.781 233.022 293.121 232.714C292.461 232.391 291.955 231.959 291.603 231.416C291.251 230.873 291.075 230.265 291.075 229.59C291.075 228.886 291.243 228.27 291.581 227.742C291.933 227.214 292.483 226.803 293.231 226.51C293.979 226.202 294.954 226.048 296.157 226.048H299.303V228.05H296.531C295.724 228.05 295.167 228.182 294.859 228.446C294.565 228.71 294.419 229.04 294.419 229.436C294.419 229.876 294.587 230.228 294.925 230.492C295.277 230.741 295.753 230.866 296.355 230.866C296.927 230.866 297.44 230.734 297.895 230.47C298.349 230.191 298.679 229.788 298.885 229.26L299.413 230.844C299.163 231.607 298.709 232.186 298.049 232.582C297.389 232.978 296.538 233.176 295.497 233.176ZM294.969 219.646L297.939 216.478H301.635L297.653 219.646H294.969ZM311.075 237.444C309.96 237.444 308.882 237.305 307.841 237.026C306.814 236.762 305.956 236.359 305.267 235.816L306.631 233.352C307.129 233.763 307.76 234.085 308.523 234.32C309.3 234.569 310.063 234.694 310.811 234.694C312.028 234.694 312.908 234.423 313.451 233.88C314.008 233.337 314.287 232.531 314.287 231.46V229.678L314.507 226.708L314.463 223.716V221.164H317.719V231.02C317.719 233.22 317.147 234.841 316.003 235.882C314.859 236.923 313.216 237.444 311.075 237.444ZM310.547 232.428C309.447 232.428 308.449 232.193 307.555 231.724C306.675 231.24 305.963 230.573 305.421 229.722C304.893 228.857 304.629 227.852 304.629 226.708C304.629 225.549 304.893 224.545 305.421 223.694C305.963 222.829 306.675 222.161 307.555 221.692C308.449 221.223 309.447 220.988 310.547 220.988C311.544 220.988 312.424 221.193 313.187 221.604C313.949 222 314.543 222.623 314.969 223.474C315.394 224.31 315.607 225.388 315.607 226.708C315.607 228.013 315.394 229.091 314.969 229.942C314.543 230.778 313.949 231.401 313.187 231.812C312.424 232.223 311.544 232.428 310.547 232.428ZM311.229 229.612C311.83 229.612 312.365 229.495 312.835 229.26C313.304 229.011 313.671 228.666 313.935 228.226C314.199 227.786 314.331 227.28 314.331 226.708C314.331 226.121 314.199 225.615 313.935 225.19C313.671 224.75 313.304 224.413 312.835 224.178C312.365 223.929 311.83 223.804 311.229 223.804C310.627 223.804 310.092 223.929 309.623 224.178C309.153 224.413 308.779 224.75 308.501 225.19C308.237 225.615 308.105 226.121 308.105 226.708C308.105 227.28 308.237 227.786 308.501 228.226C308.779 228.666 309.153 229.011 309.623 229.26C310.092 229.495 310.627 229.612 311.229 229.612ZM320.913 233V221.164H324.345V233H320.913ZM322.629 219.514C321.998 219.514 321.485 219.331 321.089 218.964C320.693 218.597 320.495 218.143 320.495 217.6C320.495 217.057 320.693 216.603 321.089 216.236C321.485 215.869 321.998 215.686 322.629 215.686C323.26 215.686 323.773 215.862 324.169 216.214C324.565 216.551 324.763 216.991 324.763 217.534C324.763 218.106 324.565 218.583 324.169 218.964C323.788 219.331 323.274 219.514 322.629 219.514ZM334.724 220.988C335.663 220.988 336.499 221.179 337.232 221.56C337.98 221.927 338.567 222.499 338.992 223.276C339.418 224.039 339.63 225.021 339.63 226.224V233H336.198V226.752C336.198 225.799 335.986 225.095 335.56 224.64C335.15 224.185 334.563 223.958 333.8 223.958C333.258 223.958 332.766 224.075 332.326 224.31C331.901 224.53 331.564 224.875 331.314 225.344C331.08 225.813 330.962 226.415 330.962 227.148V233H327.53V221.164H330.808V224.442L330.192 223.452C330.618 222.66 331.226 222.051 332.018 221.626C332.81 221.201 333.712 220.988 334.724 220.988ZM350.001 233V230.69L349.781 230.184V226.048C349.781 225.315 349.554 224.743 349.099 224.332C348.659 223.921 347.977 223.716 347.053 223.716C346.423 223.716 345.799 223.819 345.183 224.024C344.582 224.215 344.069 224.479 343.643 224.816L342.411 222.418C343.057 221.963 343.834 221.611 344.743 221.362C345.653 221.113 346.577 220.988 347.515 220.988C349.319 220.988 350.72 221.413 351.717 222.264C352.715 223.115 353.213 224.442 353.213 226.246V233H350.001ZM346.393 233.176C345.469 233.176 344.677 233.022 344.017 232.714C343.357 232.391 342.851 231.959 342.499 231.416C342.147 230.873 341.971 230.265 341.971 229.59C341.971 228.886 342.14 228.27 342.477 227.742C342.829 227.214 343.379 226.803 344.127 226.51C344.875 226.202 345.851 226.048 347.053 226.048H350.199V228.05H347.427C346.621 228.05 346.063 228.182 345.755 228.446C345.462 228.71 345.315 229.04 345.315 229.436C345.315 229.876 345.484 230.228 345.821 230.492C346.173 230.741 346.65 230.866 347.251 230.866C347.823 230.866 348.337 230.734 348.791 230.47C349.246 230.191 349.576 229.788 349.781 229.26L350.309 230.844C350.06 231.607 349.605 232.186 348.945 232.582C348.285 232.978 347.435 233.176 346.393 233.176Z" fill="black"/>
</svg>
