<svg width="598" height="377" viewBox="0 0 598 377" fill="none" xmlns="http://www.w3.org/2000/svg">
<path d="M151.855 229.76C215.317 229.76 266.763 178.326 266.763 114.88C266.763 51.4335 215.317 0 151.855 0C88.3933 0 36.9473 51.4335 36.9473 114.88C36.9473 178.326 88.3933 229.76 151.855 229.76Z" fill="#F2F2F2"/>
<path d="M40.3047 103.737C40.3047 103.737 48.621 103.481 51.1273 101.696C53.6336 99.9122 63.9198 97.7816 64.5416 100.643C65.1634 103.505 77.0394 114.875 67.6504 114.951C58.2613 115.027 45.8344 113.489 43.3329 111.966C40.8314 110.442 40.3047 103.737 40.3047 103.737Z" fill="#A8A8A8"/>
<path opacity="0.2" d="M67.8179 113.956C58.4289 114.031 46.002 112.494 43.5005 110.97C41.5955 109.81 40.8363 105.647 40.5823 103.727C40.4064 103.734 40.3047 103.737 40.3047 103.737C40.3047 103.737 40.8314 110.443 43.3329 111.966C45.8344 113.49 58.2613 115.027 67.6504 114.952C70.3606 114.93 71.2968 113.966 71.2454 112.538C70.8689 113.401 69.8352 113.939 67.8179 113.956Z" fill="black"/>
<path d="M101.144 242.672C156.86 242.672 202.026 236.529 202.026 228.951C202.026 221.373 156.86 215.23 101.144 215.23C45.4289 215.23 0.262695 221.373 0.262695 228.951C0.262695 236.529 45.4289 242.672 101.144 242.672Z" fill="#3F3D56"/>
<path opacity="0.1" d="M101.145 240.471C147.922 240.471 185.842 235.313 185.842 228.951C185.842 222.589 147.922 217.432 101.145 217.432C54.3676 217.432 16.4473 222.589 16.4473 228.951C16.4473 235.313 54.3676 240.471 101.145 240.471Z" fill="black"/>
<path d="M445.329 377C529.647 377 598 367.703 598 356.235C598 344.767 529.647 335.471 445.329 335.471C361.011 335.471 292.658 344.767 292.658 356.235C292.658 367.703 361.011 377 445.329 377Z" fill="#3F3D56"/>
<path d="M161.565 360.619C212.215 360.619 253.276 355.034 253.276 348.145C253.276 341.256 212.215 335.672 161.565 335.672C110.915 335.672 69.8545 341.256 69.8545 348.145C69.8545 355.034 110.915 360.619 161.565 360.619Z" fill="#3F3D56"/>
<path d="M243.565 337.629C292.118 350.034 385.447 321.448 395.697 289.088" stroke="#2F2E41" stroke-width="2" stroke-miterlimit="10"/>
<path d="M161.026 139.69C161.026 139.69 231.158 120.273 235.474 182.837C239.79 245.401 177.75 263.199 226.303 275.604" stroke="#2F2E41" stroke-width="2" stroke-miterlimit="10"/>
<path d="M93.2695 289.78C93.2695 289.78 114.348 283.944 115.645 302.748C116.942 321.552 98.2959 326.901 112.889 330.63" stroke="#2F2E41" stroke-width="2" stroke-miterlimit="10"/>
<path d="M414.091 303.779L409.841 330.905C409.841 330.905 388.919 342.017 403.63 342.344C418.34 342.671 487.644 342.344 487.644 342.344C487.644 342.344 501.047 342.344 479.798 330.578L475.548 302.145L414.091 303.779Z" fill="#2F2E41"/>
<path opacity="0.1" d="M400.671 342.049C404.012 339.077 409.841 335.981 409.841 335.981L414.091 308.854L475.549 308.912L479.798 335.654C484.754 338.398 487.823 340.501 489.619 342.114C492.348 341.492 495.33 339.178 479.798 330.578L475.549 302.145L414.091 303.779L409.841 330.905C409.841 330.905 392.261 340.243 400.671 342.049Z" fill="black"/>
<path d="M573.201 114.711H315.785C310.408 114.711 306.05 119.068 306.05 124.444V297.804C306.05 303.179 310.408 307.536 315.785 307.536H573.201C578.578 307.536 582.937 303.179 582.937 297.804V124.444C582.937 119.068 578.578 114.711 573.201 114.711Z" fill="#2F2E41"/>
<path d="M573.619 125.006H315.366V269.462H573.619V125.006Z" fill="#3F3D56"/>
<path d="M361.364 195.663C360.379 195.663 359.505 195.857 358.741 196.244C357.989 196.62 357.352 197.168 356.832 197.888C356.323 198.607 355.936 199.476 355.67 200.494C355.404 201.512 355.271 202.658 355.271 203.931C355.271 205.646 355.482 207.113 355.902 208.33C356.334 209.536 356.998 210.461 357.895 211.103C358.791 211.733 359.948 212.049 361.364 212.049C362.349 212.049 363.334 211.938 364.319 211.717C365.315 211.495 366.395 211.18 367.557 210.771V215.087C366.483 215.53 365.426 215.845 364.386 216.033C363.345 216.232 362.178 216.332 360.883 216.332C358.382 216.332 356.323 215.817 354.707 214.788C353.102 213.748 351.912 212.298 351.138 210.438C350.363 208.568 349.976 206.388 349.976 203.897C349.976 202.06 350.225 200.378 350.723 198.851C351.221 197.323 351.951 196.001 352.914 194.883C353.877 193.765 355.067 192.902 356.483 192.293C357.9 191.684 359.527 191.38 361.364 191.38C362.571 191.38 363.777 191.535 364.983 191.845C366.201 192.144 367.363 192.559 368.47 193.09L366.81 197.273C365.902 196.842 364.989 196.465 364.07 196.145C363.152 195.824 362.25 195.663 361.364 195.663ZM389.205 206.687C389.205 208.236 388.995 209.608 388.574 210.804C388.165 211.999 387.562 213.012 386.765 213.842C385.979 214.661 385.027 215.281 383.909 215.701C382.802 216.122 381.552 216.332 380.157 216.332C378.851 216.332 377.65 216.122 376.555 215.701C375.47 215.281 374.524 214.661 373.716 213.842C372.919 213.012 372.299 211.999 371.856 210.804C371.425 209.608 371.209 208.236 371.209 206.687C371.209 204.628 371.574 202.885 372.305 201.457C373.035 200.029 374.076 198.945 375.426 198.203C376.776 197.462 378.386 197.091 380.257 197.091C381.994 197.091 383.533 197.462 384.872 198.203C386.222 198.945 387.279 200.029 388.043 201.457C388.818 202.885 389.205 204.628 389.205 206.687ZM376.372 206.687C376.372 207.904 376.505 208.928 376.771 209.758C377.036 210.588 377.451 211.213 378.016 211.634C378.58 212.054 379.316 212.265 380.224 212.265C381.12 212.265 381.845 212.054 382.398 211.634C382.963 211.213 383.372 210.588 383.627 209.758C383.893 208.928 384.025 207.904 384.025 206.687C384.025 205.458 383.893 204.44 383.627 203.632C383.372 202.813 382.963 202.199 382.398 201.789C381.834 201.38 381.098 201.175 380.19 201.175C378.851 201.175 377.877 201.634 377.269 202.553C376.671 203.471 376.372 204.849 376.372 206.687ZM386.748 189.952V190.301C386.427 190.611 386.007 190.993 385.486 191.446C384.966 191.9 384.407 192.376 383.81 192.874C383.212 193.361 382.625 193.831 382.05 194.285C381.474 194.728 380.971 195.099 380.539 195.397H377.169V194.949C377.534 194.529 377.955 194.031 378.431 193.455C378.918 192.868 379.399 192.265 379.875 191.646C380.351 191.026 380.749 190.461 381.07 189.952H386.748ZM399.266 216.332C397.196 216.332 395.508 215.524 394.202 213.908C392.907 212.281 392.26 209.896 392.26 206.753C392.26 203.576 392.918 201.175 394.235 199.548C395.552 197.91 397.273 197.091 399.398 197.091C400.284 197.091 401.064 197.213 401.739 197.456C402.414 197.7 402.995 198.026 403.482 198.436C403.98 198.845 404.401 199.304 404.744 199.813H404.91C404.844 199.459 404.761 198.939 404.661 198.253C404.573 197.556 404.528 196.842 404.528 196.111V190.168H409.608V216H405.724L404.744 213.593H404.528C404.207 214.102 403.803 214.567 403.316 214.987C402.84 215.397 402.271 215.723 401.606 215.967C400.942 216.21 400.162 216.332 399.266 216.332ZM401.042 212.298C402.425 212.298 403.399 211.888 403.964 211.069C404.539 210.239 404.844 208.994 404.877 207.334V206.786C404.877 204.982 404.6 203.604 404.047 202.652C403.493 201.689 402.464 201.208 400.959 201.208C399.841 201.208 398.967 201.689 398.336 202.652C397.705 203.615 397.39 205.004 397.39 206.819C397.39 208.634 397.705 210.001 398.336 210.92C398.978 211.839 399.88 212.298 401.042 212.298ZM419.968 197.439V216H414.904V197.439H419.968ZM417.444 190.168C418.197 190.168 418.844 190.345 419.387 190.699C419.929 191.042 420.2 191.69 420.2 192.642C420.2 193.582 419.929 194.235 419.387 194.601C418.844 194.955 418.197 195.132 417.444 195.132C416.681 195.132 416.028 194.955 415.485 194.601C414.954 194.235 414.688 193.582 414.688 192.642C414.688 191.69 414.954 191.042 415.485 190.699C416.028 190.345 416.681 190.168 417.444 190.168ZM430.726 224.168C428.136 224.168 426.155 223.714 424.782 222.807C423.421 221.91 422.74 220.648 422.74 219.021C422.74 217.904 423.089 216.968 423.786 216.216C424.483 215.463 425.507 214.926 426.857 214.605C426.337 214.384 425.883 214.024 425.496 213.526C425.109 213.017 424.915 212.48 424.915 211.916C424.915 211.208 425.12 210.621 425.529 210.156C425.939 209.68 426.531 209.215 427.306 208.762C426.332 208.341 425.557 207.666 424.981 206.736C424.417 205.807 424.135 204.711 424.135 203.449C424.135 202.099 424.428 200.953 425.015 200.013C425.612 199.061 426.476 198.336 427.604 197.838C428.744 197.34 430.128 197.091 431.755 197.091C432.098 197.091 432.496 197.113 432.95 197.157C433.404 197.201 433.819 197.251 434.195 197.307C434.583 197.362 434.843 197.406 434.976 197.439H441.45V200.013L438.545 200.76C438.811 201.169 439.01 201.606 439.143 202.071C439.275 202.536 439.342 203.029 439.342 203.549C439.342 205.541 438.645 207.096 437.25 208.214C435.867 209.321 433.941 209.874 431.473 209.874C430.886 209.841 430.333 209.797 429.812 209.741C429.558 209.94 429.364 210.151 429.231 210.372C429.099 210.593 429.032 210.826 429.032 211.069C429.032 211.313 429.132 211.518 429.331 211.684C429.541 211.839 429.851 211.96 430.261 212.049C430.681 212.126 431.201 212.165 431.821 212.165H434.976C437.012 212.165 438.562 212.602 439.624 213.477C440.698 214.351 441.234 215.635 441.234 217.328C441.234 219.497 440.327 221.18 438.512 222.375C436.708 223.57 434.112 224.168 430.726 224.168ZM430.941 220.864C432.148 220.864 433.183 220.748 434.046 220.516C434.92 220.294 435.59 219.973 436.055 219.553C436.52 219.143 436.752 218.651 436.752 218.075C436.752 217.61 436.614 217.24 436.337 216.963C436.071 216.697 435.662 216.509 435.108 216.398C434.566 216.288 433.869 216.232 433.017 216.232H430.394C429.774 216.232 429.215 216.332 428.717 216.531C428.23 216.73 427.842 217.007 427.555 217.361C427.267 217.727 427.123 218.147 427.123 218.623C427.123 219.32 427.455 219.868 428.119 220.267C428.794 220.665 429.735 220.864 430.941 220.864ZM431.755 206.786C432.707 206.786 433.404 206.493 433.847 205.906C434.289 205.32 434.511 204.523 434.511 203.516C434.511 202.398 434.278 201.562 433.813 201.009C433.36 200.444 432.674 200.162 431.755 200.162C430.825 200.162 430.128 200.444 429.663 201.009C429.198 201.562 428.966 202.398 428.966 203.516C428.966 204.523 429.193 205.32 429.646 205.906C430.111 206.493 430.814 206.786 431.755 206.786ZM461.389 206.687C461.389 208.236 461.178 209.608 460.758 210.804C460.348 211.999 459.745 213.012 458.948 213.842C458.162 214.661 457.211 215.281 456.093 215.701C454.986 216.122 453.735 216.332 452.341 216.332C451.035 216.332 449.834 216.122 448.738 215.701C447.654 215.281 446.707 214.661 445.899 213.842C445.103 213.012 444.483 211.999 444.04 210.804C443.608 209.608 443.393 208.236 443.393 206.687C443.393 204.628 443.758 202.885 444.488 201.457C445.219 200.029 446.259 198.945 447.609 198.203C448.96 197.462 450.57 197.091 452.44 197.091C454.178 197.091 455.716 197.462 457.056 198.203C458.406 198.945 459.463 200.029 460.227 201.457C461.001 202.885 461.389 204.628 461.389 206.687ZM448.556 206.687C448.556 207.904 448.688 208.928 448.954 209.758C449.22 210.588 449.635 211.213 450.199 211.634C450.764 212.054 451.5 212.265 452.407 212.265C453.304 212.265 454.029 212.054 454.582 211.634C455.146 211.213 455.556 210.588 455.811 209.758C456.076 208.928 456.209 207.904 456.209 206.687C456.209 205.458 456.076 204.44 455.811 203.632C455.556 202.813 455.146 202.199 454.582 201.789C454.018 201.38 453.282 201.175 452.374 201.175C451.035 201.175 450.061 201.634 449.452 202.553C448.854 203.471 448.556 204.849 448.556 206.687ZM464.858 213.626C464.858 212.586 465.141 211.855 465.705 211.435C466.281 211.014 466.972 210.804 467.78 210.804C468.566 210.804 469.241 211.014 469.806 211.435C470.381 211.855 470.669 212.586 470.669 213.626C470.669 214.622 470.381 215.341 469.806 215.784C469.241 216.227 468.566 216.448 467.78 216.448C466.972 216.448 466.281 216.227 465.705 215.784C465.141 215.341 464.858 214.622 464.858 213.626ZM464.858 199.913C464.858 198.873 465.141 198.142 465.705 197.722C466.281 197.301 466.972 197.091 467.78 197.091C468.566 197.091 469.241 197.301 469.806 197.722C470.381 198.142 470.669 198.873 470.669 199.913C470.669 200.92 470.381 201.645 469.806 202.088C469.241 202.52 468.566 202.735 467.78 202.735C466.972 202.735 466.281 202.52 465.705 202.088C465.141 201.645 464.858 200.92 464.858 199.913ZM491.637 200.494C493.12 200.494 494.437 200.776 495.588 201.341C496.75 201.905 497.663 202.735 498.327 203.831C498.991 204.927 499.323 206.277 499.323 207.882C499.323 209.631 498.958 211.141 498.228 212.414C497.508 213.676 496.429 214.644 494.99 215.319C493.562 215.994 491.781 216.332 489.645 216.332C488.372 216.332 487.171 216.221 486.042 216C484.924 215.79 483.945 215.463 483.104 215.021V210.588C483.945 211.031 484.952 211.407 486.125 211.717C487.309 212.016 488.422 212.165 489.462 212.165C490.48 212.165 491.338 212.032 492.035 211.767C492.732 211.49 493.258 211.069 493.612 210.505C493.978 209.929 494.16 209.199 494.16 208.313C494.16 207.129 493.762 206.222 492.965 205.591C492.168 204.96 490.945 204.645 489.296 204.645C488.665 204.645 488.007 204.705 487.32 204.827C486.645 204.949 486.081 205.071 485.627 205.192L483.585 204.097L484.498 191.729H497.663V196.078H488.997L488.549 200.843C488.925 200.765 489.335 200.688 489.777 200.61C490.22 200.533 490.84 200.494 491.637 200.494ZM519.096 203.864C519.096 205.823 518.941 207.572 518.631 209.11C518.332 210.649 517.845 211.955 517.17 213.028C516.506 214.102 515.632 214.921 514.547 215.485C513.462 216.05 512.145 216.332 510.596 216.332C508.648 216.332 507.049 215.84 505.798 214.854C504.547 213.858 503.623 212.431 503.025 210.571C502.428 208.701 502.129 206.465 502.129 203.864C502.129 201.241 502.4 199 502.942 197.141C503.496 195.27 504.392 193.837 505.632 192.841C506.871 191.845 508.526 191.347 510.596 191.347C512.533 191.347 514.126 191.845 515.377 192.841C516.639 193.826 517.574 195.254 518.183 197.124C518.791 198.983 519.096 201.23 519.096 203.864ZM507.226 203.864C507.226 205.713 507.325 207.257 507.524 208.496C507.735 209.725 508.083 210.649 508.57 211.269C509.057 211.888 509.732 212.198 510.596 212.198C511.448 212.198 512.118 211.894 512.604 211.285C513.103 210.665 513.457 209.741 513.667 208.513C513.877 207.273 513.982 205.724 513.982 203.864C513.982 202.016 513.877 200.472 513.667 199.232C513.457 197.993 513.103 197.063 512.604 196.443C512.118 195.812 511.448 195.497 510.596 195.497C509.732 195.497 509.057 195.812 508.57 196.443C508.083 197.063 507.735 197.993 507.524 199.232C507.325 200.472 507.226 202.016 507.226 203.864ZM537.739 197.157C537.739 198.275 537.507 199.243 537.042 200.062C536.577 200.882 535.946 201.551 535.149 202.071C534.364 202.591 533.478 202.973 532.493 203.217V203.316C534.441 203.56 535.919 204.158 536.926 205.109C537.944 206.061 538.453 207.334 538.453 208.928C538.453 210.344 538.104 211.612 537.407 212.729C536.721 213.847 535.659 214.727 534.22 215.369C532.781 216.011 530.927 216.332 528.658 216.332C527.319 216.332 526.068 216.221 524.906 216C523.755 215.79 522.671 215.463 521.652 215.021V210.654C522.693 211.186 523.783 211.59 524.923 211.866C526.063 212.132 527.125 212.265 528.11 212.265C529.948 212.265 531.231 211.949 531.962 211.318C532.703 210.676 533.074 209.78 533.074 208.629C533.074 207.954 532.903 207.384 532.56 206.919C532.216 206.454 531.619 206.1 530.767 205.856C529.925 205.613 528.747 205.491 527.23 205.491H525.388V201.557H527.264C528.758 201.557 529.892 201.418 530.667 201.142C531.453 200.854 531.984 200.466 532.261 199.979C532.549 199.481 532.692 198.917 532.692 198.286C532.692 197.423 532.427 196.748 531.896 196.261C531.364 195.774 530.479 195.53 529.239 195.53C528.465 195.53 527.756 195.63 527.114 195.829C526.483 196.017 525.913 196.25 525.404 196.526C524.895 196.792 524.447 197.052 524.06 197.307L521.686 193.771C522.637 193.084 523.75 192.514 525.022 192.061C526.306 191.607 527.834 191.38 529.604 191.38C532.106 191.38 534.087 191.883 535.548 192.891C537.009 193.898 537.739 195.32 537.739 197.157Z" fill="white"/>
<path d="M444.493 122.065C445.396 122.065 446.127 121.333 446.127 120.431C446.127 119.528 445.396 118.797 444.493 118.797C443.59 118.797 442.858 119.528 442.858 120.431C442.858 121.333 443.59 122.065 444.493 122.065Z" fill="#F2F2F2"/>
<path d="M582.937 280.9V297.804C582.937 299.082 582.685 300.347 582.196 301.528C581.707 302.709 580.99 303.782 580.086 304.686C579.181 305.59 578.108 306.307 576.927 306.796C575.746 307.285 574.48 307.537 573.201 307.536H315.785C314.507 307.537 313.241 307.285 312.059 306.796C310.878 306.307 309.805 305.59 308.901 304.686C307.997 303.782 307.28 302.709 306.791 301.528C306.301 300.347 306.05 299.082 306.05 297.804V280.9H582.937Z" fill="#2F2E41"/>
<path d="M516.738 359.992V363.261H340.864V360.646L341.106 359.992L345.441 348.227H513.142L516.738 359.992Z" fill="#2F2E41"/>
<path d="M584.42 356.792C584.1 358.162 582.89 359.606 580.158 360.973C570.35 365.875 550.409 359.665 550.409 359.665C550.409 359.665 535.045 357.051 535.045 350.187C535.476 349.892 535.926 349.625 536.392 349.387C540.515 347.206 554.186 341.824 578.426 349.614C580.212 350.175 581.807 351.22 583.034 352.633C584.016 353.783 584.786 355.241 584.42 356.792Z" fill="#2F2E41"/>
<path opacity="0.1" d="M584.42 356.792C572.416 361.391 561.717 361.734 550.736 354.109C545.198 350.266 540.167 349.315 536.392 349.387C540.515 347.206 554.186 341.824 578.426 349.614C580.212 350.175 581.807 351.22 583.034 352.633C584.016 353.783 584.786 355.241 584.42 356.792Z" fill="black"/>
<path d="M569.37 354.109C571.717 354.109 573.62 353.523 573.62 352.801C573.62 352.079 571.717 351.494 569.37 351.494C567.023 351.494 565.12 352.079 565.12 352.801C565.12 353.523 567.023 354.109 569.37 354.109Z" fill="#F2F2F2"/>
<path d="M444.492 300.511C447.923 300.511 450.704 297.731 450.704 294.301C450.704 290.872 447.923 288.092 444.492 288.092C441.062 288.092 438.281 290.872 438.281 294.301C438.281 297.731 441.062 300.511 444.492 300.511Z" fill="#F2F2F2"/>
<path opacity="0.1" d="M516.738 359.992V363.261H340.864V360.646L341.106 359.992H516.738Z" fill="black"/>
<path d="M164.802 85.7559H52.5918V216.277H164.802V85.7559Z" fill="#2F2E41"/>
<path d="M176.131 72.8105H41.2627V119.194H176.131V72.8105Z" fill="#3F3D56"/>
<path d="M176.131 127.824H41.2627V174.208H176.131V127.824Z" fill="#3F3D56"/>
<path d="M176.131 182.836H41.2627V229.219H176.131V182.836Z" fill="#3F3D56"/>
<path opacity="0.4" d="M149.158 80.9004H140.526V89.5299H149.158V80.9004Z" fill="#DB1E2F"/>
<path opacity="0.8" d="M161.565 80.9004H152.934V89.5299H161.565V80.9004Z" fill="#DB1E2F"/>
<path d="M173.973 80.9004H165.342V89.5299H173.973V80.9004Z" fill="#DB1E2F"/>
<path opacity="0.4" d="M149.158 135.375H140.526V144.004H149.158V135.375Z" fill="#DB1E2F"/>
<path opacity="0.8" d="M161.565 135.375H152.934V144.004H161.565V135.375Z" fill="#DB1E2F"/>
<path d="M173.973 135.375H165.342V144.004H173.973V135.375Z" fill="#DB1E2F"/>
<path opacity="0.4" d="M149.158 189.848H140.526V198.477H149.158V189.848Z" fill="#DB1E2F"/>
<path opacity="0.8" d="M161.565 189.848H152.934V198.477H161.565V189.848Z" fill="#DB1E2F"/>
<path d="M173.973 189.848H165.342V198.477H173.973V189.848Z" fill="#DB1E2F"/>
<path d="M164.802 332.775C188.34 332.775 207.42 313.698 207.42 290.167C207.42 266.635 188.34 247.559 164.802 247.559C141.265 247.559 122.184 266.635 122.184 290.167C122.184 313.698 141.265 332.775 164.802 332.775Z" fill="#2F2E41"/>
<path d="M158.328 323.605H145.381V346.797H158.328V323.605Z" fill="#2F2E41"/>
<path d="M184.224 323.605H171.276V346.797H184.224V323.605Z" fill="#2F2E41"/>
<path d="M156.17 351.112C162.129 351.112 166.96 349.301 166.96 347.067C166.96 344.833 162.129 343.021 156.17 343.021C150.211 343.021 145.381 344.833 145.381 347.067C145.381 349.301 150.211 351.112 156.17 351.112Z" fill="#2F2E41"/>
<path d="M182.066 350.573C188.025 350.573 192.855 348.762 192.855 346.527C192.855 344.293 188.025 342.482 182.066 342.482C176.107 342.482 171.276 344.293 171.276 346.527C171.276 348.762 176.107 350.573 182.066 350.573Z" fill="#2F2E41"/>
<path d="M165.881 293.941C173.926 293.941 180.447 287.421 180.447 279.379C180.447 271.336 173.926 264.816 165.881 264.816C157.837 264.816 151.315 271.336 151.315 279.379C151.315 287.421 157.837 293.941 165.881 293.941Z" fill="white"/>
<path d="M165.882 284.234C168.563 284.234 170.737 282.06 170.737 279.379C170.737 276.699 168.563 274.525 165.882 274.525C163.2 274.525 161.026 276.699 161.026 279.379C161.026 282.06 163.2 284.234 165.882 284.234Z" fill="#3F3D56"/>
<path d="M123.461 250.541C120.02 235.134 131.02 219.565 148.031 215.767C165.042 211.97 181.621 221.382 185.063 236.79C188.504 252.197 177.23 257.88 160.219 261.677C143.209 265.475 126.902 265.949 123.461 250.541Z" fill="#DB1E2F"/>
<path d="M204.775 281.668C215.594 277.039 223.186 270.533 221.733 267.137C220.279 263.741 210.33 264.742 199.51 269.371C188.691 274.001 181.098 280.507 182.552 283.902C184.006 287.298 193.955 286.298 204.775 281.668Z" fill="#2F2E41"/>
<path d="M124.932 310.252C135.751 305.623 143.344 299.117 141.89 295.721C140.436 292.325 130.487 293.326 119.667 297.955C108.848 302.585 101.256 309.091 102.709 312.486C104.163 315.882 114.112 314.882 124.932 310.252Z" fill="#2F2E41"/>
<path d="M189.618 302.57C189.618 306.741 178.878 314.975 166.96 314.975C155.042 314.975 143.763 307.28 143.763 303.11C143.763 298.94 155.042 299.874 166.96 299.874C178.878 299.874 189.618 298.4 189.618 302.57Z" fill="white"/>
</svg>
