<svg width="482" height="430" viewBox="0 0 482 430" fill="none" xmlns="http://www.w3.org/2000/svg">
<path d="M55.2848 430L54.8654 429.845C40.6561 424.477 29.5237 413.12 24.4256 398.792C23.0443 394.81 22.169 390.67 21.8206 386.469L21.7863 386.068L22.1816 386.139C26.9005 386.987 31.8542 387.456 34.0614 387.639L21.6787 379.433L21.7011 379.006C21.8939 375 24.5011 371.514 28.2858 370.203C32.1065 368.789 36.4013 369.846 39.133 372.872C40.3641 374.211 41.6656 375.558 42.924 376.861C47.2489 381.338 51.7211 385.967 54.5489 391.432C58.8018 399.852 59.0326 409.745 55.1771 418.356L55.2848 430H55.2848Z" fill="#F2F2F2"/>
<path d="M305.832 422.048L305.827 422.003C305.28 409.831 303.05 397.793 299.201 386.235L299.197 386.215C298.973 385.028 299.038 383.804 299.387 382.648C300.462 379.334 303.796 377.305 307.228 377.875C310.774 378.543 314.441 377.915 317.565 376.108C319.549 374.955 321.956 374.795 324.074 375.676C326.071 376.492 327.566 378.206 328.103 380.298C328.145 380.463 328.182 380.629 328.213 380.798C328.326 393.027 330.568 405.144 334.84 416.601L334.843 416.615C335.29 418.981 334.577 421.418 332.926 423.168C331.466 424.652 329.421 425.405 327.35 425.22C323.632 424.966 319.808 425.722 315.659 427.531C314.21 428.177 312.581 428.291 311.056 427.854C308.359 427.063 306.338 424.816 305.832 422.048Z" fill="#DB1E2F"/>
<path d="M186.973 254.838V414.683H298.778V254.838C298.782 252.478 297.248 250.392 294.997 249.695C294.48 249.524 293.938 249.44 293.394 249.446H192.372C189.396 249.44 186.978 251.852 186.973 254.833V254.838ZM230.606 309.761C230.666 303.159 236.059 297.857 242.651 297.917C249.157 297.977 254.416 303.245 254.476 309.761V328.308C254.445 334.91 249.076 340.237 242.484 340.206C235.937 340.175 230.637 334.866 230.606 328.308V309.761Z" fill="#F2F2F2"/>
<path d="M186.63 409.572V424.986C186.635 426.648 187.974 427.996 189.633 428.01H296.117C297.778 428.002 299.12 426.65 299.12 424.986V409.572H186.63Z" fill="#E6E6E6"/>
<path d="M11.0869 14.0115V305.866C11.093 313.61 17.3596 319.887 25.0918 319.893H456.909C464.641 319.887 470.908 313.61 470.914 305.866V14.0115C470.895 6.27471 464.633 0.00981436 456.909 0H25.0918C17.3672 0.00985292 11.1053 6.27473 11.0869 14.0115H11.0869Z" fill="#E6E6E6"/>
<path d="M453.306 10.1309H28.6938C24.5577 10.1399 21.2094 13.5005 21.209 17.6431V302.266C21.2161 306.403 24.563 309.755 28.6938 309.762H453.306C457.437 309.755 460.784 306.403 460.791 302.266V17.6431C460.79 13.5005 457.442 10.1399 453.306 10.1309V10.1309ZM346.196 212.343C344.927 214.854 342.353 216.434 339.543 216.428L339.498 216.425C335.428 215.857 331.342 215.482 327.241 215.301C327.878 215.758 328.438 216.313 328.901 216.945C330.091 218.653 330.457 220.804 329.898 222.81C328.971 226.426 329.015 230.329 330.034 234.745C330.403 236.289 330.219 237.915 329.512 239.337C328.243 241.848 325.668 243.429 322.858 243.422L322.814 243.419C313.093 242.063 303.251 241.8 293.471 242.636C293.433 242.883 293.384 243.13 293.321 243.378C292.393 246.993 292.437 250.897 293.456 255.312C293.826 256.856 293.641 258.482 292.934 259.904C291.665 262.415 289.091 263.996 286.281 263.989L286.236 263.986C276.253 262.594 266.143 262.356 256.105 263.275C256.029 265.786 256.289 268.296 256.879 270.737C257.248 272.282 257.064 273.907 256.357 275.329C255.088 277.841 252.514 279.421 249.703 279.415L249.659 279.411C237.61 277.73 225.386 277.73 213.337 279.411H213.318C212.111 279.416 210.922 279.129 209.85 278.573C206.793 276.91 205.409 273.258 206.595 269.981C206.959 268.95 207.23 267.888 207.404 266.808C196.361 265.533 185.202 265.665 174.193 267.2H174.173C172.967 267.204 171.778 266.917 170.706 266.362C167.648 264.699 166.265 261.046 167.451 257.77C168.753 254.4 168.806 250.674 167.602 247.268C167.034 245.671 167.034 243.927 167.601 242.329C159.301 241.906 150.98 242.271 142.749 243.419H142.73C141.523 243.424 140.334 243.136 139.262 242.581C136.205 240.918 134.821 237.265 136.007 233.989C137.309 230.619 137.363 226.893 136.158 223.487C135.388 221.323 135.671 218.924 136.922 216.998C138.087 215.18 140.042 214.021 142.194 213.874C142.363 213.863 142.533 213.857 142.705 213.857C146.922 214.595 151.18 215.077 155.455 215.3C152.728 213.504 151.585 210.07 152.692 206.995C153.994 203.625 154.047 199.899 152.842 196.493C152.073 194.329 152.355 191.929 153.606 190.004C153.66 189.921 153.723 189.848 153.78 189.767C150.738 189.978 147.703 190.294 144.674 190.716H144.655C143.449 190.72 142.259 190.433 141.187 189.878C138.13 188.215 136.746 184.562 137.933 181.286C139.234 177.916 139.288 174.19 138.083 170.784C137.313 168.62 137.596 166.221 138.847 164.295C140.012 162.477 141.967 161.318 144.119 161.171C144.288 161.16 144.458 161.154 144.63 161.154C149.701 162.043 154.829 162.56 159.975 162.701C158.663 160.806 158.34 158.394 159.109 156.22C160.411 152.85 160.464 149.124 159.259 145.718C158.49 143.554 158.772 141.154 160.023 139.229C161.188 137.411 163.144 136.252 165.295 136.105C165.465 136.094 165.634 136.088 165.806 136.088C170.097 136.839 174.431 137.325 178.782 137.543C177.847 135.77 177.694 133.687 178.36 131.796C179.662 128.426 179.716 124.701 178.511 121.295C177.741 119.131 178.024 116.731 179.275 114.806C180.439 112.987 182.395 111.829 184.547 111.681C184.716 111.67 184.886 111.664 185.057 111.664C190.107 112.549 195.214 113.066 200.338 113.209C199.64 111.559 199.583 109.706 200.178 108.016C201.48 104.646 201.534 100.92 200.329 97.514C199.559 95.35 199.842 92.9503 201.093 91.0249C202.258 89.2067 204.213 88.048 206.365 87.9008C206.534 87.8895 206.704 87.8835 206.876 87.8835C218.902 90.0035 231.205 90.0051 243.231 87.8882H243.246C244.174 88.0798 245.132 88.0798 246.06 87.8882H246.075C258.102 90.0051 270.405 90.0035 282.431 87.8835C282.602 87.8835 282.772 87.8895 282.941 87.9008C285.093 88.048 287.049 89.2067 288.214 91.0249C289.465 92.9503 289.747 95.35 288.977 97.514C287.773 100.92 287.826 104.646 289.128 108.016C289.723 109.706 289.666 111.559 288.968 113.209C294.093 113.066 299.199 112.549 304.249 111.664C304.42 111.664 304.59 111.67 304.759 111.681C306.911 111.829 308.867 112.987 310.032 114.806C311.283 116.731 311.565 119.131 310.796 121.295C309.591 124.701 309.644 128.426 310.946 131.796C311.612 133.687 311.459 135.77 310.525 137.543C314.876 137.325 319.209 136.839 323.5 136.088C323.672 136.088 323.842 136.094 324.011 136.105C326.163 136.252 328.118 137.411 329.283 139.229C330.534 141.154 330.816 143.554 330.047 145.718C328.842 149.124 328.895 152.85 330.197 156.22C330.968 158.4 330.642 160.818 329.322 162.715C329.895 163.148 330.402 163.663 330.826 164.242C332.017 165.95 332.382 168.101 331.823 170.107C330.896 173.723 330.94 177.626 331.959 182.042C332.328 183.586 332.144 185.212 331.437 186.634C331.178 187.14 330.863 187.615 330.498 188.051C333.502 187.786 336.499 187.392 339.488 186.867H339.503C341.907 186.859 344.169 188.006 345.586 189.951C346.776 191.659 347.142 193.81 346.583 195.816C345.655 199.431 345.699 203.335 346.718 207.75C347.088 209.295 346.903 210.921 346.196 212.343L346.196 212.343Z" fill="white"/>
<path d="M439.534 49.3388H42.2262C41.3536 49.3195 40.6618 48.5954 40.6811 47.7214C40.6997 46.8746 41.3807 46.1925 42.2262 46.1738H439.534C440.407 46.1931 441.099 46.9172 441.079 47.7912C441.061 48.638 440.38 49.3201 439.534 49.3388Z" fill="#E6E6E6"/>
<path d="M245.68 271.833L245.635 271.83C233.586 270.148 221.363 270.148 209.314 271.83H209.294C208.088 271.834 206.898 271.547 205.827 270.992C202.769 269.328 201.385 265.676 202.572 262.4C203.874 259.03 203.927 255.304 202.722 251.898C201.953 249.734 202.235 247.334 203.486 245.409C204.651 243.591 206.606 242.432 208.758 242.285C208.928 242.274 209.097 242.268 209.269 242.268C221.295 244.388 233.598 244.389 245.625 242.272H245.64C248.044 242.264 250.306 243.411 251.723 245.356C252.913 247.064 253.279 249.215 252.72 251.221C251.792 254.836 251.836 258.74 252.855 263.155C253.225 264.7 253.04 266.326 252.333 267.748C251.064 270.259 248.49 271.839 245.68 271.833Z" fill="#DB1E2F"/>
<path d="M282.734 208.816L273.041 200.781C265.772 204.597 254.711 219.833 254.711 219.833L229.194 238.214C226.13 238.36 223.764 240.966 223.91 244.036C224.056 247.105 226.658 249.474 229.723 249.328C231.711 249.233 233.497 248.08 234.404 246.305L269.074 227.955L282.734 208.816V208.816Z" fill="#FFB8B8"/>
<path d="M299.088 178.238C304.683 182.984 305.377 191.374 300.639 196.977C300.108 197.605 299.52 198.182 298.882 198.701L292.718 203.72C292.718 203.72 277.342 225.89 269.339 228.462L248.792 239.213L239.527 229.91L258.149 214.71C258.149 214.71 266.714 206.596 267.571 200.656C268.097 197.019 274.243 187.11 280.404 179.761C285.133 174.174 293.488 173.484 299.067 178.22L299.088 178.238V178.238Z" fill="#3F3D56"/>
<path d="M279.168 418.843L270.41 418.843L266.244 385.01L279.169 385.01L279.168 418.843Z" fill="#FFB6B6"/>
<path d="M279.475 427.994L252.545 427.993V427.652C252.545 421.854 257.238 417.154 263.027 417.154H263.028L267.947 413.416L277.125 417.154L279.476 417.155L279.475 427.994Z" fill="#2F2E41"/>
<path d="M345.895 372.677L341.747 380.402L310.022 368.056L316.144 356.654L345.895 372.677Z" fill="#FFB6B6"/>
<path d="M354.087 376.737L341.334 400.494L341.034 400.332C335.935 397.586 334.024 391.221 336.765 386.114L336.766 386.113L335.808 380.004L343.442 373.677L344.555 371.604L354.087 376.737Z" fill="#2F2E41"/>
<path d="M262.61 263.908L254.881 325.841L258.746 346.604L328.31 377.128L332.174 364.548C314.393 353.651 295.385 337.157 283.408 335.945C283.408 335.945 282.414 324.954 290.995 318.171C292.726 316.803 292.347 314.951 293.047 313.273C293.529 312.119 295.444 310.917 295.934 309.733C296.57 308.199 295.783 306.674 296.422 305.115C296.782 304.238 298.144 304.183 298.501 303.306C299.11 301.809 298.711 299.492 299.305 298.013C300.573 294.854 301.793 291.764 302.906 288.868C306.372 279.852 308.811 272.709 308.503 271.166C307.537 266.327 262.61 263.908 262.61 263.908Z" fill="#2F2E41"/>
<path d="M261.279 325.662L257.235 351.816L267.441 405.192H280.968C285.827 387.258 286.078 363.686 281.451 343.744L261.279 325.662Z" fill="#2F2E41"/>
<path d="M269.969 188.238L276.204 177.356L282.899 171.976L295.459 170.041L298.949 172.728C311.507 191.952 316.19 215.282 312.026 237.874L311.046 243.191L310.423 246.567L310.693 250.602L308.597 256.476L308.885 260.777L309.039 263.074L309.194 265.38L309.409 268.598C309.796 270.435 307.851 270.192 308.126 271.811C308.609 274.655 310.775 278.868 307.484 278.881L273.474 271.811C264.833 271.847 256.789 261.528 265.131 253.173L269.969 188.238H269.969Z" fill="#3F3D56"/>
<path d="M285.888 167.011C295.01 167.011 302.404 159.605 302.404 150.469C302.404 141.334 295.01 133.928 285.888 133.928C276.767 133.928 269.373 141.334 269.373 150.469C269.373 159.605 276.767 167.011 285.888 167.011Z" fill="#FFB8B8"/>
<path d="M286.168 166.54C288.585 166.578 291 166.409 293.388 166.035C295.755 165.553 301.05 161.667 302.526 159.328C303.622 157.591 304.323 154.877 304.719 152.907C305.795 147.635 304.589 142.153 301.401 137.822C300.795 136.927 299.958 136.212 298.98 135.753C298.893 135.719 298.804 135.689 298.713 135.663C297.288 135.287 296.007 134.493 295.035 133.383C294.846 133.159 294.642 132.948 294.423 132.753C293.325 131.824 292.022 131.169 290.623 130.841C288.363 130.236 285.094 130.837 280.905 132.63C278.8 133.531 276.499 133.205 274.728 132.82C274.526 132.781 274.318 132.852 274.183 133.007C273.429 133.716 272.436 134.112 271.403 134.117C270.77 134.145 270.106 135.023 269.304 136.167C269.121 136.427 268.909 136.73 268.756 136.914L268.735 136.56L268.377 136.955C266.535 138.989 266.688 142.132 268.718 143.977C269.264 144.472 269.913 144.84 270.618 145.054C271.254 145.223 271.907 145.327 272.564 145.364C272.963 145.4 273.375 145.437 273.77 145.506C276.348 146.035 278.46 147.882 279.33 150.369C279.695 151.388 280.815 151.918 281.832 151.553C281.992 151.495 282.144 151.417 282.283 151.321C283.118 150.67 284.219 150.469 285.229 150.783C285.66 151.023 285.995 151.404 286.178 151.861C286.401 152.371 286.771 152.803 287.239 153.101C288.843 153.93 288.954 157.599 288.378 160.657C287.823 163.606 286.725 165.738 285.709 165.844C284.926 165.925 284.837 165.98 284.78 166.119L284.73 166.243L284.818 166.359C285.25 166.516 285.71 166.578 286.168 166.54Z" fill="#2F2E41"/>
<path d="M252.738 156.786L252.694 156.783C240.645 155.101 228.421 155.101 216.372 156.783H216.353C215.147 156.787 213.957 156.5 212.885 155.945C209.828 154.282 208.444 150.629 209.631 147.353C210.932 143.983 210.986 140.257 209.781 136.851C209.011 134.687 209.294 132.287 210.545 130.362C211.71 128.544 213.665 127.385 215.817 127.238C215.986 127.227 216.156 127.221 216.328 127.221C228.354 129.341 240.657 129.342 252.683 127.225H252.698C255.102 127.217 257.365 128.364 258.781 130.309C259.972 132.017 260.337 134.168 259.778 136.174C258.851 139.79 258.895 143.693 259.914 148.109C260.284 149.653 260.099 151.279 259.392 152.701C258.123 155.212 255.549 156.793 252.738 156.786Z" fill="#DB1E2F"/>
<path d="M268.183 195.746L275.017 185.164C270.384 178.38 253.984 169.158 253.984 169.158L232.776 145.924C232.273 142.893 229.412 140.844 226.385 141.348C223.359 141.851 221.313 144.717 221.816 147.748C222.143 149.715 223.495 151.357 225.362 152.051L247.608 184.394L268.183 195.746H268.183Z" fill="#FFB8B8"/>
<path d="M300.415 208.438C296.363 214.558 288.125 216.229 282.015 212.171C281.33 211.716 280.689 211.199 280.1 210.625L274.403 205.08C274.403 205.08 250.522 192.591 247.036 184.93L231.389 162.7L241.881 153.221L260.117 169.825C260.117 169.825 268.513 179.549 274.503 179.708C278.171 179.805 288.715 184.762 296.722 190.031C302.815 194.082 304.475 202.313 300.431 208.415L300.415 208.438Z" fill="#3F3D56"/>
<path d="M141.329 427.897L141.285 427.894C129.236 426.213 117.012 426.213 104.963 427.894H104.944C103.737 427.899 102.548 427.611 101.476 427.056C98.4186 425.393 97.0349 421.74 98.2214 418.464C99.5233 415.094 99.5766 411.369 98.3718 407.962C97.6021 405.799 97.8846 403.399 99.1357 401.473C100.301 399.655 102.256 398.497 104.408 398.349C104.577 398.338 104.747 398.332 104.919 398.332C116.945 400.452 129.248 400.454 141.274 398.337H141.289C143.693 398.328 145.956 399.475 147.372 401.42C148.562 403.128 148.928 405.279 148.369 407.286C147.442 410.901 147.486 414.805 148.505 419.22C148.874 420.765 148.69 422.39 147.983 423.812C146.714 426.323 144.14 427.904 141.329 427.897H141.329Z" fill="#DB1E2F"/>
<path d="M151.596 400.903L151.551 400.9C139.502 399.218 127.279 399.218 115.23 400.9H115.21C114.004 400.905 112.814 400.617 111.743 400.062C108.685 398.399 107.301 394.746 108.488 391.47C109.79 388.1 109.843 384.374 108.638 380.968C107.869 378.804 108.151 376.405 109.402 374.479C110.567 372.661 112.522 371.502 114.674 371.355C114.844 371.344 115.013 371.338 115.185 371.338C127.211 373.458 139.514 373.46 151.541 371.343H151.556C153.96 371.334 156.222 372.481 157.639 374.426C158.829 376.134 159.195 378.285 158.636 380.291C157.708 383.907 157.752 387.81 158.771 392.226C159.141 393.77 158.956 395.396 158.249 396.818C156.98 399.329 154.406 400.91 151.596 400.903H151.596Z" fill="#DB1E2F"/>
<path d="M61.749 408.263L61.7765 408.228C69.9184 399.174 76.7675 389.034 82.1283 378.096L82.1393 378.08C82.8114 377.076 83.7156 376.25 84.775 375.673C87.8637 374.068 91.6597 374.967 93.7042 377.787C95.7616 380.755 98.8127 382.887 102.304 383.796C104.525 384.37 106.351 385.949 107.243 388.065C108.094 390.051 107.956 392.322 106.872 394.19C106.787 394.336 106.696 394.481 106.6 394.623C98.1086 403.412 91.2136 413.617 86.2255 424.78L86.2171 424.793C84.8771 426.792 82.6611 428.026 80.2585 428.111C78.1793 428.142 76.1954 427.24 74.8496 425.652C72.3795 422.857 69.1266 420.706 64.9044 419.077C63.4199 418.518 62.1791 417.454 61.3993 416.071C60.0335 413.611 60.1688 410.59 61.749 408.263Z" fill="#DB1E2F"/>
<path d="M481.24 428.878L0.76009 429.076C0.338108 429.074 -0.0021968 428.729 1.06791e-05 428.306C0.00219249 427.887 0.34122 427.547 0.76009 427.545L481.24 427.348C481.662 427.35 482.002 427.694 482 428.117C481.998 428.536 481.659 428.876 481.24 428.878Z" fill="#CACACA"/>
<path d="M102.835 34.6479C105.832 34.6479 108.262 32.1602 108.262 29.0915C108.262 26.0228 105.832 23.5352 102.835 23.5352C99.8378 23.5352 97.4082 26.0228 97.4082 29.0915C97.4082 32.1602 99.8378 34.6479 102.835 34.6479Z" fill="#3F3D56"/>
<path d="M121.582 34.6479C124.579 34.6479 127.009 32.1602 127.009 29.0915C127.009 26.0228 124.579 23.5352 121.582 23.5352C118.585 23.5352 116.155 26.0228 116.155 29.0915C116.155 32.1602 118.585 34.6479 121.582 34.6479Z" fill="#3F3D56"/>
<path d="M140.328 34.6479C143.325 34.6479 145.755 32.1602 145.755 29.0915C145.755 26.0228 143.325 23.5352 140.328 23.5352C137.331 23.5352 134.901 26.0228 134.901 29.0915C134.901 32.1602 137.331 34.6479 140.328 34.6479Z" fill="#3F3D56"/>
<path d="M161.705 33.484C161.538 33.484 161.372 33.4193 161.246 33.2907L157.584 29.5417C157.34 29.2919 157.34 28.8927 157.584 28.6429L161.246 24.8942C161.495 24.6406 161.901 24.6365 162.153 24.8841C162.407 25.1324 162.411 25.5394 162.163 25.793L158.941 29.0923L162.163 32.3919C162.411 32.6454 162.407 33.0525 162.153 33.3007C162.029 33.4231 161.867 33.484 161.705 33.484Z" fill="#3F3D56"/>
<path d="M167.858 33.4825C167.696 33.4825 167.534 33.4216 167.409 33.2992C167.155 33.051 167.151 32.6443 167.399 32.3904L170.621 29.0908L167.399 25.7915C167.151 25.5379 167.155 25.1309 167.409 24.8827C167.662 24.6341 168.068 24.6388 168.316 24.8927L171.978 28.6414C172.222 28.8912 172.222 29.2904 171.978 29.5402L168.316 33.2892C168.191 33.4179 168.024 33.4825 167.858 33.4825Z" fill="#3F3D56"/>
<path d="M359.414 24.1777H352.606C351.829 24.1777 351.2 24.8076 351.2 25.5853V32.411C351.2 33.1887 351.829 33.8186 352.606 33.8186H359.414C360.191 33.8186 360.826 33.1887 360.826 32.411V25.5853C360.826 24.8076 360.191 24.1777 359.414 24.1777Z" fill="#3F3D56"/>
<path d="M342.729 24.1777H335.921C335.144 24.1777 334.516 24.8076 334.516 25.5853V32.411C334.516 33.1887 335.144 33.8186 335.921 33.8186H342.729C343.506 33.8186 344.141 33.1887 344.141 32.411V25.5853C344.141 24.8076 343.506 24.1777 342.729 24.1777Z" fill="#3F3D56"/>
<path d="M375.136 24.5H368.327C367.551 24.5 366.922 25.1299 366.922 25.9076V32.7333C366.922 33.511 367.551 34.1408 368.327 34.1408H375.136C375.912 34.1408 376.548 33.511 376.548 32.7333V25.9076C376.548 25.1299 375.912 24.5 375.136 24.5Z" fill="#3F3D56"/>
<path d="M272.513 27.0957H218.089C217.14 27.0957 216.376 27.867 216.376 28.8118C216.376 29.7566 217.14 30.5278 218.089 30.5278H272.513C273.456 30.5278 274.226 29.7566 274.226 28.8118C274.226 27.867 273.456 27.0957 272.513 27.0957Z" fill="#3F3D56"/>
<path d="M160.364 61.6631C159.379 61.6631 158.505 61.8568 157.741 62.2441C156.989 62.6204 156.352 63.1683 155.832 63.8877C155.323 64.6071 154.936 65.4759 154.67 66.4941C154.404 67.5124 154.271 68.6579 154.271 69.9307C154.271 71.6462 154.482 73.1126 154.902 74.3301C155.334 75.5365 155.998 76.4606 156.895 77.1025C157.791 77.7334 158.948 78.0488 160.364 78.0488C161.349 78.0488 162.334 77.9382 163.319 77.7168C164.315 77.4954 165.395 77.18 166.557 76.7705V81.0869C165.483 81.5296 164.426 81.8451 163.386 82.0332C162.345 82.2324 161.178 82.332 159.883 82.332C157.382 82.332 155.323 81.8174 153.707 80.7881C152.102 79.7477 150.912 78.2979 150.138 76.4385C149.363 74.568 148.976 72.3877 148.976 69.8975C148.976 68.0602 149.225 66.3779 149.723 64.8506C150.221 63.3232 150.951 62.0007 151.914 60.8828C152.877 59.765 154.067 58.9017 155.483 58.293C156.9 57.6842 158.527 57.3799 160.364 57.3799C161.571 57.3799 162.777 57.5348 163.983 57.8447C165.201 58.1436 166.363 58.5586 167.47 59.0898L165.81 63.2734C164.902 62.8418 163.989 62.4655 163.07 62.1445C162.152 61.8236 161.25 61.6631 160.364 61.6631ZM188.205 72.6865C188.205 74.236 187.995 75.6084 187.574 76.8037C187.165 77.999 186.562 79.0117 185.765 79.8418C184.979 80.6608 184.027 81.2806 182.909 81.7012C181.802 82.1217 180.552 82.332 179.157 82.332C177.851 82.332 176.65 82.1217 175.555 81.7012C174.47 81.2806 173.524 80.6608 172.716 79.8418C171.919 79.0117 171.299 77.999 170.856 76.8037C170.425 75.6084 170.209 74.236 170.209 72.6865C170.209 70.6279 170.574 68.8848 171.305 67.457C172.035 66.0293 173.076 64.9447 174.426 64.2031C175.776 63.4616 177.386 63.0908 179.257 63.0908C180.994 63.0908 182.533 63.4616 183.872 64.2031C185.222 64.9447 186.279 66.0293 187.043 67.457C187.818 68.8848 188.205 70.6279 188.205 72.6865ZM175.372 72.6865C175.372 73.904 175.505 74.9277 175.771 75.7578C176.036 76.5879 176.451 77.2132 177.016 77.6338C177.58 78.0544 178.316 78.2646 179.224 78.2646C180.12 78.2646 180.845 78.0544 181.398 77.6338C181.963 77.2132 182.372 76.5879 182.627 75.7578C182.893 74.9277 183.025 73.904 183.025 72.6865C183.025 71.458 182.893 70.4398 182.627 69.6318C182.372 68.8128 181.963 68.1986 181.398 67.7891C180.834 67.3796 180.098 67.1748 179.19 67.1748C177.851 67.1748 176.877 67.6341 176.269 68.5527C175.671 69.4714 175.372 70.8493 175.372 72.6865ZM185.748 55.9521V56.3008C185.427 56.6107 185.007 56.9925 184.486 57.4463C183.966 57.9001 183.407 58.376 182.81 58.874C182.212 59.361 181.625 59.8314 181.05 60.2852C180.474 60.7279 179.971 61.0986 179.539 61.3975H176.169V60.9492C176.534 60.5286 176.955 60.0306 177.431 59.4551C177.918 58.8685 178.399 58.2653 178.875 57.6455C179.351 57.0257 179.749 56.4613 180.07 55.9521H185.748ZM198.266 82.332C196.196 82.332 194.508 81.5241 193.202 79.9082C191.907 78.2812 191.26 75.8962 191.26 72.7529C191.26 69.5765 191.918 67.1748 193.235 65.5479C194.552 63.9098 196.273 63.0908 198.398 63.0908C199.284 63.0908 200.064 63.2126 200.739 63.4561C201.414 63.6995 201.995 64.026 202.482 64.4355C202.98 64.8451 203.401 65.3044 203.744 65.8135H203.91C203.844 65.4593 203.761 64.9391 203.661 64.2529C203.573 63.5557 203.528 62.8418 203.528 62.1113V56.168H208.608V82H204.724L203.744 79.5928H203.528C203.207 80.1019 202.803 80.5667 202.316 80.9873C201.84 81.3968 201.271 81.7233 200.606 81.9668C199.942 82.2103 199.162 82.332 198.266 82.332ZM200.042 78.2979C201.425 78.2979 202.399 77.8883 202.964 77.0693C203.539 76.2393 203.844 74.9941 203.877 73.334V72.7861C203.877 70.9821 203.6 69.6042 203.047 68.6523C202.493 67.6895 201.464 67.208 199.959 67.208C198.841 67.208 197.967 67.6895 197.336 68.6523C196.705 69.6152 196.39 71.0042 196.39 72.8193C196.39 74.6344 196.705 76.0013 197.336 76.9199C197.978 77.8385 198.88 78.2979 200.042 78.2979ZM218.968 63.4395V82H213.904V63.4395H218.968ZM216.444 56.168C217.197 56.168 217.844 56.3451 218.387 56.6992C218.929 57.0423 219.2 57.6898 219.2 58.6416C219.2 59.5824 218.929 60.2354 218.387 60.6006C217.844 60.9548 217.197 61.1318 216.444 61.1318C215.681 61.1318 215.028 60.9548 214.485 60.6006C213.954 60.2354 213.688 59.5824 213.688 58.6416C213.688 57.6898 213.954 57.0423 214.485 56.6992C215.028 56.3451 215.681 56.168 216.444 56.168ZM229.726 90.168C227.136 90.168 225.155 89.7142 223.782 88.8066C222.421 87.9102 221.74 86.6484 221.74 85.0215C221.74 83.9036 222.089 82.9684 222.786 82.2158C223.483 81.4632 224.507 80.9264 225.857 80.6055C225.337 80.3841 224.883 80.0244 224.496 79.5264C224.109 79.0173 223.915 78.4805 223.915 77.916C223.915 77.2077 224.12 76.6211 224.529 76.1562C224.939 75.6803 225.531 75.2155 226.306 74.7617C225.332 74.3411 224.557 73.666 223.981 72.7363C223.417 71.8066 223.135 70.7109 223.135 69.4492C223.135 68.099 223.428 66.9535 224.015 66.0127C224.612 65.0609 225.476 64.3359 226.604 63.8379C227.744 63.3398 229.128 63.0908 230.755 63.0908C231.098 63.0908 231.496 63.113 231.95 63.1572C232.404 63.2015 232.819 63.2513 233.195 63.3066C233.583 63.362 233.843 63.4062 233.976 63.4395H240.45V66.0127L237.545 66.7598C237.811 67.1693 238.01 67.6064 238.143 68.0713C238.275 68.5361 238.342 69.0286 238.342 69.5488C238.342 71.541 237.645 73.096 236.25 74.2139C234.867 75.3206 232.941 75.874 230.473 75.874C229.886 75.8408 229.333 75.7965 228.812 75.7412C228.558 75.9404 228.364 76.1507 228.231 76.3721C228.099 76.5934 228.032 76.8258 228.032 77.0693C228.032 77.3128 228.132 77.5176 228.331 77.6836C228.541 77.8385 228.851 77.9603 229.261 78.0488C229.681 78.1263 230.201 78.165 230.821 78.165H233.976C236.012 78.165 237.562 78.6022 238.624 79.4766C239.698 80.3509 240.234 81.6348 240.234 83.3281C240.234 85.4974 239.327 87.1797 237.512 88.375C235.708 89.5703 233.112 90.168 229.726 90.168ZM229.941 86.8643C231.148 86.8643 232.183 86.748 233.046 86.5156C233.92 86.2943 234.59 85.9733 235.055 85.5527C235.52 85.1432 235.752 84.6507 235.752 84.0752C235.752 83.6104 235.614 83.2396 235.337 82.9629C235.071 82.6973 234.662 82.5091 234.108 82.3984C233.566 82.2878 232.869 82.2324 232.017 82.2324H229.394C228.774 82.2324 228.215 82.332 227.717 82.5312C227.23 82.7305 226.842 83.0072 226.555 83.3613C226.267 83.7266 226.123 84.1471 226.123 84.623C226.123 85.3203 226.455 85.8682 227.119 86.2666C227.794 86.665 228.735 86.8643 229.941 86.8643ZM230.755 72.7861C231.707 72.7861 232.404 72.4928 232.847 71.9062C233.289 71.3197 233.511 70.5228 233.511 69.5156C233.511 68.3978 233.278 67.5622 232.813 67.0088C232.36 66.4443 231.674 66.1621 230.755 66.1621C229.825 66.1621 229.128 66.4443 228.663 67.0088C228.198 67.5622 227.966 68.3978 227.966 69.5156C227.966 70.5228 228.193 71.3197 228.646 71.9062C229.111 72.4928 229.814 72.7861 230.755 72.7861ZM260.389 72.6865C260.389 74.236 260.178 75.6084 259.758 76.8037C259.348 77.999 258.745 79.0117 257.948 79.8418C257.162 80.6608 256.211 81.2806 255.093 81.7012C253.986 82.1217 252.735 82.332 251.341 82.332C250.035 82.332 248.834 82.1217 247.738 81.7012C246.654 81.2806 245.707 80.6608 244.899 79.8418C244.103 79.0117 243.483 77.999 243.04 76.8037C242.608 75.6084 242.393 74.236 242.393 72.6865C242.393 70.6279 242.758 68.8848 243.488 67.457C244.219 66.0293 245.259 64.9447 246.609 64.2031C247.96 63.4616 249.57 63.0908 251.44 63.0908C253.178 63.0908 254.716 63.4616 256.056 64.2031C257.406 64.9447 258.463 66.0293 259.227 67.457C260.001 68.8848 260.389 70.6279 260.389 72.6865ZM247.556 72.6865C247.556 73.904 247.688 74.9277 247.954 75.7578C248.22 76.5879 248.635 77.2132 249.199 77.6338C249.764 78.0544 250.5 78.2646 251.407 78.2646C252.304 78.2646 253.029 78.0544 253.582 77.6338C254.146 77.2132 254.556 76.5879 254.811 75.7578C255.076 74.9277 255.209 73.904 255.209 72.6865C255.209 71.458 255.076 70.4398 254.811 69.6318C254.556 68.8128 254.146 68.1986 253.582 67.7891C253.018 67.3796 252.282 67.1748 251.374 67.1748C250.035 67.1748 249.061 67.6341 248.452 68.5527C247.854 69.4714 247.556 70.8493 247.556 72.6865ZM263.858 79.626C263.858 78.5856 264.141 77.8551 264.705 77.4346C265.281 77.014 265.972 76.8037 266.78 76.8037C267.566 76.8037 268.241 77.014 268.806 77.4346C269.381 77.8551 269.669 78.5856 269.669 79.626C269.669 80.6221 269.381 81.3415 268.806 81.7842C268.241 82.2269 267.566 82.4482 266.78 82.4482C265.972 82.4482 265.281 82.2269 264.705 81.7842C264.141 81.3415 263.858 80.6221 263.858 79.626ZM263.858 65.9131C263.858 64.8727 264.141 64.1423 264.705 63.7217C265.281 63.3011 265.972 63.0908 266.78 63.0908C267.566 63.0908 268.241 63.3011 268.806 63.7217C269.381 64.1423 269.669 64.8727 269.669 65.9131C269.669 66.9202 269.381 67.6452 268.806 68.0879C268.241 68.5195 267.566 68.7354 266.78 68.7354C265.972 68.7354 265.281 68.5195 264.705 68.0879C264.141 67.6452 263.858 66.9202 263.858 65.9131ZM290.637 66.4941C292.12 66.4941 293.437 66.7764 294.588 67.3408C295.75 67.9053 296.663 68.7354 297.327 69.8311C297.991 70.9268 298.323 72.277 298.323 73.8818C298.323 75.6305 297.958 77.1413 297.228 78.4141C296.508 79.6758 295.429 80.6442 293.99 81.3193C292.562 81.9945 290.781 82.332 288.645 82.332C287.372 82.332 286.171 82.2214 285.042 82C283.924 81.7897 282.945 81.4632 282.104 81.0205V76.5879C282.945 77.0306 283.952 77.4069 285.125 77.7168C286.309 78.0156 287.422 78.165 288.462 78.165C289.48 78.165 290.338 78.0322 291.035 77.7666C291.732 77.4899 292.258 77.0693 292.612 76.5049C292.978 75.9294 293.16 75.1989 293.16 74.3135C293.16 73.1292 292.762 72.2217 291.965 71.5908C291.168 70.96 289.945 70.6445 288.296 70.6445C287.665 70.6445 287.007 70.7054 286.32 70.8271C285.645 70.9489 285.081 71.0706 284.627 71.1924L282.585 70.0967L283.498 57.7285H296.663V62.0781H287.997L287.549 66.8428C287.925 66.7653 288.335 66.6878 288.777 66.6104C289.22 66.5329 289.84 66.4941 290.637 66.4941ZM318.096 69.8643C318.096 71.8232 317.941 73.5719 317.631 75.1104C317.332 76.6488 316.845 77.9548 316.17 79.0283C315.506 80.1019 314.632 80.9209 313.547 81.4854C312.462 82.0498 311.145 82.332 309.596 82.332C307.648 82.332 306.049 81.8395 304.798 80.8545C303.547 79.8584 302.623 78.4307 302.025 76.5713C301.428 74.7008 301.129 72.4652 301.129 69.8643C301.129 67.2412 301.4 65 301.942 63.1406C302.496 61.2702 303.392 59.8369 304.632 58.8408C305.871 57.8447 307.526 57.3467 309.596 57.3467C311.533 57.3467 313.126 57.8447 314.377 58.8408C315.639 59.8258 316.574 61.2536 317.183 63.124C317.791 64.9834 318.096 67.2301 318.096 69.8643ZM306.226 69.8643C306.226 71.7126 306.325 73.2565 306.524 74.4961C306.735 75.7246 307.083 76.6488 307.57 77.2686C308.057 77.8883 308.732 78.1982 309.596 78.1982C310.448 78.1982 311.118 77.8939 311.604 77.2852C312.103 76.6654 312.457 75.7412 312.667 74.5127C312.877 73.2731 312.982 71.7236 312.982 69.8643C312.982 68.016 312.877 66.472 312.667 65.2324C312.457 63.9928 312.103 63.0632 311.604 62.4434C311.118 61.8125 310.448 61.4971 309.596 61.4971C308.732 61.4971 308.057 61.8125 307.57 62.4434C307.083 63.0632 306.735 63.9928 306.524 65.2324C306.325 66.472 306.226 68.016 306.226 69.8643ZM336.739 63.1572C336.739 64.2751 336.507 65.2435 336.042 66.0625C335.577 66.8815 334.946 67.5511 334.149 68.0713C333.364 68.5915 332.478 68.9733 331.493 69.2168V69.3164C333.441 69.5599 334.919 70.1576 335.926 71.1094C336.944 72.0612 337.453 73.334 337.453 74.9277C337.453 76.3444 337.104 77.6117 336.407 78.7295C335.721 79.8473 334.659 80.7272 333.22 81.3691C331.781 82.0111 329.927 82.332 327.658 82.332C326.319 82.332 325.068 82.2214 323.906 82C322.755 81.7897 321.671 81.4632 320.652 81.0205V76.6543C321.693 77.1855 322.783 77.5895 323.923 77.8662C325.063 78.1318 326.125 78.2646 327.11 78.2646C328.948 78.2646 330.231 77.9492 330.962 77.3184C331.703 76.6764 332.074 75.7799 332.074 74.6289C332.074 73.9538 331.903 73.3838 331.56 72.9189C331.216 72.4541 330.619 72.0999 329.767 71.8564C328.925 71.613 327.747 71.4912 326.23 71.4912H324.388V67.5566H326.264C327.758 67.5566 328.892 67.4183 329.667 67.1416C330.453 66.8538 330.984 66.4665 331.261 65.9795C331.549 65.4814 331.692 64.917 331.692 64.2861C331.692 63.4229 331.427 62.7477 330.896 62.2607C330.364 61.7738 329.479 61.5303 328.239 61.5303C327.465 61.5303 326.756 61.6299 326.114 61.8291C325.483 62.0173 324.913 62.2497 324.404 62.5264C323.895 62.792 323.447 63.0521 323.06 63.3066L320.686 59.7705C321.637 59.0843 322.75 58.5143 324.022 58.0605C325.306 57.6068 326.834 57.3799 328.604 57.3799C331.106 57.3799 333.087 57.8835 334.548 58.8906C336.009 59.8978 336.739 61.32 336.739 63.1572Z" fill="black"/>
</svg>
