<svg width="40" height="40" viewBox="0 0 40 40" fill="none" xmlns="http://www.w3.org/2000/svg">
<path d="M7.83333 2H3.16667C2.52267 2 2 2.52267 2 3.16667V7.83333C2 8.47733 2.52267 9 3.16667 9H7.83333C8.47733 9 9 8.47733 9 7.83333V3.16667C9 2.52267 8.47733 2 7.83333 2Z" fill="black"/>
<path d="M7.83333 15H3.16667C2.52267 15 2 15.5227 2 16.1667V20.8333C2 21.4773 2.52267 22 3.16667 22H7.83333C8.47733 22 9 21.4773 9 20.8333V16.1667C9 15.5227 8.47733 15 7.83333 15Z" fill="black"/>
<path d="M7.83333 28H3.16667C2.52267 28 2 28.5227 2 29.1667V33.8333C2 34.4773 2.52267 35 3.16667 35H7.83333C8.47733 35 9 34.4773 9 33.8333V29.1667C9 28.5227 8.47733 28 7.83333 28Z" fill="black"/>
<path d="M20.8333 2H16.1667C15.5227 2 15 2.52267 15 3.16667V7.83333C15 8.47733 15.5227 9 16.1667 9H20.8333C21.4773 9 22 8.47733 22 7.83333V3.16667C22 2.52267 21.4773 2 20.8333 2Z" fill="black"/>
<path d="M20.8333 15H16.1667C15.5227 15 15 15.5227 15 16.1667V20.8333C15 21.4773 15.5227 22 16.1667 22H20.8333C21.4773 22 22 21.4773 22 20.8333V16.1667C22 15.5227 21.4773 15 20.8333 15Z" fill="black"/>
<path d="M20.8333 28H16.1667C15.5227 28 15 28.5227 15 29.1667V33.8333C15 34.4773 15.5227 35 16.1667 35H20.8333C21.4773 35 22 34.4773 22 33.8333V29.1667C22 28.5227 21.4773 28 20.8333 28Z" fill="black"/>
<path d="M33.8333 2H29.1667C28.5227 2 28 2.52267 28 3.16667V7.83333C28 8.47733 28.5227 9 29.1667 9H33.8333C34.4773 9 35 8.47733 35 7.83333V3.16667C35 2.52267 34.4773 2 33.8333 2Z" fill="black"/>
<path d="M33.8333 15H29.1667C28.5227 15 28 15.5227 28 16.1667V20.8333C28 21.4773 28.5227 22 29.1667 22H33.8333C34.4773 22 35 21.4773 35 20.8333V16.1667C35 15.5227 34.4773 15 33.8333 15Z" fill="black"/>
<path d="M33.8333 28H29.1667C28.5227 28 28 28.5227 28 29.1667V33.8333C28 34.4773 28.5227 35 29.1667 35H33.8333C34.4773 35 35 34.4773 35 33.8333V29.1667C35 28.5227 34.4773 28 33.8333 28Z" fill="black"/>
</svg>
