        <svg width="400" height="400" viewBox="0 0 469 453" fill="none" xmlns="http://www.w3.org/2000/svg">
            <path d="M233.5 453C358.592 453 460 351.592 460 226.5C460 101.408 358.592 0 233.5 0C108.407 0 7 101.408 7 226.5C7 351.592 108.407 453 233.5 453Z" fill="#F2F2F2"/>
            <path d="M467.061 112.175H1.76839C0.770653 112.154 -0.0209185 111.328 0.000421535 110.33C0.0211115 109.362 0.800683 108.583 1.76839 108.562H467.061C468.059 108.583 468.851 109.409 468.829 110.407C468.809 111.375 468.029 112.154 467.061 112.175Z" fill="#CACACA"/>
            <path d="M286.108 183.379C288.437 155.242 267.515 130.545 239.379 128.216C211.242 125.888 186.545 146.809 184.216 174.946C181.888 203.082 202.809 227.779 230.946 230.108C259.083 232.437 283.779 211.515 286.108 183.379Z" fill="#DB1E2F"/>
            <path d="M248.591 157.863L235.162 171.291L221.734 157.863C219.56 155.689 216.036 155.689 213.862 157.863C211.689 160.036 211.689 163.561 213.862 165.734L227.29 179.163L213.862 192.591C211.691 194.767 211.694 198.291 213.87 200.463C216.042 202.632 219.561 202.632 221.734 200.463L235.162 187.035L248.591 200.463C250.766 202.634 254.291 202.631 256.462 200.455C258.631 198.283 258.631 194.764 256.462 192.591L243.034 179.163L256.462 165.734C258.636 163.561 258.636 160.036 256.462 157.863C254.289 155.689 250.764 155.689 248.591 157.863V157.863Z" fill="white"/>
            <path d="M25.3746 89.2901C30.045 89.2901 33.8312 85.4196 33.8312 80.6451C33.8312 75.8705 30.045 72 25.3746 72C20.7041 72 16.918 75.8705 16.918 80.6451C16.918 85.4196 20.7041 89.2901 25.3746 89.2901Z" fill="#3F3D56"/>
            <path d="M54.5883 89.2901C59.2588 89.2901 63.0449 85.4196 63.0449 80.6451C63.0449 75.8705 59.2588 72 54.5883 72C49.9179 72 46.1317 75.8705 46.1317 80.6451C46.1317 85.4196 49.9179 89.2901 54.5883 89.2901Z" fill="#3F3D56"/>
            <path d="M83.8021 89.2901C88.4725 89.2901 92.2587 85.4196 92.2587 80.6451C92.2587 75.8705 88.4725 72 83.8021 72C79.1316 72 75.3455 75.8705 75.3455 80.6451C75.3455 85.4196 79.1316 89.2901 83.8021 89.2901Z" fill="#3F3D56"/>
            <path d="M117.114 87.478C116.854 87.478 116.594 87.3774 116.399 87.1772L110.693 81.3442C110.312 80.9556 110.312 80.3345 110.693 79.9458L116.399 74.1133C116.786 73.7188 117.42 73.7124 117.813 74.0977C118.208 74.4839 118.215 75.1172 117.828 75.5117L112.806 80.645L117.828 85.7788C118.215 86.1733 118.208 86.8066 117.813 87.1929C117.618 87.3833 117.366 87.478 117.114 87.478V87.478Z" fill="#3F3D56"/>
            <path d="M126.702 87.4778C126.449 87.4778 126.197 87.3831 126.003 87.1926C125.608 86.8064 125.601 86.1736 125.987 85.7786L131.008 80.6448L125.987 75.5115C125.601 75.1169 125.608 74.4836 126.003 74.0974C126.397 73.7107 127.03 73.718 127.417 74.113L133.122 79.9456C133.503 80.3342 133.503 80.9553 133.122 81.344L127.417 87.177C127.221 87.3772 126.962 87.4778 126.702 87.4778V87.4778Z" fill="#3F3D56"/>
            <path d="M425.212 73.001H414.602C413.392 73.001 412.412 73.981 412.412 75.191V85.811C412.412 87.021 413.392 88.001 414.602 88.001H425.212C426.422 88.001 427.412 87.021 427.412 85.811V75.191C427.412 73.981 426.422 73.001 425.212 73.001Z" fill="#3F3D56"/>
            <path d="M399.212 73.001H388.602C387.392 73.001 386.412 73.981 386.412 75.191V85.811C386.412 87.021 387.392 88.001 388.602 88.001H399.212C400.422 88.001 401.412 87.021 401.412 85.811V75.191C401.412 73.981 400.422 73.001 399.212 73.001Z" fill="#3F3D56"/>
            <path d="M449.712 73.501H439.102C437.892 73.501 436.912 74.481 436.912 75.691V86.311C436.912 87.521 437.892 88.501 439.102 88.501H449.712C450.922 88.501 451.912 87.521 451.912 86.311V75.691C451.912 74.481 450.922 73.501 449.712 73.501Z" fill="#3F3D56"/>
            <path d="M289.79 77.541H204.98C203.5 77.541 202.31 78.741 202.31 80.2111C202.31 81.6811 203.5 82.881 204.98 82.881H289.79C291.26 82.881 292.46 81.681 292.46 80.2111C292.46 78.7411 291.26 77.541 289.79 77.541Z" fill="#3F3D56"/>
            <path d="M103.992 270.592H122.864V277.648H103.992V270.592ZM104.664 286.72H126V294H95.648V254.8H125.272V262.08H104.664V286.72ZM132.602 294V263.872H140.946V272.384L139.77 269.92C140.666 267.792 142.104 266.187 144.082 265.104C146.061 263.984 148.469 263.424 151.306 263.424V271.488C150.933 271.451 150.597 271.432 150.298 271.432C150 271.395 149.682 271.376 149.346 271.376C146.957 271.376 145.016 272.067 143.522 273.448C142.066 274.792 141.338 276.901 141.338 279.776V294H132.602ZM156.555 294V263.872H164.899V272.384L163.723 269.92C164.619 267.792 166.057 266.187 168.035 265.104C170.014 263.984 172.422 263.424 175.259 263.424V271.488C174.886 271.451 174.55 271.432 174.251 271.432C173.953 271.395 173.635 271.376 173.299 271.376C170.91 271.376 168.969 272.067 167.475 273.448C166.019 274.792 165.291 276.901 165.291 279.776V294H156.555ZM194.571 294.448C191.36 294.448 188.504 293.776 186.003 292.432C183.539 291.088 181.579 289.259 180.123 286.944C178.704 284.592 177.995 281.923 177.995 278.936C177.995 275.912 178.704 273.243 180.123 270.928C181.579 268.576 183.539 266.747 186.003 265.44C188.504 264.096 191.36 263.424 194.571 263.424C197.744 263.424 200.582 264.096 203.083 265.44C205.584 266.747 207.544 268.557 208.963 270.872C210.382 273.187 211.091 275.875 211.091 278.936C211.091 281.923 210.382 284.592 208.963 286.944C207.544 289.259 205.584 291.088 203.083 292.432C200.582 293.776 197.744 294.448 194.571 294.448ZM194.571 287.28C196.027 287.28 197.334 286.944 198.491 286.272C199.648 285.6 200.563 284.648 201.235 283.416C201.907 282.147 202.243 280.653 202.243 278.936C202.243 277.181 201.907 275.688 201.235 274.456C200.563 273.224 199.648 272.272 198.491 271.6C197.334 270.928 196.027 270.592 194.571 270.592C193.115 270.592 191.808 270.928 190.651 271.6C189.494 272.272 188.56 273.224 187.851 274.456C187.179 275.688 186.843 277.181 186.843 278.936C186.843 280.653 187.179 282.147 187.851 283.416C188.56 284.648 189.494 285.6 190.651 286.272C191.808 286.944 193.115 287.28 194.571 287.28ZM220.234 274.344C218.741 274.344 217.453 273.84 216.37 272.832C215.325 271.787 214.802 270.461 214.802 268.856C214.802 267.251 215.325 265.963 216.37 264.992C217.453 263.984 218.741 263.48 220.234 263.48C221.765 263.48 223.053 263.984 224.098 264.992C225.144 265.963 225.666 267.251 225.666 268.856C225.666 270.461 225.144 271.787 224.098 272.832C223.053 273.84 221.765 274.344 220.234 274.344ZM220.234 294.448C218.741 294.448 217.453 293.944 216.37 292.936C215.325 291.891 214.802 290.565 214.802 288.96C214.802 287.355 215.325 286.067 216.37 285.096C217.453 284.088 218.741 283.584 220.234 283.584C221.765 283.584 223.053 284.088 224.098 285.096C225.144 286.067 225.666 287.355 225.666 288.96C225.666 290.565 225.144 291.891 224.098 292.936C223.053 293.944 221.765 294.448 220.234 294.448ZM245.15 285.768V279.664L263.63 254.8H273.15L255.062 279.664L250.638 278.376H281.494V285.768H245.15ZM266.262 294V285.768L266.542 278.376V271.04H275.11V294H266.262ZM301.007 294.672C297.797 294.672 294.922 293.888 292.383 292.32C289.845 290.715 287.847 288.4 286.391 285.376C284.935 282.352 284.207 278.693 284.207 274.4C284.207 270.107 284.935 266.448 286.391 263.424C287.847 260.4 289.845 258.104 292.383 256.536C294.922 254.931 297.797 254.128 301.007 254.128C304.255 254.128 307.13 254.931 309.631 256.536C312.17 258.104 314.167 260.4 315.623 263.424C317.079 266.448 317.807 270.107 317.807 274.4C317.807 278.693 317.079 282.352 315.623 285.376C314.167 288.4 312.17 290.715 309.631 292.32C307.13 293.888 304.255 294.672 301.007 294.672ZM301.007 287C302.538 287 303.863 286.571 304.983 285.712C306.141 284.853 307.037 283.491 307.671 281.624C308.343 279.757 308.679 277.349 308.679 274.4C308.679 271.451 308.343 269.043 307.671 267.176C307.037 265.309 306.141 263.947 304.983 263.088C303.863 262.229 302.538 261.8 301.007 261.8C299.514 261.8 298.189 262.229 297.031 263.088C295.911 263.947 295.015 265.309 294.343 267.176C293.709 269.043 293.391 271.451 293.391 274.4C293.391 277.349 293.709 279.757 294.343 281.624C295.015 283.491 295.911 284.853 297.031 285.712C298.189 286.571 299.514 287 301.007 287ZM321.767 285.768V279.664L340.247 254.8H349.767L331.679 279.664L327.255 278.376H358.111V285.768H321.767ZM342.879 294V285.768L343.159 278.376V271.04H351.727V294H342.879Z" fill="black"/>
            <path d="M17.988 355V329.8H28.896C31.152 329.8 33.096 330.172 34.728 330.916C36.36 331.636 37.62 332.68 38.508 334.048C39.396 335.416 39.84 337.048 39.84 338.944C39.84 340.816 39.396 342.436 38.508 343.804C37.62 345.172 36.36 346.228 34.728 346.972C33.096 347.692 31.152 348.052 28.896 348.052H21.228L23.82 345.424V355H17.988ZM23.82 346.072L21.228 343.3H28.572C30.372 343.3 31.716 342.916 32.604 342.148C33.492 341.38 33.936 340.312 33.936 338.944C33.936 337.552 33.492 336.472 32.604 335.704C31.716 334.936 30.372 334.552 28.572 334.552H21.228L23.82 331.78V346.072ZM55.3118 355V351.22L54.9518 350.392V343.624C54.9518 342.424 54.5798 341.488 53.8358 340.816C53.1158 340.144 51.9998 339.808 50.4878 339.808C49.4558 339.808 48.4358 339.976 47.4278 340.312C46.4438 340.624 45.6038 341.056 44.9078 341.608L42.8918 337.684C43.9478 336.94 45.2198 336.364 46.7078 335.956C48.1958 335.548 49.7078 335.344 51.2438 335.344C54.1958 335.344 56.4878 336.04 58.1198 337.432C59.7518 338.824 60.5678 340.996 60.5678 343.948V355H55.3118ZM49.4078 355.288C47.8958 355.288 46.5998 355.036 45.5198 354.532C44.4398 354.004 43.6118 353.296 43.0358 352.408C42.4598 351.52 42.1718 350.524 42.1718 349.42C42.1718 348.268 42.4478 347.26 42.9998 346.396C43.5758 345.532 44.4758 344.86 45.6998 344.38C46.9238 343.876 48.5198 343.624 50.4878 343.624H55.6358V346.9H51.0998C49.7798 346.9 48.8678 347.116 48.3638 347.548C47.8838 347.98 47.6438 348.52 47.6438 349.168C47.6438 349.888 47.9198 350.464 48.4718 350.896C49.0478 351.304 49.8278 351.508 50.8118 351.508C51.7478 351.508 52.5878 351.292 53.3318 350.86C54.0758 350.404 54.6158 349.744 54.9518 348.88L55.8158 351.472C55.4078 352.72 54.6638 353.668 53.5838 354.316C52.5038 354.964 51.1118 355.288 49.4078 355.288ZM48.5438 333.148L53.4038 327.964H59.4518L52.9358 333.148H48.5438ZM74.8992 362.272C73.0752 362.272 71.3112 362.044 69.6072 361.588C67.9272 361.156 66.5232 360.496 65.3952 359.608L67.6272 355.576C68.4432 356.248 69.4752 356.776 70.7232 357.16C71.9952 357.568 73.2432 357.772 74.4672 357.772C76.4592 357.772 77.8992 357.328 78.7872 356.44C79.6992 355.552 80.1552 354.232 80.1552 352.48V349.564L80.5152 344.704L80.4432 339.808V335.632H85.7712V351.76C85.7712 355.36 84.8352 358.012 82.9632 359.716C81.0912 361.42 78.4032 362.272 74.8992 362.272ZM74.0352 354.064C72.2352 354.064 70.6032 353.68 69.1392 352.912C67.6992 352.12 66.5352 351.028 65.6472 349.636C64.7832 348.22 64.3512 346.576 64.3512 344.704C64.3512 342.808 64.7832 341.164 65.6472 339.772C66.5352 338.356 67.6992 337.264 69.1392 336.496C70.6032 335.728 72.2352 335.344 74.0352 335.344C75.6672 335.344 77.1072 335.68 78.3552 336.352C79.6032 337 80.5752 338.02 81.2712 339.412C81.9672 340.78 82.3152 342.544 82.3152 344.704C82.3152 346.84 81.9672 348.604 81.2712 349.996C80.5752 351.364 79.6032 352.384 78.3552 353.056C77.1072 353.728 75.6672 354.064 74.0352 354.064ZM75.1512 349.456C76.1352 349.456 77.0112 349.264 77.7792 348.88C78.5472 348.472 79.1472 347.908 79.5792 347.188C80.0112 346.468 80.2272 345.64 80.2272 344.704C80.2272 343.744 80.0112 342.916 79.5792 342.22C79.1472 341.5 78.5472 340.948 77.7792 340.564C77.0112 340.156 76.1352 339.952 75.1512 339.952C74.1672 339.952 73.2912 340.156 72.5232 340.564C71.7552 340.948 71.1432 341.5 70.6872 342.22C70.2552 342.916 70.0392 343.744 70.0392 344.704C70.0392 345.64 70.2552 346.468 70.6872 347.188C71.1432 347.908 71.7552 348.472 72.5232 348.88C73.2912 349.264 74.1672 349.456 75.1512 349.456ZM90.9983 355V335.632H96.6143V355H90.9983ZM93.8063 332.932C92.7743 332.932 91.9343 332.632 91.2863 332.032C90.6383 331.432 90.3143 330.688 90.3143 329.8C90.3143 328.912 90.6383 328.168 91.2863 327.568C91.9343 326.968 92.7743 326.668 93.8063 326.668C94.8383 326.668 95.6783 326.956 96.3263 327.532C96.9743 328.084 97.2983 328.804 97.2983 329.692C97.2983 330.628 96.9743 331.408 96.3263 332.032C95.7023 332.632 94.8623 332.932 93.8063 332.932ZM113.598 335.344C115.134 335.344 116.502 335.656 117.702 336.28C118.926 336.88 119.886 337.816 120.582 339.088C121.278 340.336 121.626 341.944 121.626 343.912V355H116.01V344.776C116.01 343.216 115.662 342.064 114.966 341.32C114.294 340.576 113.334 340.204 112.086 340.204C111.198 340.204 110.394 340.396 109.674 340.78C108.978 341.14 108.426 341.704 108.018 342.472C107.634 343.24 107.442 344.224 107.442 345.424V355H101.826V335.632H107.19V340.996L106.182 339.376C106.878 338.08 107.874 337.084 109.17 336.388C110.466 335.692 111.942 335.344 113.598 335.344ZM138.597 355V351.22L138.237 350.392V343.624C138.237 342.424 137.865 341.488 137.121 340.816C136.401 340.144 135.285 339.808 133.773 339.808C132.741 339.808 131.721 339.976 130.713 340.312C129.729 340.624 128.889 341.056 128.193 341.608L126.177 337.684C127.233 336.94 128.505 336.364 129.993 335.956C131.481 335.548 132.993 335.344 134.529 335.344C137.481 335.344 139.773 336.04 141.405 337.432C143.037 338.824 143.853 340.996 143.853 343.948V355H138.597ZM132.693 355.288C131.181 355.288 129.885 355.036 128.805 354.532C127.725 354.004 126.897 353.296 126.321 352.408C125.745 351.52 125.457 350.524 125.457 349.42C125.457 348.268 125.733 347.26 126.285 346.396C126.861 345.532 127.761 344.86 128.985 344.38C130.209 343.876 131.805 343.624 133.773 343.624H138.921V346.9H134.385C133.065 346.9 132.153 347.116 131.649 347.548C131.169 347.98 130.929 348.52 130.929 349.168C130.929 349.888 131.205 350.464 131.757 350.896C132.333 351.304 133.113 351.508 134.097 351.508C135.033 351.508 135.873 351.292 136.617 350.86C137.361 350.404 137.901 349.744 138.237 348.88L139.101 351.472C138.693 352.72 137.949 353.668 136.869 354.316C135.789 354.964 134.397 355.288 132.693 355.288ZM170.903 335.344C172.439 335.344 173.807 335.656 175.007 336.28C176.231 336.88 177.191 337.816 177.887 339.088C178.583 340.336 178.931 341.944 178.931 343.912V355H173.315V344.776C173.315 343.216 172.967 342.064 172.271 341.32C171.599 340.576 170.639 340.204 169.391 340.204C168.503 340.204 167.699 340.396 166.979 340.78C166.283 341.14 165.731 341.704 165.323 342.472C164.939 343.24 164.747 344.224 164.747 345.424V355H159.131V335.632H164.495V340.996L163.487 339.376C164.183 338.08 165.179 337.084 166.475 336.388C167.771 335.692 169.247 335.344 170.903 335.344ZM195.902 355V351.22L195.542 350.392V343.624C195.542 342.424 195.17 341.488 194.426 340.816C193.706 340.144 192.59 339.808 191.078 339.808C190.046 339.808 189.026 339.976 188.018 340.312C187.034 340.624 186.194 341.056 185.498 341.608L183.482 337.684C184.538 336.94 185.81 336.364 187.298 335.956C188.786 335.548 190.298 335.344 191.834 335.344C194.786 335.344 197.078 336.04 198.71 337.432C200.342 338.824 201.158 340.996 201.158 343.948V355H195.902ZM189.998 355.288C188.486 355.288 187.19 355.036 186.11 354.532C185.03 354.004 184.202 353.296 183.626 352.408C183.05 351.52 182.762 350.524 182.762 349.42C182.762 348.268 183.038 347.26 183.59 346.396C184.166 345.532 185.066 344.86 186.29 344.38C187.514 343.876 189.11 343.624 191.078 343.624H196.226V346.9H191.69C190.37 346.9 189.458 347.116 188.954 347.548C188.474 347.98 188.234 348.52 188.234 349.168C188.234 349.888 188.51 350.464 189.062 350.896C189.638 351.304 190.418 351.508 191.402 351.508C192.338 351.508 193.178 351.292 193.922 350.86C194.666 350.404 195.206 349.744 195.542 348.88L196.406 351.472C195.998 352.72 195.254 353.668 194.174 354.316C193.094 354.964 191.702 355.288 189.998 355.288ZM195.11 333.256C194.486 333.256 193.934 333.148 193.454 332.932C192.974 332.692 192.542 332.428 192.158 332.14C191.774 331.828 191.414 331.564 191.078 331.348C190.742 331.108 190.406 330.988 190.07 330.988C189.59 330.988 189.194 331.168 188.882 331.528C188.57 331.864 188.39 332.356 188.342 333.004H185.498C185.546 331.396 185.942 330.124 186.686 329.188C187.43 328.228 188.438 327.748 189.71 327.748C190.334 327.748 190.886 327.868 191.366 328.108C191.846 328.324 192.278 328.588 192.662 328.9C193.07 329.212 193.442 329.488 193.778 329.728C194.114 329.944 194.438 330.052 194.75 330.052C195.254 330.052 195.662 329.884 195.974 329.548C196.286 329.188 196.454 328.708 196.478 328.108H199.322C199.298 329.644 198.902 330.892 198.134 331.852C197.39 332.788 196.382 333.256 195.11 333.256ZM215.597 355.288C213.533 355.288 211.697 354.856 210.089 353.992C208.505 353.128 207.245 351.952 206.309 350.464C205.397 348.952 204.941 347.236 204.941 345.316C204.941 343.372 205.397 341.656 206.309 340.168C207.245 338.656 208.505 337.48 210.089 336.64C211.697 335.776 213.533 335.344 215.597 335.344C217.637 335.344 219.461 335.776 221.069 336.64C222.677 337.48 223.937 338.644 224.849 340.132C225.761 341.62 226.217 343.348 226.217 345.316C226.217 347.236 225.761 348.952 224.849 350.464C223.937 351.952 222.677 353.128 221.069 353.992C219.461 354.856 217.637 355.288 215.597 355.288ZM215.597 350.68C216.533 350.68 217.373 350.464 218.117 350.032C218.861 349.6 219.449 348.988 219.881 348.196C220.313 347.38 220.529 346.42 220.529 345.316C220.529 344.188 220.313 343.228 219.881 342.436C219.449 341.644 218.861 341.032 218.117 340.6C217.373 340.168 216.533 339.952 215.597 339.952C214.661 339.952 213.821 340.168 213.077 340.6C212.333 341.032 211.733 341.644 211.277 342.436C210.845 343.228 210.629 344.188 210.629 345.316C210.629 346.42 210.845 347.38 211.277 348.196C211.733 348.988 212.333 349.6 213.077 350.032C213.821 350.464 214.661 350.68 215.597 350.68ZM249.778 355.288C247.57 355.288 245.626 354.856 243.946 353.992C242.29 353.128 241.006 351.952 240.094 350.464C239.182 348.952 238.726 347.236 238.726 345.316C238.726 343.372 239.17 341.656 240.058 340.168C240.97 338.656 242.206 337.48 243.766 336.64C245.326 335.776 247.09 335.344 249.058 335.344C250.954 335.344 252.658 335.752 254.17 336.568C255.706 337.36 256.918 338.512 257.806 340.024C258.694 341.512 259.138 343.3 259.138 345.388C259.138 345.604 259.126 345.856 259.102 346.144C259.078 346.408 259.054 346.66 259.03 346.9H243.298V343.624H256.078L253.918 344.596C253.918 343.588 253.714 342.712 253.306 341.968C252.898 341.224 252.334 340.648 251.614 340.24C250.894 339.808 250.054 339.592 249.094 339.592C248.134 339.592 247.282 339.808 246.538 340.24C245.818 340.648 245.254 341.236 244.846 342.004C244.438 342.748 244.234 343.636 244.234 344.668V345.532C244.234 346.588 244.462 347.524 244.918 348.34C245.398 349.132 246.058 349.744 246.898 350.176C247.762 350.584 248.77 350.788 249.922 350.788C250.954 350.788 251.854 350.632 252.622 350.32C253.414 350.008 254.134 349.54 254.782 348.916L257.77 352.156C256.882 353.164 255.766 353.944 254.422 354.496C253.078 355.024 251.53 355.288 249.778 355.288ZM274.649 335.344C276.185 335.344 277.553 335.656 278.753 336.28C279.977 336.88 280.937 337.816 281.633 339.088C282.329 340.336 282.677 341.944 282.677 343.912V355H277.061V344.776C277.061 343.216 276.713 342.064 276.017 341.32C275.345 340.576 274.385 340.204 273.137 340.204C272.249 340.204 271.445 340.396 270.725 340.78C270.029 341.14 269.477 341.704 269.069 342.472C268.685 343.24 268.493 344.224 268.493 345.424V355H262.877V335.632H268.241V340.996L267.233 339.376C267.929 338.08 268.925 337.084 270.221 336.388C271.517 335.692 272.993 335.344 274.649 335.344ZM297.268 355.288C295.18 355.288 293.32 354.868 291.688 354.028C290.056 353.164 288.772 351.976 287.836 350.464C286.924 348.952 286.468 347.236 286.468 345.316C286.468 343.372 286.924 341.656 287.836 340.168C288.772 338.656 290.056 337.48 291.688 336.64C293.32 335.776 295.18 335.344 297.268 335.344C299.308 335.344 301.084 335.776 302.596 336.64C304.108 337.48 305.224 338.692 305.944 340.276L301.588 342.616C301.084 341.704 300.448 341.032 299.68 340.6C298.936 340.168 298.12 339.952 297.232 339.952C296.272 339.952 295.408 340.168 294.64 340.6C293.872 341.032 293.26 341.644 292.804 342.436C292.372 343.228 292.156 344.188 292.156 345.316C292.156 346.444 292.372 347.404 292.804 348.196C293.26 348.988 293.872 349.6 294.64 350.032C295.408 350.464 296.272 350.68 297.232 350.68C298.12 350.68 298.936 350.476 299.68 350.068C300.448 349.636 301.084 348.952 301.588 348.016L305.944 350.392C305.224 351.952 304.108 353.164 302.596 354.028C301.084 354.868 299.308 355.288 297.268 355.288ZM318.148 355.288C316.084 355.288 314.248 354.856 312.64 353.992C311.056 353.128 309.796 351.952 308.86 350.464C307.948 348.952 307.492 347.236 307.492 345.316C307.492 343.372 307.948 341.656 308.86 340.168C309.796 338.656 311.056 337.48 312.64 336.64C314.248 335.776 316.084 335.344 318.148 335.344C320.188 335.344 322.012 335.776 323.62 336.64C325.228 337.48 326.488 338.644 327.4 340.132C328.312 341.62 328.768 343.348 328.768 345.316C328.768 347.236 328.312 348.952 327.4 350.464C326.488 351.952 325.228 353.128 323.62 353.992C322.012 354.856 320.188 355.288 318.148 355.288ZM318.148 350.68C319.084 350.68 319.924 350.464 320.668 350.032C321.412 349.6 322 348.988 322.432 348.196C322.864 347.38 323.08 346.42 323.08 345.316C323.08 344.188 322.864 343.228 322.432 342.436C322 341.644 321.412 341.032 320.668 340.6C319.924 340.168 319.084 339.952 318.148 339.952C317.212 339.952 316.372 340.168 315.628 340.6C314.884 341.032 314.284 341.644 313.828 342.436C313.396 343.228 313.18 344.188 313.18 345.316C313.18 346.42 313.396 347.38 313.828 348.196C314.284 348.988 314.884 349.6 315.628 350.032C316.372 350.464 317.212 350.68 318.148 350.68ZM344.294 335.344C345.83 335.344 347.198 335.656 348.398 336.28C349.622 336.88 350.582 337.816 351.278 339.088C351.974 340.336 352.322 341.944 352.322 343.912V355H346.706V344.776C346.706 343.216 346.358 342.064 345.662 341.32C344.99 340.576 344.03 340.204 342.782 340.204C341.894 340.204 341.09 340.396 340.37 340.78C339.674 341.14 339.122 341.704 338.714 342.472C338.33 343.24 338.138 344.224 338.138 345.424V355H332.522V335.632H337.886V340.996L336.878 339.376C337.574 338.08 338.57 337.084 339.866 336.388C341.162 335.692 342.638 335.344 344.294 335.344ZM365.332 355.288C363.052 355.288 361.276 354.712 360.004 353.56C358.732 352.384 358.096 350.644 358.096 348.34V331.348H363.712V348.268C363.712 349.084 363.928 349.72 364.36 350.176C364.792 350.608 365.38 350.824 366.124 350.824C367.012 350.824 367.768 350.584 368.392 350.104L369.904 354.064C369.328 354.472 368.632 354.784 367.816 355C367.024 355.192 366.196 355.288 365.332 355.288ZM355.108 340.384V336.064H368.536V340.384H355.108ZM373.057 355V335.632H378.421V341.104L377.665 339.52C378.241 338.152 379.165 337.12 380.437 336.424C381.709 335.704 383.257 335.344 385.081 335.344V340.528C384.841 340.504 384.625 340.492 384.433 340.492C384.241 340.468 384.037 340.456 383.821 340.456C382.285 340.456 381.037 340.9 380.077 341.788C379.141 342.652 378.673 344.008 378.673 345.856V355H373.057ZM399.035 355V351.22L398.675 350.392V343.624C398.675 342.424 398.303 341.488 397.559 340.816C396.839 340.144 395.723 339.808 394.211 339.808C393.179 339.808 392.159 339.976 391.151 340.312C390.167 340.624 389.327 341.056 388.631 341.608L386.615 337.684C387.671 336.94 388.943 336.364 390.431 335.956C391.919 335.548 393.431 335.344 394.967 335.344C397.919 335.344 400.211 336.04 401.843 337.432C403.475 338.824 404.291 340.996 404.291 343.948V355H399.035ZM393.131 355.288C391.619 355.288 390.323 355.036 389.243 354.532C388.163 354.004 387.335 353.296 386.759 352.408C386.183 351.52 385.895 350.524 385.895 349.42C385.895 348.268 386.171 347.26 386.723 346.396C387.299 345.532 388.199 344.86 389.423 344.38C390.647 343.876 392.243 343.624 394.211 343.624H399.359V346.9H394.823C393.503 346.9 392.591 347.116 392.087 347.548C391.607 347.98 391.367 348.52 391.367 349.168C391.367 349.888 391.643 350.464 392.195 350.896C392.771 351.304 393.551 351.508 394.535 351.508C395.471 351.508 396.311 351.292 397.055 350.86C397.799 350.404 398.339 349.744 398.675 348.88L399.539 351.472C399.131 352.72 398.387 353.668 397.307 354.316C396.227 354.964 394.835 355.288 393.131 355.288ZM417.83 355.288C416.006 355.288 414.362 354.88 412.898 354.064C411.434 353.224 410.27 352.06 409.406 350.572C408.566 349.084 408.146 347.332 408.146 345.316C408.146 343.276 408.566 341.512 409.406 340.024C410.27 338.536 411.434 337.384 412.898 336.568C414.362 335.752 416.006 335.344 417.83 335.344C419.462 335.344 420.89 335.704 422.114 336.424C423.338 337.144 424.286 338.236 424.958 339.7C425.63 341.164 425.966 343.036 425.966 345.316C425.966 347.572 425.642 349.444 424.994 350.932C424.346 352.396 423.41 353.488 422.186 354.208C420.986 354.928 419.534 355.288 417.83 355.288ZM418.802 350.68C419.714 350.68 420.542 350.464 421.286 350.032C422.03 349.6 422.618 348.988 423.05 348.196C423.506 347.38 423.734 346.42 423.734 345.316C423.734 344.188 423.506 343.228 423.05 342.436C422.618 341.644 422.03 341.032 421.286 340.6C420.542 340.168 419.714 339.952 418.802 339.952C417.866 339.952 417.026 340.168 416.282 340.6C415.538 341.032 414.938 341.644 414.482 342.436C414.05 343.228 413.834 344.188 413.834 345.316C413.834 346.42 414.05 347.38 414.482 348.196C414.938 348.988 415.538 349.6 416.282 350.032C417.026 350.464 417.866 350.68 418.802 350.68ZM423.878 355V351.04L423.986 345.28L423.626 339.556V328.288H429.242V355H423.878ZM446.32 355V351.22L445.96 350.392V343.624C445.96 342.424 445.588 341.488 444.844 340.816C444.124 340.144 443.008 339.808 441.496 339.808C440.464 339.808 439.444 339.976 438.436 340.312C437.452 340.624 436.612 341.056 435.916 341.608L433.9 337.684C434.956 336.94 436.228 336.364 437.716 335.956C439.204 335.548 440.716 335.344 442.252 335.344C445.204 335.344 447.496 336.04 449.128 337.432C450.76 338.824 451.576 340.996 451.576 343.948V355H446.32ZM440.416 355.288C438.904 355.288 437.608 355.036 436.528 354.532C435.448 354.004 434.62 353.296 434.044 352.408C433.468 351.52 433.18 350.524 433.18 349.42C433.18 348.268 433.456 347.26 434.008 346.396C434.584 345.532 435.484 344.86 436.708 344.38C437.932 343.876 439.528 343.624 441.496 343.624H446.644V346.9H442.108C440.788 346.9 439.876 347.116 439.372 347.548C438.892 347.98 438.652 348.52 438.652 349.168C438.652 349.888 438.928 350.464 439.48 350.896C440.056 351.304 440.836 351.508 441.82 351.508C442.756 351.508 443.596 351.292 444.34 350.86C445.084 350.404 445.624 349.744 445.96 348.88L446.824 351.472C446.416 352.72 445.672 353.668 444.592 354.316C443.512 354.964 442.12 355.288 440.416 355.288Z" fill="black"/>
            </svg>
